solid OpenSCAD_Model
  facet normal -0.95003174904049 0 -0.3121532889704468
    outer loop
      vertex -12.65 -2.7649278298667364 3.5
      vertex -12.65 2.764927829866736 3.5
      vertex -11.5 2.92497833620557 0
    endloop
  endfacet
  facet normal -0.6933752452815364 -0.6933752452815363 -0.19611613513818404
    outer loop
      vertex -12.65 -2.7649278298667364 3.5
      vertex -11.5 -2.92497833620557 0
      vertex -11 -3.990663761154808 2
    endloop
  endfacet
  facet normal -0.9500317490404901 0 -0.3121532889704469
    outer loop
      vertex -12.65 -2.7649278298667364 3.5
      vertex -11.5 2.92497833620557 0
      vertex -11.5 -2.92497833620557 0
    endloop
  endfacet
  facet normal 0 0 1
    outer loop
      vertex -12.65 -2.7649278298667364 3.5
      vertex -11 -4.414927829866737 3.5
      vertex -11 4.414927829866737 3.5
    endloop
  endfacet
  facet normal -0.6933752452815364 -0.6933752452815364 -0.19611613513818404
    outer loop
      vertex -12.65 -2.7649278298667364 3.5
      vertex -11 -3.990663761154808 2
      vertex -11 -4.414927829866737 3.5
    endloop
  endfacet
  facet normal 0 0 1
    outer loop
      vertex -12.65 -2.7649278298667364 3.5
      vertex -11 4.414927829866737 3.5
      vertex -12.65 2.764927829866736 3.5
    endloop
  endfacet
  facet normal -0.6933752452815365 0.6933752452815363 -0.19611613513818402
    outer loop
      vertex -12.65 2.764927829866736 3.5
      vertex -11 4.414927829866737 3.5
      vertex -11.5 2.92497833620557 0
    endloop
  endfacet
  facet normal 0 0 -1
    outer loop
      vertex -11.5 -2.92497833620557 0
      vertex -11.5 2.92497833620557 0
      vertex -3.5 -3.5 0
    endloop
  endfacet
  facet normal -0.6933752452815364 -0.6933752452815364 -0.19611613513818407
    outer loop
      vertex -11.5 -2.92497833620557 0
      vertex -3.9906637611548077 -11 2
      vertex -11 -3.990663761154808 2
    endloop
  endfacet
  facet normal 0 0 -1
    outer loop
      vertex -11.5 -2.92497833620557 0
      vertex -3.5 -3.5 0
      vertex -2.92497833620557 -11.5 0
    endloop
  endfacet
  facet normal -0.6933752452815364 -0.6933752452815364 -0.19611613513818402
    outer loop
      vertex -11.5 -2.92497833620557 0
      vertex -2.92497833620557 -11.5 0
      vertex -3.9906637611548077 -11 2
    endloop
  endfacet
  facet normal -0.6933752452815364 0.6933752452815364 -0.19611613513818393
    outer loop
      vertex -11.5 2.92497833620557 0
      vertex -11 3.9906637611548077 2
      vertex -2.92497833620557 11.5 0
    endloop
  endfacet
  facet normal -0.6933752452815357 0.6933752452815369 -0.1961161351381844
    outer loop
      vertex -11.5 2.92497833620557 0
      vertex -11 4.414927829866737 3.5
      vertex -11 3.9906637611548077 2
    endloop
  endfacet
  facet normal 0 0 -1
    outer loop
      vertex -11.5 2.92497833620557 0
      vertex -3.5 3.5 0
      vertex -3.5 -3.5 0
    endloop
  endfacet
  facet normal 0 0 -1
    outer loop
      vertex -11.5 2.92497833620557 0
      vertex -2.92497833620557 11.5 0
      vertex -3.5 3.5 0
    endloop
  endfacet
  facet normal 1 0 0
    outer loop
      vertex -11 -4.414927829866737 3.5
      vertex -11 -3.990663761154808 2
      vertex -11 4.414927829866737 3.5
    endloop
  endfacet
  facet normal 1 0 0
    outer loop
      vertex -11 -3.990663761154808 2
      vertex -11 3.9906637611548077 2
      vertex -11 4.414927829866737 3.5
    endloop
  endfacet
  facet normal 0 0 1
    outer loop
      vertex -11 -3.990663761154808 2
      vertex -3.9906637611548077 -11 2
      vertex -3.5 -3.5 2
    endloop
  endfacet
  facet normal 0 0 1
    outer loop
      vertex -11 -3.990663761154808 2
      vertex -3.5 -3.5 2
      vertex -11 3.9906637611548077 2
    endloop
  endfacet
  facet normal -0.6933752452815364 0.6933752452815364 -0.19611613513818416
    outer loop
      vertex -11 3.9906637611548077 2
      vertex -3.990663761154808 11 2
      vertex -2.92497833620557 11.5 0
    endloop
  endfacet
  facet normal 0 0 1
    outer loop
      vertex -11 3.9906637611548077 2
      vertex -3.5 -3.5 2
      vertex -3.5 3.5 2
    endloop
  endfacet
  facet normal 0 0 1
    outer loop
      vertex -11 3.9906637611548077 2
      vertex -3.5 3.5 2
      vertex -3.990663761154808 11 2
    endloop
  endfacet
  facet normal -0.6933752452815369 -0.6933752452815357 -0.1961161351381844
    outer loop
      vertex -4.414927829866737 -11 3.5
      vertex -3.9906637611548077 -11 2
      vertex -2.92497833620557 -11.5 0
    endloop
  endfacet
  facet normal -0.6933752452815363 -0.6933752452815365 -0.19611613513818402
    outer loop
      vertex -4.414927829866737 -11 3.5
      vertex -2.92497833620557 -11.5 0
      vertex -2.764927829866736 -12.65 3.5
    endloop
  endfacet
  facet normal 0 0 1
    outer loop
      vertex -4.414927829866737 -11 3.5
      vertex -2.764927829866736 -12.65 3.5
      vertex 2.7649278298667364 -12.65 3.5
    endloop
  endfacet
  facet normal 0 0 1
    outer loop
      vertex -4.414927829866737 -11 3.5
      vertex 2.7649278298667364 -12.65 3.5
      vertex 4.414927829866737 -11 3.5
    endloop
  endfacet
  facet normal 0 1 0
    outer loop
      vertex -4.414927829866737 -11 3.5
      vertex 3.990663761154808 -11 2
      vertex -3.9906637611548077 -11 2
    endloop
  endfacet
  facet normal 0 1 0
    outer loop
      vertex -4.414927829866737 -11 3.5
      vertex 4.414927829866737 -11 3.5
      vertex 3.990663761154808 -11 2
    endloop
  endfacet
  facet normal 0 -1 0
    outer loop
      vertex -4.414927829866737 11 3.5
      vertex -3.990663761154808 11 2
      vertex 4.414927829866737 11 3.5
    endloop
  endfacet
  facet normal -0.6933752452815364 0.6933752452815364 -0.19611613513818404
    outer loop
      vertex -4.414927829866737 11 3.5
      vertex -2.7649278298667364 12.65 3.5
      vertex -3.990663761154808 11 2
    endloop
  endfacet
  facet normal 0 0 1
    outer loop
      vertex -4.414927829866737 11 3.5
      vertex 4.414927829866737 11 3.5
      vertex -2.7649278298667364 12.65 3.5
    endloop
  endfacet
  facet normal 0 0 1
    outer loop
      vertex -3.990663761154808 11 2
      vertex -3.5 3.5 2
      vertex 3.9906637611548077 11 2
    endloop
  endfacet
  facet normal -0.6933752452815364 0.6933752452815364 -0.19611613513818407
    outer loop
      vertex -3.990663761154808 11 2
      vertex -2.7649278298667364 12.65 3.5
      vertex -2.92497833620557 11.5 0
    endloop
  endfacet
  facet normal 0 -1 0
    outer loop
      vertex -3.990663761154808 11 2
      vertex 3.9906637611548077 11 2
      vertex 4.414927829866737 11 3.5
    endloop
  endfacet
  facet normal 0 0 1
    outer loop
      vertex -3.9906637611548077 -11 2
      vertex 3.5 -3.5 2
      vertex -3.5 -3.5 2
    endloop
  endfacet
  facet normal 0 0 1
    outer loop
      vertex -3.9906637611548077 -11 2
      vertex 3.990663761154808 -11 2
      vertex 3.5 -3.5 2
    endloop
  endfacet
  facet normal 0 1 0
    outer loop
      vertex -3.5 -3.5 0
      vertex -3.5 -3.5 2
      vertex 3.5 -3.5 0
    endloop
  endfacet
  facet normal 1 0 0
    outer loop
      vertex -3.5 -3.5 0
      vertex -3.5 3.5 0
      vertex -3.5 3.5 2
    endloop
  endfacet
  facet normal 1 0 0
    outer loop
      vertex -3.5 -3.5 0
      vertex -3.5 3.5 2
      vertex -3.5 -3.5 2
    endloop
  endfacet
  facet normal 0 0 -1
    outer loop
      vertex -3.5 -3.5 0
      vertex 3.5 -3.5 0
      vertex -2.92497833620557 -11.5 0
    endloop
  endfacet
  facet normal 0 1 0
    outer loop
      vertex -3.5 -3.5 2
      vertex 3.5 -3.5 2
      vertex 3.5 -3.5 0
    endloop
  endfacet
  facet normal 0 0 -1
    outer loop
      vertex -3.5 3.5 0
      vertex -2.92497833620557 11.5 0
      vertex 2.92497833620557 11.5 0
    endloop
  endfacet
  facet normal 0 0 -1
    outer loop
      vertex -3.5 3.5 0
      vertex 2.92497833620557 11.5 0
      vertex 3.5 3.5 0
    endloop
  endfacet
  facet normal 0 -1 0
    outer loop
      vertex -3.5 3.5 0
      vertex 3.5 3.5 0
      vertex 3.5 3.5 2
    endloop
  endfacet
  facet normal 0 -1 0
    outer loop
      vertex -3.5 3.5 0
      vertex 3.5 3.5 2
      vertex -3.5 3.5 2
    endloop
  endfacet
  facet normal 0 0 1
    outer loop
      vertex -3.5 3.5 2
      vertex 3.5 3.5 2
      vertex 3.9906637611548077 11 2
    endloop
  endfacet
  facet normal 0 -0.95003174904049 -0.3121532889704468
    outer loop
      vertex -2.92497833620557 -11.5 0
      vertex 2.7649278298667364 -12.65 3.5
      vertex -2.764927829866736 -12.65 3.5
    endloop
  endfacet
  facet normal 0 -0.9500317490404901 -0.31215328897044686
    outer loop
      vertex -2.92497833620557 -11.5 0
      vertex 2.92497833620557 -11.5 0
      vertex 2.7649278298667364 -12.65 3.5
    endloop
  endfacet
  facet normal 0 0 -1
    outer loop
      vertex -2.92497833620557 -11.5 0
      vertex 3.5 -3.5 0
      vertex 2.92497833620557 -11.5 0
    endloop
  endfacet
  facet normal 0 0.9500317490404901 -0.31215328897044686
    outer loop
      vertex -2.92497833620557 11.5 0
      vertex -2.7649278298667364 12.65 3.5
      vertex 2.92497833620557 11.5 0
    endloop
  endfacet
  facet normal 0 0.95003174904049 -0.3121532889704468
    outer loop
      vertex -2.7649278298667364 12.65 3.5
      vertex 2.764927829866736 12.65 3.5
      vertex 2.92497833620557 11.5 0
    endloop
  endfacet
  facet normal 0 0 1
    outer loop
      vertex -2.7649278298667364 12.65 3.5
      vertex 4.414927829866737 11 3.5
      vertex 2.764927829866736 12.65 3.5
    endloop
  endfacet
  facet normal 0.6933752452815363 0.6933752452815365 -0.19611613513818402
    outer loop
      vertex 2.764927829866736 12.65 3.5
      vertex 4.414927829866737 11 3.5
      vertex 2.92497833620557 11.5 0
    endloop
  endfacet
  facet normal 0.6933752452815364 -0.6933752452815364 -0.19611613513818407
    outer loop
      vertex 2.7649278298667364 -12.65 3.5
      vertex 2.92497833620557 -11.5 0
      vertex 3.990663761154808 -11 2
    endloop
  endfacet
  facet normal 0.6933752452815364 -0.6933752452815364 -0.19611613513818402
    outer loop
      vertex 2.7649278298667364 -12.65 3.5
      vertex 3.990663761154808 -11 2
      vertex 4.414927829866737 -11 3.5
    endloop
  endfacet
  facet normal 0 0 -1
    outer loop
      vertex 2.92497833620557 -11.5 0
      vertex 3.5 -3.5 0
      vertex 11.5 -2.92497833620557 0
    endloop
  endfacet
  facet normal 0.6933752452815364 -0.6933752452815364 -0.19611613513818413
    outer loop
      vertex 2.92497833620557 -11.5 0
      vertex 11 -3.9906637611548077 2
      vertex 3.990663761154808 -11 2
    endloop
  endfacet
  facet normal 0.6933752452815364 -0.6933752452815364 -0.19611613513818452
    outer loop
      vertex 2.92497833620557 -11.5 0
      vertex 11.5 -2.92497833620557 0
      vertex 11 -3.9906637611548077 2
    endloop
  endfacet
  facet normal 0.6933752452815364 0.6933752452815364 -0.19611613513818393
    outer loop
      vertex 2.92497833620557 11.5 0
      vertex 3.9906637611548077 11 2
      vertex 11.5 2.92497833620557 0
    endloop
  endfacet
  facet normal 0.6933752452815369 0.6933752452815357 -0.1961161351381844
    outer loop
      vertex 2.92497833620557 11.5 0
      vertex 4.414927829866737 11 3.5
      vertex 3.9906637611548077 11 2
    endloop
  endfacet
  facet normal 0 0 -1
    outer loop
      vertex 2.92497833620557 11.5 0
      vertex 11.5 2.92497833620557 0
      vertex 3.5 3.5 0
    endloop
  endfacet
  facet normal -1 0 0
    outer loop
      vertex 3.5 -3.5 0
      vertex 3.5 -3.5 2
      vertex 3.5 3.5 0
    endloop
  endfacet
  facet normal 0 0 -1
    outer loop
      vertex 3.5 -3.5 0
      vertex 3.5 3.5 0
      vertex 11.5 -2.92497833620557 0
    endloop
  endfacet
  facet normal -1 0 0
    outer loop
      vertex 3.5 -3.5 2
      vertex 3.5 3.5 2
      vertex 3.5 3.5 0
    endloop
  endfacet
  facet normal 0 0 1
    outer loop
      vertex 3.5 -3.5 2
      vertex 3.990663761154808 -11 2
      vertex 11 -3.9906637611548077 2
    endloop
  endfacet
  facet normal 0 0 1
    outer loop
      vertex 3.5 -3.5 2
      vertex 11 -3.9906637611548077 2
      vertex 3.5 3.5 2
    endloop
  endfacet
  facet normal 0 0 -1
    outer loop
      vertex 3.5 3.5 0
      vertex 11.5 2.92497833620557 0
      vertex 11.5 -2.92497833620557 0
    endloop
  endfacet
  facet normal 0 0 1
    outer loop
      vertex 3.5 3.5 2
      vertex 11 -3.9906637611548077 2
      vertex 11 3.990663761154808 2
    endloop
  endfacet
  facet normal 0 0 1
    outer loop
      vertex 3.5 3.5 2
      vertex 11 3.990663761154808 2
      vertex 3.9906637611548077 11 2
    endloop
  endfacet
  facet normal 0.6933752452815364 0.6933752452815364 -0.19611613513818416
    outer loop
      vertex 3.9906637611548077 11 2
      vertex 11 3.990663761154808 2
      vertex 11.5 2.92497833620557 0
    endloop
  endfacet
  facet normal 0.6933752452815357 -0.6933752452815368 -0.19611613513818438
    outer loop
      vertex 11 -4.414927829866737 3.5
      vertex 11 -3.9906637611548077 2
      vertex 11.5 -2.92497833620557 0
    endloop
  endfacet
  facet normal -1 0 0
    outer loop
      vertex 11 -4.414927829866737 3.5
      vertex 11 3.990663761154808 2
      vertex 11 -3.9906637611548077 2
    endloop
  endfacet
  facet normal -1 0 0
    outer loop
      vertex 11 -4.414927829866737 3.5
      vertex 11 4.414927829866737 3.5
      vertex 11 3.990663761154808 2
    endloop
  endfacet
  facet normal 0.6933752452815365 -0.6933752452815363 -0.196116135138184
    outer loop
      vertex 11 -4.414927829866737 3.5
      vertex 11.5 -2.92497833620557 0
      vertex 12.65 -2.764927829866736 3.5
    endloop
  endfacet
  facet normal 0 0 1
    outer loop
      vertex 11 -4.414927829866737 3.5
      vertex 12.65 -2.764927829866736 3.5
      vertex 12.65 2.7649278298667364 3.5
    endloop
  endfacet
  facet normal 0 0 1
    outer loop
      vertex 11 -4.414927829866737 3.5
      vertex 12.65 2.7649278298667364 3.5
      vertex 11 4.414927829866737 3.5
    endloop
  endfacet
  facet normal 0.6933752452815364 0.6933752452815364 -0.19611613513818404
    outer loop
      vertex 11 3.990663761154808 2
      vertex 11 4.414927829866737 3.5
      vertex 12.65 2.7649278298667364 3.5
    endloop
  endfacet
  facet normal 0.6933752452815364 0.6933752452815364 -0.19611613513818407
    outer loop
      vertex 11 3.990663761154808 2
      vertex 12.65 2.7649278298667364 3.5
      vertex 11.5 2.92497833620557 0
    endloop
  endfacet
  facet normal 0.9500317490404901 0 -0.31215328897044686
    outer loop
      vertex 11.5 -2.92497833620557 0
      vertex 11.5 2.92497833620557 0
      vertex 12.65 2.7649278298667364 3.5
    endloop
  endfacet
  facet normal 0.95003174904049 0 -0.3121532889704468
    outer loop
      vertex 11.5 -2.92497833620557 0
      vertex 12.65 2.7649278298667364 3.5
      vertex 12.65 -2.764927829866736 3.5
    endloop
  endfacet
endsolid OpenSCAD_Model
