ISO-10303-21;
HEADER;
FILE_DESCRIPTION(('FreeCAD Model'),'2;1');
FILE_NAME('Open CASCADE Shape Model','2025-02-04T11:25:54',(''),(''),
  'Open CASCADE STEP processor 7.8','FreeCAD','Unknown');
FILE_SCHEMA(('AUTOMOTIVE_DESIGN { 1 0 10303 214 1 1 1 1 }'));
ENDSEC;
DATA;
#1 = APPLICATION_PROTOCOL_DEFINITION('international standard',
  'automotive_design',2000,#2);
#2 = APPLICATION_CONTEXT(
  'core data for automotive mechanical design processes');
#3 = SHAPE_DEFINITION_REPRESENTATION(#4,#10);
#4 = PRODUCT_DEFINITION_SHAPE('','',#5);
#5 = PRODUCT_DEFINITION('design','',#6,#9);
#6 = PRODUCT_DEFINITION_FORMATION('','',#7);
#7 = PRODUCT('bourns_srn2512','bourns_srn2512','',(#8));
#8 = PRODUCT_CONTEXT('',#2,'mechanical');
#9 = PRODUCT_DEFINITION_CONTEXT('part definition',#2,'design');
#10 = SHAPE_REPRESENTATION('',(#11,#15,#19,#23),#27);
#11 = AXIS2_PLACEMENT_3D('',#12,#13,#14);
#12 = CARTESIAN_POINT('',(0.,0.,0.));
#13 = DIRECTION('',(0.,0.,1.));
#14 = DIRECTION('',(1.,0.,-0.));
#15 = AXIS2_PLACEMENT_3D('',#16,#17,#18);
#16 = CARTESIAN_POINT('',(0.,0.,0.));
#17 = DIRECTION('',(0.,0.,1.));
#18 = DIRECTION('',(1.,0.,0.));
#19 = AXIS2_PLACEMENT_3D('',#20,#21,#22);
#20 = CARTESIAN_POINT('',(0.,0.,0.));
#21 = DIRECTION('',(0.,0.,1.));
#22 = DIRECTION('',(1.,0.,0.));
#23 = AXIS2_PLACEMENT_3D('',#24,#25,#26);
#24 = CARTESIAN_POINT('',(0.,0.,0.));
#25 = DIRECTION('',(0.,0.,1.));
#26 = DIRECTION('',(1.,0.,0.));
#27 = ( GEOMETRIC_REPRESENTATION_CONTEXT(3) 
GLOBAL_UNCERTAINTY_ASSIGNED_CONTEXT((#31)) GLOBAL_UNIT_ASSIGNED_CONTEXT(
(#28,#29,#30)) REPRESENTATION_CONTEXT('Context #1',
  '3D Context with UNIT and UNCERTAINTY') );
#28 = ( LENGTH_UNIT() NAMED_UNIT(*) SI_UNIT(.MILLI.,.METRE.) );
#29 = ( NAMED_UNIT(*) PLANE_ANGLE_UNIT() SI_UNIT($,.RADIAN.) );
#30 = ( NAMED_UNIT(*) SI_UNIT($,.STERADIAN.) SOLID_ANGLE_UNIT() );
#31 = UNCERTAINTY_MEASURE_WITH_UNIT(LENGTH_MEASURE(1.E-07),#28,
  'distance_accuracy_value','confusion accuracy');
#32 = PRODUCT_RELATED_PRODUCT_CATEGORY('part',$,(#7));
#33 = SHAPE_DEFINITION_REPRESENTATION(#34,#40);
#34 = PRODUCT_DEFINITION_SHAPE('','',#35);
#35 = PRODUCT_DEFINITION('design','',#36,#39);
#36 = PRODUCT_DEFINITION_FORMATION('','',#37);
#37 = PRODUCT('Body','Body','',(#38));
#38 = PRODUCT_CONTEXT('',#2,'mechanical');
#39 = PRODUCT_DEFINITION_CONTEXT('part definition',#2,'design');
#40 = ADVANCED_BREP_SHAPE_REPRESENTATION('',(#11,#41),#720);
#41 = MANIFOLD_SOLID_BREP('',#42);
#42 = CLOSED_SHELL('',(#43,#83,#164,#189,#259,#276,#325,#356,#403,#427,
    #467,#509,#534,#559,#576,#601,#618,#651,#670,#682,#699,#711));
#43 = ADVANCED_FACE('',(#44),#78,.F.);
#44 = FACE_BOUND('',#45,.F.);
#45 = EDGE_LOOP('',(#46,#56,#64,#72));
#46 = ORIENTED_EDGE('',*,*,#47,.F.);
#47 = EDGE_CURVE('',#48,#50,#52,.T.);
#48 = VERTEX_POINT('',#49);
#49 = CARTESIAN_POINT('',(-1.,0.72,7.E-02));
#50 = VERTEX_POINT('',#51);
#51 = CARTESIAN_POINT('',(-1.,-0.72,7.E-02));
#52 = LINE('',#53,#54);
#53 = CARTESIAN_POINT('',(-1.,0.8,7.E-02));
#54 = VECTOR('',#55,1.);
#55 = DIRECTION('',(0.,-1.,0.));
#56 = ORIENTED_EDGE('',*,*,#57,.T.);
#57 = EDGE_CURVE('',#48,#58,#60,.T.);
#58 = VERTEX_POINT('',#59);
#59 = CARTESIAN_POINT('',(-1.,0.72,1.));
#60 = LINE('',#61,#62);
#61 = CARTESIAN_POINT('',(-1.,0.72,0.));
#62 = VECTOR('',#63,1.);
#63 = DIRECTION('',(0.,0.,1.));
#64 = ORIENTED_EDGE('',*,*,#65,.T.);
#65 = EDGE_CURVE('',#58,#66,#68,.T.);
#66 = VERTEX_POINT('',#67);
#67 = CARTESIAN_POINT('',(-1.,-0.72,1.));
#68 = LINE('',#69,#70);
#69 = CARTESIAN_POINT('',(-1.,0.8,1.));
#70 = VECTOR('',#71,1.);
#71 = DIRECTION('',(0.,-1.,0.));
#72 = ORIENTED_EDGE('',*,*,#73,.F.);
#73 = EDGE_CURVE('',#50,#66,#74,.T.);
#74 = LINE('',#75,#76);
#75 = CARTESIAN_POINT('',(-1.,-0.72,0.));
#76 = VECTOR('',#77,1.);
#77 = DIRECTION('',(0.,0.,1.));
#78 = PLANE('',#79);
#79 = AXIS2_PLACEMENT_3D('',#80,#81,#82);
#80 = CARTESIAN_POINT('',(-1.,0.8,0.));
#81 = DIRECTION('',(1.,0.,0.));
#82 = DIRECTION('',(0.,-1.,0.));
#83 = ADVANCED_FACE('',(#84),#159,.F.);
#84 = FACE_BOUND('',#85,.F.);
#85 = EDGE_LOOP('',(#86,#95,#96,#105,#113,#121,#129,#137,#145,#153));
#86 = ORIENTED_EDGE('',*,*,#87,.F.);
#87 = EDGE_CURVE('',#48,#88,#90,.T.);
#88 = VERTEX_POINT('',#89);
#89 = CARTESIAN_POINT('',(-0.92,0.8,7.E-02));
#90 = CIRCLE('',#91,8.E-02);
#91 = AXIS2_PLACEMENT_3D('',#92,#93,#94);
#92 = CARTESIAN_POINT('',(-0.92,0.72,7.E-02));
#93 = DIRECTION('',(-0.,-0.,-1.));
#94 = DIRECTION('',(0.,-1.,0.));
#95 = ORIENTED_EDGE('',*,*,#47,.T.);
#96 = ORIENTED_EDGE('',*,*,#97,.T.);
#97 = EDGE_CURVE('',#50,#98,#100,.T.);
#98 = VERTEX_POINT('',#99);
#99 = CARTESIAN_POINT('',(-0.92,-0.8,7.E-02));
#100 = CIRCLE('',#101,8.E-02);
#101 = AXIS2_PLACEMENT_3D('',#102,#103,#104);
#102 = CARTESIAN_POINT('',(-0.92,-0.72,7.E-02));
#103 = DIRECTION('',(-0.,0.,1.));
#104 = DIRECTION('',(0.,-1.,0.));
#105 = ORIENTED_EDGE('',*,*,#106,.T.);
#106 = EDGE_CURVE('',#98,#107,#109,.T.);
#107 = VERTEX_POINT('',#108);
#108 = CARTESIAN_POINT('',(-0.4,-0.8,7.E-02));
#109 = LINE('',#110,#111);
#110 = CARTESIAN_POINT('',(-1.,-0.8,7.E-02));
#111 = VECTOR('',#112,1.);
#112 = DIRECTION('',(1.,0.,0.));
#113 = ORIENTED_EDGE('',*,*,#114,.T.);
#114 = EDGE_CURVE('',#107,#115,#117,.T.);
#115 = VERTEX_POINT('',#116);
#116 = CARTESIAN_POINT('',(-0.4,-5.E-02,7.E-02));
#117 = LINE('',#118,#119);
#118 = CARTESIAN_POINT('',(-0.4,-0.8,7.E-02));
#119 = VECTOR('',#120,1.);
#120 = DIRECTION('',(0.,1.,0.));
#121 = ORIENTED_EDGE('',*,*,#122,.F.);
#122 = EDGE_CURVE('',#123,#115,#125,.T.);
#123 = VERTEX_POINT('',#124);
#124 = CARTESIAN_POINT('',(-0.918616,-5.E-02,7.E-02));
#125 = LINE('',#126,#127);
#126 = CARTESIAN_POINT('',(-0.918616,-5.E-02,7.E-02));
#127 = VECTOR('',#128,1.);
#128 = DIRECTION('',(1.,0.,0.));
#129 = ORIENTED_EDGE('',*,*,#130,.F.);
#130 = EDGE_CURVE('',#131,#123,#133,.T.);
#131 = VERTEX_POINT('',#132);
#132 = CARTESIAN_POINT('',(-0.918616,5.E-02,7.E-02));
#133 = LINE('',#134,#135);
#134 = CARTESIAN_POINT('',(-0.918616,5.E-02,7.E-02));
#135 = VECTOR('',#136,1.);
#136 = DIRECTION('',(0.,-1.,0.));
#137 = ORIENTED_EDGE('',*,*,#138,.F.);
#138 = EDGE_CURVE('',#139,#131,#141,.T.);
#139 = VERTEX_POINT('',#140);
#140 = CARTESIAN_POINT('',(-0.4,5.E-02,7.E-02));
#141 = LINE('',#142,#143);
#142 = CARTESIAN_POINT('',(0.,5.E-02,7.E-02));
#143 = VECTOR('',#144,1.);
#144 = DIRECTION('',(-1.,0.,0.));
#145 = ORIENTED_EDGE('',*,*,#146,.T.);
#146 = EDGE_CURVE('',#139,#147,#149,.T.);
#147 = VERTEX_POINT('',#148);
#148 = CARTESIAN_POINT('',(-0.4,0.8,7.E-02));
#149 = LINE('',#150,#151);
#150 = CARTESIAN_POINT('',(-0.4,-0.8,7.E-02));
#151 = VECTOR('',#152,1.);
#152 = DIRECTION('',(0.,1.,0.));
#153 = ORIENTED_EDGE('',*,*,#154,.T.);
#154 = EDGE_CURVE('',#147,#88,#155,.T.);
#155 = LINE('',#156,#157);
#156 = CARTESIAN_POINT('',(-0.4,0.8,7.E-02));
#157 = VECTOR('',#158,1.);
#158 = DIRECTION('',(-1.,0.,0.));
#159 = PLANE('',#160);
#160 = AXIS2_PLACEMENT_3D('',#161,#162,#163);
#161 = CARTESIAN_POINT('',(-0.7,0.,7.E-02));
#162 = DIRECTION('',(0.,0.,1.));
#163 = DIRECTION('',(1.,0.,0.));
#164 = ADVANCED_FACE('',(#165),#184,.T.);
#165 = FACE_BOUND('',#166,.T.);
#166 = EDGE_LOOP('',(#167,#168,#169,#177));
#167 = ORIENTED_EDGE('',*,*,#73,.F.);
#168 = ORIENTED_EDGE('',*,*,#97,.T.);
#169 = ORIENTED_EDGE('',*,*,#170,.T.);
#170 = EDGE_CURVE('',#98,#171,#173,.T.);
#171 = VERTEX_POINT('',#172);
#172 = CARTESIAN_POINT('',(-0.92,-0.8,1.));
#173 = LINE('',#174,#175);
#174 = CARTESIAN_POINT('',(-0.92,-0.8,0.));
#175 = VECTOR('',#176,1.);
#176 = DIRECTION('',(0.,0.,1.));
#177 = ORIENTED_EDGE('',*,*,#178,.F.);
#178 = EDGE_CURVE('',#66,#171,#179,.T.);
#179 = CIRCLE('',#180,8.E-02);
#180 = AXIS2_PLACEMENT_3D('',#181,#182,#183);
#181 = CARTESIAN_POINT('',(-0.92,-0.72,1.));
#182 = DIRECTION('',(-0.,0.,1.));
#183 = DIRECTION('',(0.,-1.,0.));
#184 = CYLINDRICAL_SURFACE('',#185,8.E-02);
#185 = AXIS2_PLACEMENT_3D('',#186,#187,#188);
#186 = CARTESIAN_POINT('',(-0.92,-0.72,0.));
#187 = DIRECTION('',(0.,0.,1.));
#188 = DIRECTION('',(-1.,0.,0.));
#189 = ADVANCED_FACE('',(#190,#243),#254,.T.);
#190 = FACE_BOUND('',#191,.T.);
#191 = EDGE_LOOP('',(#192,#193,#194,#202,#211,#219,#228,#236));
#192 = ORIENTED_EDGE('',*,*,#65,.T.);
#193 = ORIENTED_EDGE('',*,*,#178,.T.);
#194 = ORIENTED_EDGE('',*,*,#195,.T.);
#195 = EDGE_CURVE('',#171,#196,#198,.T.);
#196 = VERTEX_POINT('',#197);
#197 = CARTESIAN_POINT('',(0.92,-0.8,1.));
#198 = LINE('',#199,#200);
#199 = CARTESIAN_POINT('',(-1.,-0.8,1.));
#200 = VECTOR('',#201,1.);
#201 = DIRECTION('',(1.,0.,0.));
#202 = ORIENTED_EDGE('',*,*,#203,.T.);
#203 = EDGE_CURVE('',#196,#204,#206,.T.);
#204 = VERTEX_POINT('',#205);
#205 = CARTESIAN_POINT('',(1.,-0.72,1.));
#206 = CIRCLE('',#207,8.E-02);
#207 = AXIS2_PLACEMENT_3D('',#208,#209,#210);
#208 = CARTESIAN_POINT('',(0.92,-0.72,1.));
#209 = DIRECTION('',(-0.,0.,1.));
#210 = DIRECTION('',(0.,-1.,0.));
#211 = ORIENTED_EDGE('',*,*,#212,.T.);
#212 = EDGE_CURVE('',#204,#213,#215,.T.);
#213 = VERTEX_POINT('',#214);
#214 = CARTESIAN_POINT('',(1.,0.72,1.));
#215 = LINE('',#216,#217);
#216 = CARTESIAN_POINT('',(1.,-0.8,1.));
#217 = VECTOR('',#218,1.);
#218 = DIRECTION('',(0.,1.,0.));
#219 = ORIENTED_EDGE('',*,*,#220,.T.);
#220 = EDGE_CURVE('',#213,#221,#223,.T.);
#221 = VERTEX_POINT('',#222);
#222 = CARTESIAN_POINT('',(0.92,0.8,1.));
#223 = CIRCLE('',#224,8.E-02);
#224 = AXIS2_PLACEMENT_3D('',#225,#226,#227);
#225 = CARTESIAN_POINT('',(0.92,0.72,1.));
#226 = DIRECTION('',(-0.,0.,1.));
#227 = DIRECTION('',(0.,-1.,0.));
#228 = ORIENTED_EDGE('',*,*,#229,.T.);
#229 = EDGE_CURVE('',#221,#230,#232,.T.);
#230 = VERTEX_POINT('',#231);
#231 = CARTESIAN_POINT('',(-0.92,0.8,1.));
#232 = LINE('',#233,#234);
#233 = CARTESIAN_POINT('',(1.,0.8,1.));
#234 = VECTOR('',#235,1.);
#235 = DIRECTION('',(-1.,0.,0.));
#236 = ORIENTED_EDGE('',*,*,#237,.F.);
#237 = EDGE_CURVE('',#58,#230,#238,.T.);
#238 = CIRCLE('',#239,8.E-02);
#239 = AXIS2_PLACEMENT_3D('',#240,#241,#242);
#240 = CARTESIAN_POINT('',(-0.92,0.72,1.));
#241 = DIRECTION('',(-0.,-0.,-1.));
#242 = DIRECTION('',(0.,-1.,0.));
#243 = FACE_BOUND('',#244,.T.);
#244 = EDGE_LOOP('',(#245));
#245 = ORIENTED_EDGE('',*,*,#246,.F.);
#246 = EDGE_CURVE('',#247,#247,#249,.T.);
#247 = VERTEX_POINT('',#248);
#248 = CARTESIAN_POINT('',(-0.6,-0.5,1.));
#249 = CIRCLE('',#250,0.1);
#250 = AXIS2_PLACEMENT_3D('',#251,#252,#253);
#251 = CARTESIAN_POINT('',(-0.7,-0.5,1.));
#252 = DIRECTION('',(0.,0.,1.));
#253 = DIRECTION('',(1.,0.,0.));
#254 = PLANE('',#255);
#255 = AXIS2_PLACEMENT_3D('',#256,#257,#258);
#256 = CARTESIAN_POINT('',(0.,0.,1.));
#257 = DIRECTION('',(0.,0.,1.));
#258 = DIRECTION('',(1.,0.,0.));
#259 = ADVANCED_FACE('',(#260),#271,.T.);
#260 = FACE_BOUND('',#261,.F.);
#261 = EDGE_LOOP('',(#262,#263,#264,#270));
#262 = ORIENTED_EDGE('',*,*,#57,.F.);
#263 = ORIENTED_EDGE('',*,*,#87,.T.);
#264 = ORIENTED_EDGE('',*,*,#265,.T.);
#265 = EDGE_CURVE('',#88,#230,#266,.T.);
#266 = LINE('',#267,#268);
#267 = CARTESIAN_POINT('',(-0.92,0.8,0.));
#268 = VECTOR('',#269,1.);
#269 = DIRECTION('',(0.,0.,1.));
#270 = ORIENTED_EDGE('',*,*,#237,.F.);
#271 = CYLINDRICAL_SURFACE('',#272,8.E-02);
#272 = AXIS2_PLACEMENT_3D('',#273,#274,#275);
#273 = CARTESIAN_POINT('',(-0.92,0.72,0.));
#274 = DIRECTION('',(0.,0.,1.));
#275 = DIRECTION('',(-1.,0.,0.));
#276 = ADVANCED_FACE('',(#277),#320,.F.);
#277 = FACE_BOUND('',#278,.F.);
#278 = EDGE_LOOP('',(#279,#289,#297,#305,#311,#312,#313,#314));
#279 = ORIENTED_EDGE('',*,*,#280,.F.);
#280 = EDGE_CURVE('',#281,#283,#285,.T.);
#281 = VERTEX_POINT('',#282);
#282 = CARTESIAN_POINT('',(0.4,0.8,8.881784197001E-17));
#283 = VERTEX_POINT('',#284);
#284 = CARTESIAN_POINT('',(-0.4,0.8,0.));
#285 = LINE('',#286,#287);
#286 = CARTESIAN_POINT('',(1.,0.8,0.));
#287 = VECTOR('',#288,1.);
#288 = DIRECTION('',(-1.,0.,0.));
#289 = ORIENTED_EDGE('',*,*,#290,.T.);
#290 = EDGE_CURVE('',#281,#291,#293,.T.);
#291 = VERTEX_POINT('',#292);
#292 = CARTESIAN_POINT('',(0.4,0.8,7.E-02));
#293 = LINE('',#294,#295);
#294 = CARTESIAN_POINT('',(0.4,0.8,8.881784197001E-17));
#295 = VECTOR('',#296,1.);
#296 = DIRECTION('',(-2.22044604925E-16,2.465190328816E-32,1.));
#297 = ORIENTED_EDGE('',*,*,#298,.T.);
#298 = EDGE_CURVE('',#291,#299,#301,.T.);
#299 = VERTEX_POINT('',#300);
#300 = CARTESIAN_POINT('',(0.92,0.8,7.E-02));
#301 = LINE('',#302,#303);
#302 = CARTESIAN_POINT('',(0.4,0.8,7.E-02));
#303 = VECTOR('',#304,1.);
#304 = DIRECTION('',(1.,-2.22044604925E-16,2.22044604925E-16));
#305 = ORIENTED_EDGE('',*,*,#306,.T.);
#306 = EDGE_CURVE('',#299,#221,#307,.T.);
#307 = LINE('',#308,#309);
#308 = CARTESIAN_POINT('',(0.92,0.8,0.));
#309 = VECTOR('',#310,1.);
#310 = DIRECTION('',(0.,0.,1.));
#311 = ORIENTED_EDGE('',*,*,#229,.T.);
#312 = ORIENTED_EDGE('',*,*,#265,.F.);
#313 = ORIENTED_EDGE('',*,*,#154,.F.);
#314 = ORIENTED_EDGE('',*,*,#315,.F.);
#315 = EDGE_CURVE('',#283,#147,#316,.T.);
#316 = LINE('',#317,#318);
#317 = CARTESIAN_POINT('',(-0.4,0.8,0.));
#318 = VECTOR('',#319,1.);
#319 = DIRECTION('',(0.,0.,1.));
#320 = PLANE('',#321);
#321 = AXIS2_PLACEMENT_3D('',#322,#323,#324);
#322 = CARTESIAN_POINT('',(1.,0.8,0.));
#323 = DIRECTION('',(0.,-1.,0.));
#324 = DIRECTION('',(-1.,0.,0.));
#325 = ADVANCED_FACE('',(#326),#351,.T.);
#326 = FACE_BOUND('',#327,.T.);
#327 = EDGE_LOOP('',(#328,#336,#337,#343,#344,#345));
#328 = ORIENTED_EDGE('',*,*,#329,.T.);
#329 = EDGE_CURVE('',#330,#107,#332,.T.);
#330 = VERTEX_POINT('',#331);
#331 = CARTESIAN_POINT('',(-0.4,-0.8,0.));
#332 = LINE('',#333,#334);
#333 = CARTESIAN_POINT('',(-0.4,-0.8,0.));
#334 = VECTOR('',#335,1.);
#335 = DIRECTION('',(0.,0.,1.));
#336 = ORIENTED_EDGE('',*,*,#114,.T.);
#337 = ORIENTED_EDGE('',*,*,#338,.T.);
#338 = EDGE_CURVE('',#115,#139,#339,.T.);
#339 = LINE('',#340,#341);
#340 = CARTESIAN_POINT('',(-0.4,-0.8,7.E-02));
#341 = VECTOR('',#342,1.);
#342 = DIRECTION('',(0.,1.,0.));
#343 = ORIENTED_EDGE('',*,*,#146,.T.);
#344 = ORIENTED_EDGE('',*,*,#315,.F.);
#345 = ORIENTED_EDGE('',*,*,#346,.F.);
#346 = EDGE_CURVE('',#330,#283,#347,.T.);
#347 = LINE('',#348,#349);
#348 = CARTESIAN_POINT('',(-0.4,-0.8,0.));
#349 = VECTOR('',#350,1.);
#350 = DIRECTION('',(0.,1.,0.));
#351 = PLANE('',#352);
#352 = AXIS2_PLACEMENT_3D('',#353,#354,#355);
#353 = CARTESIAN_POINT('',(-0.4,-0.8,0.));
#354 = DIRECTION('',(-1.,0.,0.));
#355 = DIRECTION('',(0.,1.,0.));
#356 = ADVANCED_FACE('',(#357),#398,.F.);
#357 = FACE_BOUND('',#358,.F.);
#358 = EDGE_LOOP('',(#359,#367,#375,#383,#391,#397));
#359 = ORIENTED_EDGE('',*,*,#360,.T.);
#360 = EDGE_CURVE('',#131,#361,#363,.T.);
#361 = VERTEX_POINT('',#362);
#362 = CARTESIAN_POINT('',(-0.918616,5.E-02,8.E-02));
#363 = LINE('',#364,#365);
#364 = CARTESIAN_POINT('',(-0.918616,5.E-02,7.E-02));
#365 = VECTOR('',#366,1.);
#366 = DIRECTION('',(0.,0.,1.));
#367 = ORIENTED_EDGE('',*,*,#368,.F.);
#368 = EDGE_CURVE('',#369,#361,#371,.T.);
#369 = VERTEX_POINT('',#370);
#370 = CARTESIAN_POINT('',(0.918616,5.E-02,8.E-02));
#371 = LINE('',#372,#373);
#372 = CARTESIAN_POINT('',(0.,5.E-02,8.E-02));
#373 = VECTOR('',#374,1.);
#374 = DIRECTION('',(-1.,0.,0.));
#375 = ORIENTED_EDGE('',*,*,#376,.F.);
#376 = EDGE_CURVE('',#377,#369,#379,.T.);
#377 = VERTEX_POINT('',#378);
#378 = CARTESIAN_POINT('',(0.918616,5.E-02,7.E-02));
#379 = LINE('',#380,#381);
#380 = CARTESIAN_POINT('',(0.918616,5.E-02,7.E-02));
#381 = VECTOR('',#382,1.);
#382 = DIRECTION('',(-2.22044604925E-16,2.465190328816E-32,1.));
#383 = ORIENTED_EDGE('',*,*,#384,.F.);
#384 = EDGE_CURVE('',#385,#377,#387,.T.);
#385 = VERTEX_POINT('',#386);
#386 = CARTESIAN_POINT('',(0.4,5.E-02,7.E-02));
#387 = LINE('',#388,#389);
#388 = CARTESIAN_POINT('',(-4.440892098501E-18,5.E-02,7.E-02));
#389 = VECTOR('',#390,1.);
#390 = DIRECTION('',(1.,-2.22044604925E-16,2.22044604925E-16));
#391 = ORIENTED_EDGE('',*,*,#392,.T.);
#392 = EDGE_CURVE('',#385,#139,#393,.T.);
#393 = LINE('',#394,#395);
#394 = CARTESIAN_POINT('',(0.,5.E-02,7.E-02));
#395 = VECTOR('',#396,1.);
#396 = DIRECTION('',(-1.,0.,0.));
#397 = ORIENTED_EDGE('',*,*,#138,.T.);
#398 = PLANE('',#399);
#399 = AXIS2_PLACEMENT_3D('',#400,#401,#402);
#400 = CARTESIAN_POINT('',(-7.512747617957E-18,5.E-02,7.5E-02));
#401 = DIRECTION('',(0.,1.,0.));
#402 = DIRECTION('',(0.,0.,1.));
#403 = ADVANCED_FACE('',(#404),#422,.T.);
#404 = FACE_BOUND('',#405,.T.);
#405 = EDGE_LOOP('',(#406,#407,#415,#421));
#406 = ORIENTED_EDGE('',*,*,#360,.T.);
#407 = ORIENTED_EDGE('',*,*,#408,.T.);
#408 = EDGE_CURVE('',#361,#409,#411,.T.);
#409 = VERTEX_POINT('',#410);
#410 = CARTESIAN_POINT('',(-0.918616,-5.E-02,8.E-02));
#411 = LINE('',#412,#413);
#412 = CARTESIAN_POINT('',(-0.918616,5.E-02,8.E-02));
#413 = VECTOR('',#414,1.);
#414 = DIRECTION('',(0.,-1.,0.));
#415 = ORIENTED_EDGE('',*,*,#416,.F.);
#416 = EDGE_CURVE('',#123,#409,#417,.T.);
#417 = LINE('',#418,#419);
#418 = CARTESIAN_POINT('',(-0.918616,-5.E-02,7.E-02));
#419 = VECTOR('',#420,1.);
#420 = DIRECTION('',(0.,0.,1.));
#421 = ORIENTED_EDGE('',*,*,#130,.F.);
#422 = PLANE('',#423);
#423 = AXIS2_PLACEMENT_3D('',#424,#425,#426);
#424 = CARTESIAN_POINT('',(-0.918616,5.E-02,7.E-02));
#425 = DIRECTION('',(1.,0.,0.));
#426 = DIRECTION('',(0.,-1.,0.));
#427 = ADVANCED_FACE('',(#428),#462,.F.);
#428 = FACE_BOUND('',#429,.F.);
#429 = EDGE_LOOP('',(#430,#431,#432,#440,#448,#456));
#430 = ORIENTED_EDGE('',*,*,#416,.F.);
#431 = ORIENTED_EDGE('',*,*,#122,.T.);
#432 = ORIENTED_EDGE('',*,*,#433,.F.);
#433 = EDGE_CURVE('',#434,#115,#436,.T.);
#434 = VERTEX_POINT('',#435);
#435 = CARTESIAN_POINT('',(0.4,-5.E-02,7.E-02));
#436 = LINE('',#437,#438);
#437 = CARTESIAN_POINT('',(0.918616,-5.E-02,7.E-02));
#438 = VECTOR('',#439,1.);
#439 = DIRECTION('',(-1.,2.22044604925E-16,-2.22044604925E-16));
#440 = ORIENTED_EDGE('',*,*,#441,.F.);
#441 = EDGE_CURVE('',#442,#434,#444,.T.);
#442 = VERTEX_POINT('',#443);
#443 = CARTESIAN_POINT('',(0.918616,-5.E-02,7.E-02));
#444 = LINE('',#445,#446);
#445 = CARTESIAN_POINT('',(0.918616,-5.E-02,7.E-02));
#446 = VECTOR('',#447,1.);
#447 = DIRECTION('',(-1.,2.22044604925E-16,-2.22044604925E-16));
#448 = ORIENTED_EDGE('',*,*,#449,.T.);
#449 = EDGE_CURVE('',#442,#450,#452,.T.);
#450 = VERTEX_POINT('',#451);
#451 = CARTESIAN_POINT('',(0.918616,-5.E-02,8.E-02));
#452 = LINE('',#453,#454);
#453 = CARTESIAN_POINT('',(0.918616,-5.E-02,7.E-02));
#454 = VECTOR('',#455,1.);
#455 = DIRECTION('',(-2.22044604925E-16,2.465190328816E-32,1.));
#456 = ORIENTED_EDGE('',*,*,#457,.T.);
#457 = EDGE_CURVE('',#450,#409,#458,.T.);
#458 = LINE('',#459,#460);
#459 = CARTESIAN_POINT('',(0.918616,-5.E-02,8.E-02));
#460 = VECTOR('',#461,1.);
#461 = DIRECTION('',(-1.,2.22044604925E-16,-2.22044604925E-16));
#462 = PLANE('',#463);
#463 = AXIS2_PLACEMENT_3D('',#464,#465,#466);
#464 = CARTESIAN_POINT('',(0.,-5.E-02,7.5E-02));
#465 = DIRECTION('',(-0.,-1.,-0.));
#466 = DIRECTION('',(0.,0.,-1.));
#467 = ADVANCED_FACE('',(#468),#504,.F.);
#468 = FACE_BOUND('',#469,.F.);
#469 = EDGE_LOOP('',(#470,#478,#479,#480,#481,#482,#490,#498));
#470 = ORIENTED_EDGE('',*,*,#471,.F.);
#471 = EDGE_CURVE('',#330,#472,#474,.T.);
#472 = VERTEX_POINT('',#473);
#473 = CARTESIAN_POINT('',(0.4,-0.8,8.881784197001E-17));
#474 = LINE('',#475,#476);
#475 = CARTESIAN_POINT('',(-1.,-0.8,0.));
#476 = VECTOR('',#477,1.);
#477 = DIRECTION('',(1.,0.,0.));
#478 = ORIENTED_EDGE('',*,*,#329,.T.);
#479 = ORIENTED_EDGE('',*,*,#106,.F.);
#480 = ORIENTED_EDGE('',*,*,#170,.T.);
#481 = ORIENTED_EDGE('',*,*,#195,.T.);
#482 = ORIENTED_EDGE('',*,*,#483,.F.);
#483 = EDGE_CURVE('',#484,#196,#486,.T.);
#484 = VERTEX_POINT('',#485);
#485 = CARTESIAN_POINT('',(0.92,-0.8,7.E-02));
#486 = LINE('',#487,#488);
#487 = CARTESIAN_POINT('',(0.92,-0.8,0.));
#488 = VECTOR('',#489,1.);
#489 = DIRECTION('',(0.,0.,1.));
#490 = ORIENTED_EDGE('',*,*,#491,.T.);
#491 = EDGE_CURVE('',#484,#492,#494,.T.);
#492 = VERTEX_POINT('',#493);
#493 = CARTESIAN_POINT('',(0.4,-0.8,7.E-02));
#494 = LINE('',#495,#496);
#495 = CARTESIAN_POINT('',(1.,-0.8,7.E-02));
#496 = VECTOR('',#497,1.);
#497 = DIRECTION('',(-1.,2.22044604925E-16,-2.22044604925E-16));
#498 = ORIENTED_EDGE('',*,*,#499,.F.);
#499 = EDGE_CURVE('',#472,#492,#500,.T.);
#500 = LINE('',#501,#502);
#501 = CARTESIAN_POINT('',(0.4,-0.8,8.881784197001E-17));
#502 = VECTOR('',#503,1.);
#503 = DIRECTION('',(-2.22044604925E-16,2.465190328816E-32,1.));
#504 = PLANE('',#505);
#505 = AXIS2_PLACEMENT_3D('',#506,#507,#508);
#506 = CARTESIAN_POINT('',(-1.,-0.8,0.));
#507 = DIRECTION('',(0.,1.,0.));
#508 = DIRECTION('',(1.,0.,0.));
#509 = ADVANCED_FACE('',(#510),#529,.T.);
#510 = FACE_BOUND('',#511,.T.);
#511 = EDGE_LOOP('',(#512,#520,#527,#528));
#512 = ORIENTED_EDGE('',*,*,#513,.F.);
#513 = EDGE_CURVE('',#514,#213,#516,.T.);
#514 = VERTEX_POINT('',#515);
#515 = CARTESIAN_POINT('',(1.,0.72,7.E-02));
#516 = LINE('',#517,#518);
#517 = CARTESIAN_POINT('',(1.,0.72,0.));
#518 = VECTOR('',#519,1.);
#519 = DIRECTION('',(0.,0.,1.));
#520 = ORIENTED_EDGE('',*,*,#521,.T.);
#521 = EDGE_CURVE('',#514,#299,#522,.T.);
#522 = CIRCLE('',#523,8.E-02);
#523 = AXIS2_PLACEMENT_3D('',#524,#525,#526);
#524 = CARTESIAN_POINT('',(0.92,0.72,7.E-02));
#525 = DIRECTION('',(-2.22044604925E-16,2.465190328816E-32,1.));
#526 = DIRECTION('',(-2.22044604925E-16,-1.,-2.465190328816E-32));
#527 = ORIENTED_EDGE('',*,*,#306,.T.);
#528 = ORIENTED_EDGE('',*,*,#220,.F.);
#529 = CYLINDRICAL_SURFACE('',#530,8.E-02);
#530 = AXIS2_PLACEMENT_3D('',#531,#532,#533);
#531 = CARTESIAN_POINT('',(0.92,0.72,0.));
#532 = DIRECTION('',(0.,0.,1.));
#533 = DIRECTION('',(1.,0.,0.));
#534 = ADVANCED_FACE('',(#535),#554,.T.);
#535 = FACE_BOUND('',#536,.T.);
#536 = EDGE_LOOP('',(#537,#538,#547,#553));
#537 = ORIENTED_EDGE('',*,*,#483,.F.);
#538 = ORIENTED_EDGE('',*,*,#539,.F.);
#539 = EDGE_CURVE('',#540,#484,#542,.T.);
#540 = VERTEX_POINT('',#541);
#541 = CARTESIAN_POINT('',(1.,-0.72,7.E-02));
#542 = CIRCLE('',#543,8.E-02);
#543 = AXIS2_PLACEMENT_3D('',#544,#545,#546);
#544 = CARTESIAN_POINT('',(0.92,-0.72,7.E-02));
#545 = DIRECTION('',(2.22044604925E-16,-2.465190328816E-32,-1.));
#546 = DIRECTION('',(-2.22044604925E-16,-1.,-2.465190328816E-32));
#547 = ORIENTED_EDGE('',*,*,#548,.T.);
#548 = EDGE_CURVE('',#540,#204,#549,.T.);
#549 = LINE('',#550,#551);
#550 = CARTESIAN_POINT('',(1.,-0.72,0.));
#551 = VECTOR('',#552,1.);
#552 = DIRECTION('',(0.,0.,1.));
#553 = ORIENTED_EDGE('',*,*,#203,.F.);
#554 = CYLINDRICAL_SURFACE('',#555,8.E-02);
#555 = AXIS2_PLACEMENT_3D('',#556,#557,#558);
#556 = CARTESIAN_POINT('',(0.92,-0.72,0.));
#557 = DIRECTION('',(0.,0.,1.));
#558 = DIRECTION('',(0.,-1.,0.));
#559 = ADVANCED_FACE('',(#560),#571,.F.);
#560 = FACE_BOUND('',#561,.F.);
#561 = EDGE_LOOP('',(#562,#568,#569,#570));
#562 = ORIENTED_EDGE('',*,*,#563,.T.);
#563 = EDGE_CURVE('',#514,#540,#564,.T.);
#564 = LINE('',#565,#566);
#565 = CARTESIAN_POINT('',(1.,0.8,7.E-02));
#566 = VECTOR('',#567,1.);
#567 = DIRECTION('',(-2.22044604925E-16,-1.,-2.465190328816E-32));
#568 = ORIENTED_EDGE('',*,*,#548,.T.);
#569 = ORIENTED_EDGE('',*,*,#212,.T.);
#570 = ORIENTED_EDGE('',*,*,#513,.F.);
#571 = PLANE('',#572);
#572 = AXIS2_PLACEMENT_3D('',#573,#574,#575);
#573 = CARTESIAN_POINT('',(1.,-0.8,0.));
#574 = DIRECTION('',(-1.,0.,0.));
#575 = DIRECTION('',(0.,1.,0.));
#576 = ADVANCED_FACE('',(#577),#596,.F.);
#577 = FACE_BOUND('',#578,.F.);
#578 = EDGE_LOOP('',(#579,#587,#594,#595));
#579 = ORIENTED_EDGE('',*,*,#580,.T.);
#580 = EDGE_CURVE('',#247,#581,#583,.T.);
#581 = VERTEX_POINT('',#582);
#582 = CARTESIAN_POINT('',(-0.6,-0.5,0.98));
#583 = LINE('',#584,#585);
#584 = CARTESIAN_POINT('',(-0.6,-0.5,1.));
#585 = VECTOR('',#586,1.);
#586 = DIRECTION('',(-0.,-0.,-1.));
#587 = ORIENTED_EDGE('',*,*,#588,.T.);
#588 = EDGE_CURVE('',#581,#581,#589,.T.);
#589 = CIRCLE('',#590,0.1);
#590 = AXIS2_PLACEMENT_3D('',#591,#592,#593);
#591 = CARTESIAN_POINT('',(-0.7,-0.5,0.98));
#592 = DIRECTION('',(0.,0.,1.));
#593 = DIRECTION('',(1.,0.,0.));
#594 = ORIENTED_EDGE('',*,*,#580,.F.);
#595 = ORIENTED_EDGE('',*,*,#246,.F.);
#596 = CYLINDRICAL_SURFACE('',#597,0.1);
#597 = AXIS2_PLACEMENT_3D('',#598,#599,#600);
#598 = CARTESIAN_POINT('',(-0.7,-0.5,1.));
#599 = DIRECTION('',(0.,0.,1.));
#600 = DIRECTION('',(1.,0.,0.));
#601 = ADVANCED_FACE('',(#602),#613,.F.);
#602 = FACE_BOUND('',#603,.F.);
#603 = EDGE_LOOP('',(#604,#605,#606,#607));
#604 = ORIENTED_EDGE('',*,*,#280,.T.);
#605 = ORIENTED_EDGE('',*,*,#346,.F.);
#606 = ORIENTED_EDGE('',*,*,#471,.T.);
#607 = ORIENTED_EDGE('',*,*,#608,.T.);
#608 = EDGE_CURVE('',#472,#281,#609,.T.);
#609 = LINE('',#610,#611);
#610 = CARTESIAN_POINT('',(0.4,-0.8,8.881784197001E-17));
#611 = VECTOR('',#612,1.);
#612 = DIRECTION('',(2.22044604925E-16,1.,2.465190328816E-32));
#613 = PLANE('',#614);
#614 = AXIS2_PLACEMENT_3D('',#615,#616,#617);
#615 = CARTESIAN_POINT('',(0.,0.,0.));
#616 = DIRECTION('',(0.,0.,1.));
#617 = DIRECTION('',(1.,0.,0.));
#618 = ADVANCED_FACE('',(#619),#646,.F.);
#619 = FACE_BOUND('',#620,.T.);
#620 = EDGE_LOOP('',(#621,#622,#623,#624,#625,#631,#632,#638,#639,#645)
  );
#621 = ORIENTED_EDGE('',*,*,#521,.F.);
#622 = ORIENTED_EDGE('',*,*,#563,.T.);
#623 = ORIENTED_EDGE('',*,*,#539,.T.);
#624 = ORIENTED_EDGE('',*,*,#491,.T.);
#625 = ORIENTED_EDGE('',*,*,#626,.T.);
#626 = EDGE_CURVE('',#492,#434,#627,.T.);
#627 = LINE('',#628,#629);
#628 = CARTESIAN_POINT('',(0.4,-0.8,7.E-02));
#629 = VECTOR('',#630,1.);
#630 = DIRECTION('',(2.22044604925E-16,1.,2.465190328816E-32));
#631 = ORIENTED_EDGE('',*,*,#441,.F.);
#632 = ORIENTED_EDGE('',*,*,#633,.F.);
#633 = EDGE_CURVE('',#377,#442,#634,.T.);
#634 = LINE('',#635,#636);
#635 = CARTESIAN_POINT('',(0.918616,5.E-02,7.E-02));
#636 = VECTOR('',#637,1.);
#637 = DIRECTION('',(-2.22044604925E-16,-1.,-2.465190328816E-32));
#638 = ORIENTED_EDGE('',*,*,#384,.F.);
#639 = ORIENTED_EDGE('',*,*,#640,.T.);
#640 = EDGE_CURVE('',#385,#291,#641,.T.);
#641 = LINE('',#642,#643);
#642 = CARTESIAN_POINT('',(0.4,-0.8,7.E-02));
#643 = VECTOR('',#644,1.);
#644 = DIRECTION('',(2.22044604925E-16,1.,2.465190328816E-32));
#645 = ORIENTED_EDGE('',*,*,#298,.T.);
#646 = PLANE('',#647);
#647 = AXIS2_PLACEMENT_3D('',#648,#649,#650);
#648 = CARTESIAN_POINT('',(0.7,-1.554312234475E-16,7.E-02));
#649 = DIRECTION('',(-2.22044604925E-16,2.465190328816E-32,1.));
#650 = DIRECTION('',(1.,-2.22044604925E-16,2.22044604925E-16));
#651 = ADVANCED_FACE('',(#652),#665,.T.);
#652 = FACE_BOUND('',#653,.F.);
#653 = EDGE_LOOP('',(#654,#655,#656,#662,#663,#664));
#654 = ORIENTED_EDGE('',*,*,#499,.T.);
#655 = ORIENTED_EDGE('',*,*,#626,.T.);
#656 = ORIENTED_EDGE('',*,*,#657,.T.);
#657 = EDGE_CURVE('',#434,#385,#658,.T.);
#658 = LINE('',#659,#660);
#659 = CARTESIAN_POINT('',(0.4,-0.8,7.E-02));
#660 = VECTOR('',#661,1.);
#661 = DIRECTION('',(2.22044604925E-16,1.,2.465190328816E-32));
#662 = ORIENTED_EDGE('',*,*,#640,.T.);
#663 = ORIENTED_EDGE('',*,*,#290,.F.);
#664 = ORIENTED_EDGE('',*,*,#608,.F.);
#665 = PLANE('',#666);
#666 = AXIS2_PLACEMENT_3D('',#667,#668,#669);
#667 = CARTESIAN_POINT('',(0.4,-0.8,8.881784197001E-17));
#668 = DIRECTION('',(1.,-2.22044604925E-16,2.22044604925E-16));
#669 = DIRECTION('',(-2.22044604925E-16,-1.,-2.465190328816E-32));
#670 = ADVANCED_FACE('',(#671),#677,.F.);
#671 = FACE_BOUND('',#672,.F.);
#672 = EDGE_LOOP('',(#673,#674,#675,#676));
#673 = ORIENTED_EDGE('',*,*,#392,.F.);
#674 = ORIENTED_EDGE('',*,*,#657,.F.);
#675 = ORIENTED_EDGE('',*,*,#433,.T.);
#676 = ORIENTED_EDGE('',*,*,#338,.T.);
#677 = PLANE('',#678);
#678 = AXIS2_PLACEMENT_3D('',#679,#680,#681);
#679 = CARTESIAN_POINT('',(0.,-2.312964634636E-17,7.E-02));
#680 = DIRECTION('',(-0.,-0.,-1.));
#681 = DIRECTION('',(-1.,0.,0.));
#682 = ADVANCED_FACE('',(#683),#694,.F.);
#683 = FACE_BOUND('',#684,.F.);
#684 = EDGE_LOOP('',(#685,#686,#687,#693));
#685 = ORIENTED_EDGE('',*,*,#408,.T.);
#686 = ORIENTED_EDGE('',*,*,#457,.F.);
#687 = ORIENTED_EDGE('',*,*,#688,.F.);
#688 = EDGE_CURVE('',#369,#450,#689,.T.);
#689 = LINE('',#690,#691);
#690 = CARTESIAN_POINT('',(0.918616,5.E-02,8.E-02));
#691 = VECTOR('',#692,1.);
#692 = DIRECTION('',(-2.22044604925E-16,-1.,-2.465190328816E-32));
#693 = ORIENTED_EDGE('',*,*,#368,.T.);
#694 = PLANE('',#695);
#695 = AXIS2_PLACEMENT_3D('',#696,#697,#698);
#696 = CARTESIAN_POINT('',(0.,-5.55188307392E-17,8.E-02));
#697 = DIRECTION('',(0.,0.,1.));
#698 = DIRECTION('',(1.,0.,0.));
#699 = ADVANCED_FACE('',(#700),#706,.T.);
#700 = FACE_BOUND('',#701,.F.);
#701 = EDGE_LOOP('',(#702,#703,#704,#705));
#702 = ORIENTED_EDGE('',*,*,#376,.T.);
#703 = ORIENTED_EDGE('',*,*,#688,.T.);
#704 = ORIENTED_EDGE('',*,*,#449,.F.);
#705 = ORIENTED_EDGE('',*,*,#633,.F.);
#706 = PLANE('',#707);
#707 = AXIS2_PLACEMENT_3D('',#708,#709,#710);
#708 = CARTESIAN_POINT('',(0.918616,5.E-02,7.E-02));
#709 = DIRECTION('',(-1.,2.22044604925E-16,-2.22044604925E-16));
#710 = DIRECTION('',(2.22044604925E-16,1.,2.465190328816E-32));
#711 = ADVANCED_FACE('',(#712),#715,.T.);
#712 = FACE_BOUND('',#713,.T.);
#713 = EDGE_LOOP('',(#714));
#714 = ORIENTED_EDGE('',*,*,#588,.T.);
#715 = PLANE('',#716);
#716 = AXIS2_PLACEMENT_3D('',#717,#718,#719);
#717 = CARTESIAN_POINT('',(-0.7,-0.5,0.98));
#718 = DIRECTION('',(0.,0.,1.));
#719 = DIRECTION('',(1.,0.,0.));
#720 = ( GEOMETRIC_REPRESENTATION_CONTEXT(3) 
GLOBAL_UNCERTAINTY_ASSIGNED_CONTEXT((#724)) GLOBAL_UNIT_ASSIGNED_CONTEXT
((#721,#722,#723)) REPRESENTATION_CONTEXT('Context #1',
  '3D Context with UNIT and UNCERTAINTY') );
#721 = ( LENGTH_UNIT() NAMED_UNIT(*) SI_UNIT(.MILLI.,.METRE.) );
#722 = ( NAMED_UNIT(*) PLANE_ANGLE_UNIT() SI_UNIT($,.RADIAN.) );
#723 = ( NAMED_UNIT(*) SI_UNIT($,.STERADIAN.) SOLID_ANGLE_UNIT() );
#724 = UNCERTAINTY_MEASURE_WITH_UNIT(LENGTH_MEASURE(1.E-07),#721,
  'distance_accuracy_value','confusion accuracy');
#725 = CONTEXT_DEPENDENT_SHAPE_REPRESENTATION(#726,#728);
#726 = ( REPRESENTATION_RELATIONSHIP('','',#40,#10) 
REPRESENTATION_RELATIONSHIP_WITH_TRANSFORMATION(#727) 
SHAPE_REPRESENTATION_RELATIONSHIP() );
#727 = ITEM_DEFINED_TRANSFORMATION('','',#11,#15);
#728 = PRODUCT_DEFINITION_SHAPE('Placement','Placement of an item',#729
  );
#729 = NEXT_ASSEMBLY_USAGE_OCCURRENCE('7','Body','',#5,#35,$);
#730 = PRODUCT_RELATED_PRODUCT_CATEGORY('part',$,(#37));
#731 = SHAPE_DEFINITION_REPRESENTATION(#732,#738);
#732 = PRODUCT_DEFINITION_SHAPE('','',#733);
#733 = PRODUCT_DEFINITION('design','',#734,#737);
#734 = PRODUCT_DEFINITION_FORMATION('','',#735);
#735 = PRODUCT('Pins','Pins','',(#736));
#736 = PRODUCT_CONTEXT('',#2,'mechanical');
#737 = PRODUCT_DEFINITION_CONTEXT('part definition',#2,'design');
#738 = ADVANCED_BREP_SHAPE_REPRESENTATION('',(#11,#739),#1389);
#739 = MANIFOLD_SOLID_BREP('',#740);
#740 = CLOSED_SHELL('',(#741,#781,#862,#900,#932,#949,#973,#998,#1015,
    #1029,#1060,#1100,#1149,#1174,#1199,#1260,#1277,#1294,#1308,#1339,
    #1358,#1377));
#741 = ADVANCED_FACE('',(#742),#776,.F.);
#742 = FACE_BOUND('',#743,.T.);
#743 = EDGE_LOOP('',(#744,#754,#762,#770));
#744 = ORIENTED_EDGE('',*,*,#745,.T.);
#745 = EDGE_CURVE('',#746,#748,#750,.T.);
#746 = VERTEX_POINT('',#747);
#747 = CARTESIAN_POINT('',(0.918616,5.E-02,7.E-02));
#748 = VERTEX_POINT('',#749);
#749 = CARTESIAN_POINT('',(0.918616,5.E-02,8.E-02));
#750 = LINE('',#751,#752);
#751 = CARTESIAN_POINT('',(0.918616,5.E-02,7.E-02));
#752 = VECTOR('',#753,1.);
#753 = DIRECTION('',(-2.22044604925E-16,2.465190328816E-32,1.));
#754 = ORIENTED_EDGE('',*,*,#755,.T.);
#755 = EDGE_CURVE('',#748,#756,#758,.T.);
#756 = VERTEX_POINT('',#757);
#757 = CARTESIAN_POINT('',(0.918616,-5.E-02,8.E-02));
#758 = LINE('',#759,#760);
#759 = CARTESIAN_POINT('',(0.918616,5.E-02,8.E-02));
#760 = VECTOR('',#761,1.);
#761 = DIRECTION('',(-2.22044604925E-16,-1.,-2.465190328816E-32));
#762 = ORIENTED_EDGE('',*,*,#763,.F.);
#763 = EDGE_CURVE('',#764,#756,#766,.T.);
#764 = VERTEX_POINT('',#765);
#765 = CARTESIAN_POINT('',(0.918616,-5.E-02,7.E-02));
#766 = LINE('',#767,#768);
#767 = CARTESIAN_POINT('',(0.918616,-5.E-02,7.E-02));
#768 = VECTOR('',#769,1.);
#769 = DIRECTION('',(-2.22044604925E-16,2.465190328816E-32,1.));
#770 = ORIENTED_EDGE('',*,*,#771,.F.);
#771 = EDGE_CURVE('',#746,#764,#772,.T.);
#772 = LINE('',#773,#774);
#773 = CARTESIAN_POINT('',(0.918616,5.E-02,7.E-02));
#774 = VECTOR('',#775,1.);
#775 = DIRECTION('',(-2.22044604925E-16,-1.,-2.465190328816E-32));
#776 = PLANE('',#777);
#777 = AXIS2_PLACEMENT_3D('',#778,#779,#780);
#778 = CARTESIAN_POINT('',(0.918616,5.E-02,7.E-02));
#779 = DIRECTION('',(-1.,2.22044604925E-16,-2.22044604925E-16));
#780 = DIRECTION('',(2.22044604925E-16,1.,2.465190328816E-32));
#781 = ADVANCED_FACE('',(#782),#857,.T.);
#782 = FACE_BOUND('',#783,.F.);
#783 = EDGE_LOOP('',(#784,#795,#803,#812,#820,#828,#834,#835,#843,#851)
  );
#784 = ORIENTED_EDGE('',*,*,#785,.F.);
#785 = EDGE_CURVE('',#786,#788,#790,.T.);
#786 = VERTEX_POINT('',#787);
#787 = CARTESIAN_POINT('',(1.,0.72,7.E-02));
#788 = VERTEX_POINT('',#789);
#789 = CARTESIAN_POINT('',(0.92,0.8,7.E-02));
#790 = CIRCLE('',#791,8.E-02);
#791 = AXIS2_PLACEMENT_3D('',#792,#793,#794);
#792 = CARTESIAN_POINT('',(0.92,0.72,7.E-02));
#793 = DIRECTION('',(-2.22044604925E-16,2.465190328816E-32,1.));
#794 = DIRECTION('',(-2.22044604925E-16,-1.,-2.465190328816E-32));
#795 = ORIENTED_EDGE('',*,*,#796,.T.);
#796 = EDGE_CURVE('',#786,#797,#799,.T.);
#797 = VERTEX_POINT('',#798);
#798 = CARTESIAN_POINT('',(1.,-0.72,7.E-02));
#799 = LINE('',#800,#801);
#800 = CARTESIAN_POINT('',(1.,0.8,7.E-02));
#801 = VECTOR('',#802,1.);
#802 = DIRECTION('',(-2.22044604925E-16,-1.,-2.465190328816E-32));
#803 = ORIENTED_EDGE('',*,*,#804,.T.);
#804 = EDGE_CURVE('',#797,#805,#807,.T.);
#805 = VERTEX_POINT('',#806);
#806 = CARTESIAN_POINT('',(0.92,-0.8,7.E-02));
#807 = CIRCLE('',#808,8.E-02);
#808 = AXIS2_PLACEMENT_3D('',#809,#810,#811);
#809 = CARTESIAN_POINT('',(0.92,-0.72,7.E-02));
#810 = DIRECTION('',(2.22044604925E-16,-2.465190328816E-32,-1.));
#811 = DIRECTION('',(-2.22044604925E-16,-1.,-2.465190328816E-32));
#812 = ORIENTED_EDGE('',*,*,#813,.T.);
#813 = EDGE_CURVE('',#805,#814,#816,.T.);
#814 = VERTEX_POINT('',#815);
#815 = CARTESIAN_POINT('',(0.4,-0.8,7.E-02));
#816 = LINE('',#817,#818);
#817 = CARTESIAN_POINT('',(1.,-0.8,7.E-02));
#818 = VECTOR('',#819,1.);
#819 = DIRECTION('',(-1.,2.22044604925E-16,-2.22044604925E-16));
#820 = ORIENTED_EDGE('',*,*,#821,.T.);
#821 = EDGE_CURVE('',#814,#822,#824,.T.);
#822 = VERTEX_POINT('',#823);
#823 = CARTESIAN_POINT('',(0.4,-5.E-02,7.E-02));
#824 = LINE('',#825,#826);
#825 = CARTESIAN_POINT('',(0.4,-0.8,7.E-02));
#826 = VECTOR('',#827,1.);
#827 = DIRECTION('',(2.22044604925E-16,1.,2.465190328816E-32));
#828 = ORIENTED_EDGE('',*,*,#829,.F.);
#829 = EDGE_CURVE('',#764,#822,#830,.T.);
#830 = LINE('',#831,#832);
#831 = CARTESIAN_POINT('',(0.918616,-5.E-02,7.E-02));
#832 = VECTOR('',#833,1.);
#833 = DIRECTION('',(-1.,2.22044604925E-16,-2.22044604925E-16));
#834 = ORIENTED_EDGE('',*,*,#771,.F.);
#835 = ORIENTED_EDGE('',*,*,#836,.F.);
#836 = EDGE_CURVE('',#837,#746,#839,.T.);
#837 = VERTEX_POINT('',#838);
#838 = CARTESIAN_POINT('',(0.4,5.E-02,7.E-02));
#839 = LINE('',#840,#841);
#840 = CARTESIAN_POINT('',(-4.440892098501E-18,5.E-02,7.E-02));
#841 = VECTOR('',#842,1.);
#842 = DIRECTION('',(1.,-2.22044604925E-16,2.22044604925E-16));
#843 = ORIENTED_EDGE('',*,*,#844,.T.);
#844 = EDGE_CURVE('',#837,#845,#847,.T.);
#845 = VERTEX_POINT('',#846);
#846 = CARTESIAN_POINT('',(0.4,0.8,7.E-02));
#847 = LINE('',#848,#849);
#848 = CARTESIAN_POINT('',(0.4,-0.8,7.E-02));
#849 = VECTOR('',#850,1.);
#850 = DIRECTION('',(2.22044604925E-16,1.,2.465190328816E-32));
#851 = ORIENTED_EDGE('',*,*,#852,.T.);
#852 = EDGE_CURVE('',#845,#788,#853,.T.);
#853 = LINE('',#854,#855);
#854 = CARTESIAN_POINT('',(0.4,0.8,7.E-02));
#855 = VECTOR('',#856,1.);
#856 = DIRECTION('',(1.,-2.22044604925E-16,2.22044604925E-16));
#857 = PLANE('',#858);
#858 = AXIS2_PLACEMENT_3D('',#859,#860,#861);
#859 = CARTESIAN_POINT('',(0.7,-1.554312234475E-16,7.E-02));
#860 = DIRECTION('',(-2.22044604925E-16,2.465190328816E-32,1.));
#861 = DIRECTION('',(1.,-2.22044604925E-16,2.22044604925E-16));
#862 = ADVANCED_FACE('',(#863),#895,.F.);
#863 = FACE_BOUND('',#864,.T.);
#864 = EDGE_LOOP('',(#865,#873,#874,#880,#881,#889));
#865 = ORIENTED_EDGE('',*,*,#866,.T.);
#866 = EDGE_CURVE('',#867,#814,#869,.T.);
#867 = VERTEX_POINT('',#868);
#868 = CARTESIAN_POINT('',(0.4,-0.8,8.881784197001E-17));
#869 = LINE('',#870,#871);
#870 = CARTESIAN_POINT('',(0.4,-0.8,8.881784197001E-17));
#871 = VECTOR('',#872,1.);
#872 = DIRECTION('',(-2.22044604925E-16,2.465190328816E-32,1.));
#873 = ORIENTED_EDGE('',*,*,#821,.T.);
#874 = ORIENTED_EDGE('',*,*,#875,.T.);
#875 = EDGE_CURVE('',#822,#837,#876,.T.);
#876 = LINE('',#877,#878);
#877 = CARTESIAN_POINT('',(0.4,-0.8,7.E-02));
#878 = VECTOR('',#879,1.);
#879 = DIRECTION('',(2.22044604925E-16,1.,2.465190328816E-32));
#880 = ORIENTED_EDGE('',*,*,#844,.T.);
#881 = ORIENTED_EDGE('',*,*,#882,.F.);
#882 = EDGE_CURVE('',#883,#845,#885,.T.);
#883 = VERTEX_POINT('',#884);
#884 = CARTESIAN_POINT('',(0.4,0.8,8.881784197001E-17));
#885 = LINE('',#886,#887);
#886 = CARTESIAN_POINT('',(0.4,0.8,8.881784197001E-17));
#887 = VECTOR('',#888,1.);
#888 = DIRECTION('',(-2.22044604925E-16,2.465190328816E-32,1.));
#889 = ORIENTED_EDGE('',*,*,#890,.F.);
#890 = EDGE_CURVE('',#867,#883,#891,.T.);
#891 = LINE('',#892,#893);
#892 = CARTESIAN_POINT('',(0.4,-0.8,8.881784197001E-17));
#893 = VECTOR('',#894,1.);
#894 = DIRECTION('',(2.22044604925E-16,1.,2.465190328816E-32));
#895 = PLANE('',#896);
#896 = AXIS2_PLACEMENT_3D('',#897,#898,#899);
#897 = CARTESIAN_POINT('',(0.4,-0.8,8.881784197001E-17));
#898 = DIRECTION('',(1.,-2.22044604925E-16,2.22044604925E-16));
#899 = DIRECTION('',(-2.22044604925E-16,-1.,-2.465190328816E-32));
#900 = ADVANCED_FACE('',(#901),#927,.T.);
#901 = FACE_BOUND('',#902,.T.);
#902 = EDGE_LOOP('',(#903,#914,#920,#921));
#903 = ORIENTED_EDGE('',*,*,#904,.T.);
#904 = EDGE_CURVE('',#905,#907,#909,.T.);
#905 = VERTEX_POINT('',#906);
#906 = CARTESIAN_POINT('',(1.,0.72,2.22044604925E-16));
#907 = VERTEX_POINT('',#908);
#908 = CARTESIAN_POINT('',(0.92,0.8,2.04281036531E-16));
#909 = CIRCLE('',#910,8.E-02);
#910 = AXIS2_PLACEMENT_3D('',#911,#912,#913);
#911 = CARTESIAN_POINT('',(0.92,0.72,2.04281036531E-16));
#912 = DIRECTION('',(-2.22044604925E-16,2.465190328816E-32,1.));
#913 = DIRECTION('',(-2.22044604925E-16,-1.,-2.465190328816E-32));
#914 = ORIENTED_EDGE('',*,*,#915,.T.);
#915 = EDGE_CURVE('',#907,#788,#916,.T.);
#916 = LINE('',#917,#918);
#917 = CARTESIAN_POINT('',(0.92,0.8,2.04281036531E-16));
#918 = VECTOR('',#919,1.);
#919 = DIRECTION('',(-2.22044604925E-16,2.465190328816E-32,1.));
#920 = ORIENTED_EDGE('',*,*,#785,.F.);
#921 = ORIENTED_EDGE('',*,*,#922,.F.);
#922 = EDGE_CURVE('',#905,#786,#923,.T.);
#923 = LINE('',#924,#925);
#924 = CARTESIAN_POINT('',(1.,0.72,2.22044604925E-16));
#925 = VECTOR('',#926,1.);
#926 = DIRECTION('',(-2.22044604925E-16,2.465190328816E-32,1.));
#927 = CYLINDRICAL_SURFACE('',#928,8.E-02);
#928 = AXIS2_PLACEMENT_3D('',#929,#930,#931);
#929 = CARTESIAN_POINT('',(0.92,0.72,2.04281036531E-16));
#930 = DIRECTION('',(-2.22044604925E-16,2.465190328816E-32,1.));
#931 = DIRECTION('',(1.,-2.22044604925E-16,2.22044604925E-16));
#932 = ADVANCED_FACE('',(#933),#944,.F.);
#933 = FACE_BOUND('',#934,.T.);
#934 = EDGE_LOOP('',(#935,#941,#942,#943));
#935 = ORIENTED_EDGE('',*,*,#936,.F.);
#936 = EDGE_CURVE('',#883,#907,#937,.T.);
#937 = LINE('',#938,#939);
#938 = CARTESIAN_POINT('',(0.4,0.8,8.881784197001E-17));
#939 = VECTOR('',#940,1.);
#940 = DIRECTION('',(1.,-2.22044604925E-16,2.22044604925E-16));
#941 = ORIENTED_EDGE('',*,*,#882,.T.);
#942 = ORIENTED_EDGE('',*,*,#852,.T.);
#943 = ORIENTED_EDGE('',*,*,#915,.F.);
#944 = PLANE('',#945);
#945 = AXIS2_PLACEMENT_3D('',#946,#947,#948);
#946 = CARTESIAN_POINT('',(0.4,0.8,8.881784197001E-17));
#947 = DIRECTION('',(-2.22044604925E-16,-1.,-2.465190328816E-32));
#948 = DIRECTION('',(-1.,2.22044604925E-16,-2.22044604925E-16));
#949 = ADVANCED_FACE('',(#950),#968,.F.);
#950 = FACE_BOUND('',#951,.T.);
#951 = EDGE_LOOP('',(#952,#960,#966,#967));
#952 = ORIENTED_EDGE('',*,*,#953,.F.);
#953 = EDGE_CURVE('',#954,#867,#956,.T.);
#954 = VERTEX_POINT('',#955);
#955 = CARTESIAN_POINT('',(0.92,-0.8,2.04281036531E-16));
#956 = LINE('',#957,#958);
#957 = CARTESIAN_POINT('',(1.,-0.8,2.22044604925E-16));
#958 = VECTOR('',#959,1.);
#959 = DIRECTION('',(-1.,2.22044604925E-16,-2.22044604925E-16));
#960 = ORIENTED_EDGE('',*,*,#961,.T.);
#961 = EDGE_CURVE('',#954,#805,#962,.T.);
#962 = LINE('',#963,#964);
#963 = CARTESIAN_POINT('',(0.92,-0.8,2.04281036531E-16));
#964 = VECTOR('',#965,1.);
#965 = DIRECTION('',(-2.22044604925E-16,2.465190328816E-32,1.));
#966 = ORIENTED_EDGE('',*,*,#813,.T.);
#967 = ORIENTED_EDGE('',*,*,#866,.F.);
#968 = PLANE('',#969);
#969 = AXIS2_PLACEMENT_3D('',#970,#971,#972);
#970 = CARTESIAN_POINT('',(1.,-0.8,2.22044604925E-16));
#971 = DIRECTION('',(2.22044604925E-16,1.,2.465190328816E-32));
#972 = DIRECTION('',(1.,-2.22044604925E-16,2.22044604925E-16));
#973 = ADVANCED_FACE('',(#974),#993,.T.);
#974 = FACE_BOUND('',#975,.F.);
#975 = EDGE_LOOP('',(#976,#985,#986,#987));
#976 = ORIENTED_EDGE('',*,*,#977,.T.);
#977 = EDGE_CURVE('',#978,#954,#980,.T.);
#978 = VERTEX_POINT('',#979);
#979 = CARTESIAN_POINT('',(1.,-0.72,2.22044604925E-16));
#980 = CIRCLE('',#981,8.E-02);
#981 = AXIS2_PLACEMENT_3D('',#982,#983,#984);
#982 = CARTESIAN_POINT('',(0.92,-0.72,2.04281036531E-16));
#983 = DIRECTION('',(2.22044604925E-16,-2.465190328816E-32,-1.));
#984 = DIRECTION('',(-2.22044604925E-16,-1.,-2.465190328816E-32));
#985 = ORIENTED_EDGE('',*,*,#961,.T.);
#986 = ORIENTED_EDGE('',*,*,#804,.F.);
#987 = ORIENTED_EDGE('',*,*,#988,.F.);
#988 = EDGE_CURVE('',#978,#797,#989,.T.);
#989 = LINE('',#990,#991);
#990 = CARTESIAN_POINT('',(1.,-0.72,2.22044604925E-16));
#991 = VECTOR('',#992,1.);
#992 = DIRECTION('',(-2.22044604925E-16,2.465190328816E-32,1.));
#993 = CYLINDRICAL_SURFACE('',#994,8.E-02);
#994 = AXIS2_PLACEMENT_3D('',#995,#996,#997);
#995 = CARTESIAN_POINT('',(0.92,-0.72,2.04281036531E-16));
#996 = DIRECTION('',(-2.22044604925E-16,2.465190328816E-32,1.));
#997 = DIRECTION('',(1.,-2.22044604925E-16,2.22044604925E-16));
#998 = ADVANCED_FACE('',(#999),#1010,.F.);
#999 = FACE_BOUND('',#1000,.T.);
#1000 = EDGE_LOOP('',(#1001,#1007,#1008,#1009));
#1001 = ORIENTED_EDGE('',*,*,#1002,.F.);
#1002 = EDGE_CURVE('',#905,#978,#1003,.T.);
#1003 = LINE('',#1004,#1005);
#1004 = CARTESIAN_POINT('',(1.,0.8,2.22044604925E-16));
#1005 = VECTOR('',#1006,1.);
#1006 = DIRECTION('',(-2.22044604925E-16,-1.,-2.465190328816E-32));
#1007 = ORIENTED_EDGE('',*,*,#922,.T.);
#1008 = ORIENTED_EDGE('',*,*,#796,.T.);
#1009 = ORIENTED_EDGE('',*,*,#988,.F.);
#1010 = PLANE('',#1011);
#1011 = AXIS2_PLACEMENT_3D('',#1012,#1013,#1014);
#1012 = CARTESIAN_POINT('',(1.,0.8,2.22044604925E-16));
#1013 = DIRECTION('',(-1.,2.22044604925E-16,-2.22044604925E-16));
#1014 = DIRECTION('',(2.22044604925E-16,1.,2.465190328816E-32));
#1015 = ADVANCED_FACE('',(#1016),#1024,.F.);
#1016 = FACE_BOUND('',#1017,.T.);
#1017 = EDGE_LOOP('',(#1018,#1019,#1020,#1021,#1022,#1023));
#1018 = ORIENTED_EDGE('',*,*,#1002,.T.);
#1019 = ORIENTED_EDGE('',*,*,#977,.T.);
#1020 = ORIENTED_EDGE('',*,*,#953,.T.);
#1021 = ORIENTED_EDGE('',*,*,#890,.T.);
#1022 = ORIENTED_EDGE('',*,*,#936,.T.);
#1023 = ORIENTED_EDGE('',*,*,#904,.F.);
#1024 = PLANE('',#1025);
#1025 = AXIS2_PLACEMENT_3D('',#1026,#1027,#1028);
#1026 = CARTESIAN_POINT('',(0.7,-1.554312234475E-16,1.554312234475E-16)
  );
#1027 = DIRECTION('',(-2.22044604925E-16,2.465190328816E-32,1.));
#1028 = DIRECTION('',(1.,-2.22044604925E-16,2.22044604925E-16));
#1029 = ADVANCED_FACE('',(#1030),#1055,.T.);
#1030 = FACE_BOUND('',#1031,.T.);
#1031 = EDGE_LOOP('',(#1032,#1040,#1041,#1049));
#1032 = ORIENTED_EDGE('',*,*,#1033,.F.);
#1033 = EDGE_CURVE('',#837,#1034,#1036,.T.);
#1034 = VERTEX_POINT('',#1035);
#1035 = CARTESIAN_POINT('',(-0.4,5.E-02,7.E-02));
#1036 = LINE('',#1037,#1038);
#1037 = CARTESIAN_POINT('',(0.,5.E-02,7.E-02));
#1038 = VECTOR('',#1039,1.);
#1039 = DIRECTION('',(-1.,0.,0.));
#1040 = ORIENTED_EDGE('',*,*,#875,.F.);
#1041 = ORIENTED_EDGE('',*,*,#1042,.T.);
#1042 = EDGE_CURVE('',#822,#1043,#1045,.T.);
#1043 = VERTEX_POINT('',#1044);
#1044 = CARTESIAN_POINT('',(-0.4,-5.E-02,7.E-02));
#1045 = LINE('',#1046,#1047);
#1046 = CARTESIAN_POINT('',(0.918616,-5.E-02,7.E-02));
#1047 = VECTOR('',#1048,1.);
#1048 = DIRECTION('',(-1.,2.22044604925E-16,-2.22044604925E-16));
#1049 = ORIENTED_EDGE('',*,*,#1050,.T.);
#1050 = EDGE_CURVE('',#1043,#1034,#1051,.T.);
#1051 = LINE('',#1052,#1053);
#1052 = CARTESIAN_POINT('',(-0.4,-0.8,7.E-02));
#1053 = VECTOR('',#1054,1.);
#1054 = DIRECTION('',(0.,1.,0.));
#1055 = PLANE('',#1056);
#1056 = AXIS2_PLACEMENT_3D('',#1057,#1058,#1059);
#1057 = CARTESIAN_POINT('',(0.,-2.312964634636E-17,7.E-02));
#1058 = DIRECTION('',(-0.,-0.,-1.));
#1059 = DIRECTION('',(-1.,0.,0.));
#1060 = ADVANCED_FACE('',(#1061),#1095,.F.);
#1061 = FACE_BOUND('',#1062,.F.);
#1062 = EDGE_LOOP('',(#1063,#1073,#1081,#1089));
#1063 = ORIENTED_EDGE('',*,*,#1064,.F.);
#1064 = EDGE_CURVE('',#1065,#1067,#1069,.T.);
#1065 = VERTEX_POINT('',#1066);
#1066 = CARTESIAN_POINT('',(-1.,0.72,0.));
#1067 = VERTEX_POINT('',#1068);
#1068 = CARTESIAN_POINT('',(-1.,-0.72,0.));
#1069 = LINE('',#1070,#1071);
#1070 = CARTESIAN_POINT('',(-1.,0.8,0.));
#1071 = VECTOR('',#1072,1.);
#1072 = DIRECTION('',(0.,-1.,0.));
#1073 = ORIENTED_EDGE('',*,*,#1074,.T.);
#1074 = EDGE_CURVE('',#1065,#1075,#1077,.T.);
#1075 = VERTEX_POINT('',#1076);
#1076 = CARTESIAN_POINT('',(-1.,0.72,7.E-02));
#1077 = LINE('',#1078,#1079);
#1078 = CARTESIAN_POINT('',(-1.,0.72,0.));
#1079 = VECTOR('',#1080,1.);
#1080 = DIRECTION('',(0.,0.,1.));
#1081 = ORIENTED_EDGE('',*,*,#1082,.T.);
#1082 = EDGE_CURVE('',#1075,#1083,#1085,.T.);
#1083 = VERTEX_POINT('',#1084);
#1084 = CARTESIAN_POINT('',(-1.,-0.72,7.E-02));
#1085 = LINE('',#1086,#1087);
#1086 = CARTESIAN_POINT('',(-1.,0.8,7.E-02));
#1087 = VECTOR('',#1088,1.);
#1088 = DIRECTION('',(0.,-1.,0.));
#1089 = ORIENTED_EDGE('',*,*,#1090,.F.);
#1090 = EDGE_CURVE('',#1067,#1083,#1091,.T.);
#1091 = LINE('',#1092,#1093);
#1092 = CARTESIAN_POINT('',(-1.,-0.72,0.));
#1093 = VECTOR('',#1094,1.);
#1094 = DIRECTION('',(0.,0.,1.));
#1095 = PLANE('',#1096);
#1096 = AXIS2_PLACEMENT_3D('',#1097,#1098,#1099);
#1097 = CARTESIAN_POINT('',(-1.,0.8,0.));
#1098 = DIRECTION('',(1.,0.,0.));
#1099 = DIRECTION('',(0.,-1.,0.));
#1100 = ADVANCED_FACE('',(#1101),#1144,.F.);
#1101 = FACE_BOUND('',#1102,.F.);
#1102 = EDGE_LOOP('',(#1103,#1104,#1113,#1121,#1129,#1137));
#1103 = ORIENTED_EDGE('',*,*,#1064,.T.);
#1104 = ORIENTED_EDGE('',*,*,#1105,.T.);
#1105 = EDGE_CURVE('',#1067,#1106,#1108,.T.);
#1106 = VERTEX_POINT('',#1107);
#1107 = CARTESIAN_POINT('',(-0.92,-0.8,0.));
#1108 = CIRCLE('',#1109,8.E-02);
#1109 = AXIS2_PLACEMENT_3D('',#1110,#1111,#1112);
#1110 = CARTESIAN_POINT('',(-0.92,-0.72,0.));
#1111 = DIRECTION('',(-0.,0.,1.));
#1112 = DIRECTION('',(0.,-1.,0.));
#1113 = ORIENTED_EDGE('',*,*,#1114,.T.);
#1114 = EDGE_CURVE('',#1106,#1115,#1117,.T.);
#1115 = VERTEX_POINT('',#1116);
#1116 = CARTESIAN_POINT('',(-0.4,-0.8,0.));
#1117 = LINE('',#1118,#1119);
#1118 = CARTESIAN_POINT('',(-1.,-0.8,0.));
#1119 = VECTOR('',#1120,1.);
#1120 = DIRECTION('',(1.,0.,0.));
#1121 = ORIENTED_EDGE('',*,*,#1122,.T.);
#1122 = EDGE_CURVE('',#1115,#1123,#1125,.T.);
#1123 = VERTEX_POINT('',#1124);
#1124 = CARTESIAN_POINT('',(-0.4,0.8,0.));
#1125 = LINE('',#1126,#1127);
#1126 = CARTESIAN_POINT('',(-0.4,-0.8,0.));
#1127 = VECTOR('',#1128,1.);
#1128 = DIRECTION('',(0.,1.,0.));
#1129 = ORIENTED_EDGE('',*,*,#1130,.T.);
#1130 = EDGE_CURVE('',#1123,#1131,#1133,.T.);
#1131 = VERTEX_POINT('',#1132);
#1132 = CARTESIAN_POINT('',(-0.92,0.8,0.));
#1133 = LINE('',#1134,#1135);
#1134 = CARTESIAN_POINT('',(-0.4,0.8,0.));
#1135 = VECTOR('',#1136,1.);
#1136 = DIRECTION('',(-1.,0.,0.));
#1137 = ORIENTED_EDGE('',*,*,#1138,.F.);
#1138 = EDGE_CURVE('',#1065,#1131,#1139,.T.);
#1139 = CIRCLE('',#1140,8.E-02);
#1140 = AXIS2_PLACEMENT_3D('',#1141,#1142,#1143);
#1141 = CARTESIAN_POINT('',(-0.92,0.72,0.));
#1142 = DIRECTION('',(-0.,-0.,-1.));
#1143 = DIRECTION('',(0.,-1.,0.));
#1144 = PLANE('',#1145);
#1145 = AXIS2_PLACEMENT_3D('',#1146,#1147,#1148);
#1146 = CARTESIAN_POINT('',(-0.7,0.,0.));
#1147 = DIRECTION('',(0.,0.,1.));
#1148 = DIRECTION('',(1.,0.,0.));
#1149 = ADVANCED_FACE('',(#1150),#1169,.T.);
#1150 = FACE_BOUND('',#1151,.F.);
#1151 = EDGE_LOOP('',(#1152,#1153,#1161,#1168));
#1152 = ORIENTED_EDGE('',*,*,#1138,.T.);
#1153 = ORIENTED_EDGE('',*,*,#1154,.T.);
#1154 = EDGE_CURVE('',#1131,#1155,#1157,.T.);
#1155 = VERTEX_POINT('',#1156);
#1156 = CARTESIAN_POINT('',(-0.92,0.8,7.E-02));
#1157 = LINE('',#1158,#1159);
#1158 = CARTESIAN_POINT('',(-0.92,0.8,0.));
#1159 = VECTOR('',#1160,1.);
#1160 = DIRECTION('',(0.,0.,1.));
#1161 = ORIENTED_EDGE('',*,*,#1162,.F.);
#1162 = EDGE_CURVE('',#1075,#1155,#1163,.T.);
#1163 = CIRCLE('',#1164,8.E-02);
#1164 = AXIS2_PLACEMENT_3D('',#1165,#1166,#1167);
#1165 = CARTESIAN_POINT('',(-0.92,0.72,7.E-02));
#1166 = DIRECTION('',(-0.,-0.,-1.));
#1167 = DIRECTION('',(0.,-1.,0.));
#1168 = ORIENTED_EDGE('',*,*,#1074,.F.);
#1169 = CYLINDRICAL_SURFACE('',#1170,8.E-02);
#1170 = AXIS2_PLACEMENT_3D('',#1171,#1172,#1173);
#1171 = CARTESIAN_POINT('',(-0.92,0.72,0.));
#1172 = DIRECTION('',(0.,0.,1.));
#1173 = DIRECTION('',(-1.,0.,0.));
#1174 = ADVANCED_FACE('',(#1175),#1194,.T.);
#1175 = FACE_BOUND('',#1176,.T.);
#1176 = EDGE_LOOP('',(#1177,#1178,#1186,#1193));
#1177 = ORIENTED_EDGE('',*,*,#1105,.T.);
#1178 = ORIENTED_EDGE('',*,*,#1179,.T.);
#1179 = EDGE_CURVE('',#1106,#1180,#1182,.T.);
#1180 = VERTEX_POINT('',#1181);
#1181 = CARTESIAN_POINT('',(-0.92,-0.8,7.E-02));
#1182 = LINE('',#1183,#1184);
#1183 = CARTESIAN_POINT('',(-0.92,-0.8,0.));
#1184 = VECTOR('',#1185,1.);
#1185 = DIRECTION('',(0.,0.,1.));
#1186 = ORIENTED_EDGE('',*,*,#1187,.F.);
#1187 = EDGE_CURVE('',#1083,#1180,#1188,.T.);
#1188 = CIRCLE('',#1189,8.E-02);
#1189 = AXIS2_PLACEMENT_3D('',#1190,#1191,#1192);
#1190 = CARTESIAN_POINT('',(-0.92,-0.72,7.E-02));
#1191 = DIRECTION('',(-0.,0.,1.));
#1192 = DIRECTION('',(0.,-1.,0.));
#1193 = ORIENTED_EDGE('',*,*,#1090,.F.);
#1194 = CYLINDRICAL_SURFACE('',#1195,8.E-02);
#1195 = AXIS2_PLACEMENT_3D('',#1196,#1197,#1198);
#1196 = CARTESIAN_POINT('',(-0.92,-0.72,0.));
#1197 = DIRECTION('',(0.,0.,1.));
#1198 = DIRECTION('',(-1.,0.,0.));
#1199 = ADVANCED_FACE('',(#1200),#1255,.T.);
#1200 = FACE_BOUND('',#1201,.T.);
#1201 = EDGE_LOOP('',(#1202,#1203,#1204,#1205,#1213,#1219,#1227,#1235,
    #1241,#1249));
#1202 = ORIENTED_EDGE('',*,*,#1162,.F.);
#1203 = ORIENTED_EDGE('',*,*,#1082,.T.);
#1204 = ORIENTED_EDGE('',*,*,#1187,.T.);
#1205 = ORIENTED_EDGE('',*,*,#1206,.T.);
#1206 = EDGE_CURVE('',#1180,#1207,#1209,.T.);
#1207 = VERTEX_POINT('',#1208);
#1208 = CARTESIAN_POINT('',(-0.4,-0.8,7.E-02));
#1209 = LINE('',#1210,#1211);
#1210 = CARTESIAN_POINT('',(-1.,-0.8,7.E-02));
#1211 = VECTOR('',#1212,1.);
#1212 = DIRECTION('',(1.,0.,0.));
#1213 = ORIENTED_EDGE('',*,*,#1214,.T.);
#1214 = EDGE_CURVE('',#1207,#1043,#1215,.T.);
#1215 = LINE('',#1216,#1217);
#1216 = CARTESIAN_POINT('',(-0.4,-0.8,7.E-02));
#1217 = VECTOR('',#1218,1.);
#1218 = DIRECTION('',(0.,1.,0.));
#1219 = ORIENTED_EDGE('',*,*,#1220,.F.);
#1220 = EDGE_CURVE('',#1221,#1043,#1223,.T.);
#1221 = VERTEX_POINT('',#1222);
#1222 = CARTESIAN_POINT('',(-0.918616,-5.E-02,7.E-02));
#1223 = LINE('',#1224,#1225);
#1224 = CARTESIAN_POINT('',(-0.918616,-5.E-02,7.E-02));
#1225 = VECTOR('',#1226,1.);
#1226 = DIRECTION('',(1.,0.,0.));
#1227 = ORIENTED_EDGE('',*,*,#1228,.F.);
#1228 = EDGE_CURVE('',#1229,#1221,#1231,.T.);
#1229 = VERTEX_POINT('',#1230);
#1230 = CARTESIAN_POINT('',(-0.918616,5.E-02,7.E-02));
#1231 = LINE('',#1232,#1233);
#1232 = CARTESIAN_POINT('',(-0.918616,5.E-02,7.E-02));
#1233 = VECTOR('',#1234,1.);
#1234 = DIRECTION('',(0.,-1.,0.));
#1235 = ORIENTED_EDGE('',*,*,#1236,.F.);
#1236 = EDGE_CURVE('',#1034,#1229,#1237,.T.);
#1237 = LINE('',#1238,#1239);
#1238 = CARTESIAN_POINT('',(0.,5.E-02,7.E-02));
#1239 = VECTOR('',#1240,1.);
#1240 = DIRECTION('',(-1.,0.,0.));
#1241 = ORIENTED_EDGE('',*,*,#1242,.T.);
#1242 = EDGE_CURVE('',#1034,#1243,#1245,.T.);
#1243 = VERTEX_POINT('',#1244);
#1244 = CARTESIAN_POINT('',(-0.4,0.8,7.E-02));
#1245 = LINE('',#1246,#1247);
#1246 = CARTESIAN_POINT('',(-0.4,-0.8,7.E-02));
#1247 = VECTOR('',#1248,1.);
#1248 = DIRECTION('',(0.,1.,0.));
#1249 = ORIENTED_EDGE('',*,*,#1250,.T.);
#1250 = EDGE_CURVE('',#1243,#1155,#1251,.T.);
#1251 = LINE('',#1252,#1253);
#1252 = CARTESIAN_POINT('',(-0.4,0.8,7.E-02));
#1253 = VECTOR('',#1254,1.);
#1254 = DIRECTION('',(-1.,0.,0.));
#1255 = PLANE('',#1256);
#1256 = AXIS2_PLACEMENT_3D('',#1257,#1258,#1259);
#1257 = CARTESIAN_POINT('',(-0.7,0.,7.E-02));
#1258 = DIRECTION('',(0.,0.,1.));
#1259 = DIRECTION('',(1.,0.,0.));
#1260 = ADVANCED_FACE('',(#1261),#1272,.F.);
#1261 = FACE_BOUND('',#1262,.F.);
#1262 = EDGE_LOOP('',(#1263,#1264,#1270,#1271));
#1263 = ORIENTED_EDGE('',*,*,#1130,.F.);
#1264 = ORIENTED_EDGE('',*,*,#1265,.T.);
#1265 = EDGE_CURVE('',#1123,#1243,#1266,.T.);
#1266 = LINE('',#1267,#1268);
#1267 = CARTESIAN_POINT('',(-0.4,0.8,0.));
#1268 = VECTOR('',#1269,1.);
#1269 = DIRECTION('',(0.,0.,1.));
#1270 = ORIENTED_EDGE('',*,*,#1250,.T.);
#1271 = ORIENTED_EDGE('',*,*,#1154,.F.);
#1272 = PLANE('',#1273);
#1273 = AXIS2_PLACEMENT_3D('',#1274,#1275,#1276);
#1274 = CARTESIAN_POINT('',(-0.4,0.8,0.));
#1275 = DIRECTION('',(0.,-1.,0.));
#1276 = DIRECTION('',(-1.,0.,0.));
#1277 = ADVANCED_FACE('',(#1278),#1289,.F.);
#1278 = FACE_BOUND('',#1279,.F.);
#1279 = EDGE_LOOP('',(#1280,#1281,#1282,#1283));
#1280 = ORIENTED_EDGE('',*,*,#1114,.F.);
#1281 = ORIENTED_EDGE('',*,*,#1179,.T.);
#1282 = ORIENTED_EDGE('',*,*,#1206,.T.);
#1283 = ORIENTED_EDGE('',*,*,#1284,.F.);
#1284 = EDGE_CURVE('',#1115,#1207,#1285,.T.);
#1285 = LINE('',#1286,#1287);
#1286 = CARTESIAN_POINT('',(-0.4,-0.8,0.));
#1287 = VECTOR('',#1288,1.);
#1288 = DIRECTION('',(0.,0.,1.));
#1289 = PLANE('',#1290);
#1290 = AXIS2_PLACEMENT_3D('',#1291,#1292,#1293);
#1291 = CARTESIAN_POINT('',(-1.,-0.8,0.));
#1292 = DIRECTION('',(0.,1.,0.));
#1293 = DIRECTION('',(1.,0.,0.));
#1294 = ADVANCED_FACE('',(#1295),#1303,.F.);
#1295 = FACE_BOUND('',#1296,.F.);
#1296 = EDGE_LOOP('',(#1297,#1298,#1299,#1300,#1301,#1302));
#1297 = ORIENTED_EDGE('',*,*,#1284,.T.);
#1298 = ORIENTED_EDGE('',*,*,#1214,.T.);
#1299 = ORIENTED_EDGE('',*,*,#1050,.T.);
#1300 = ORIENTED_EDGE('',*,*,#1242,.T.);
#1301 = ORIENTED_EDGE('',*,*,#1265,.F.);
#1302 = ORIENTED_EDGE('',*,*,#1122,.F.);
#1303 = PLANE('',#1304);
#1304 = AXIS2_PLACEMENT_3D('',#1305,#1306,#1307);
#1305 = CARTESIAN_POINT('',(-0.4,-0.8,0.));
#1306 = DIRECTION('',(-1.,0.,0.));
#1307 = DIRECTION('',(0.,1.,0.));
#1308 = ADVANCED_FACE('',(#1309),#1334,.F.);
#1309 = FACE_BOUND('',#1310,.F.);
#1310 = EDGE_LOOP('',(#1311,#1319,#1327,#1333));
#1311 = ORIENTED_EDGE('',*,*,#1312,.T.);
#1312 = EDGE_CURVE('',#1229,#1313,#1315,.T.);
#1313 = VERTEX_POINT('',#1314);
#1314 = CARTESIAN_POINT('',(-0.918616,5.E-02,8.E-02));
#1315 = LINE('',#1316,#1317);
#1316 = CARTESIAN_POINT('',(-0.918616,5.E-02,7.E-02));
#1317 = VECTOR('',#1318,1.);
#1318 = DIRECTION('',(0.,0.,1.));
#1319 = ORIENTED_EDGE('',*,*,#1320,.T.);
#1320 = EDGE_CURVE('',#1313,#1321,#1323,.T.);
#1321 = VERTEX_POINT('',#1322);
#1322 = CARTESIAN_POINT('',(-0.918616,-5.E-02,8.E-02));
#1323 = LINE('',#1324,#1325);
#1324 = CARTESIAN_POINT('',(-0.918616,5.E-02,8.E-02));
#1325 = VECTOR('',#1326,1.);
#1326 = DIRECTION('',(0.,-1.,0.));
#1327 = ORIENTED_EDGE('',*,*,#1328,.F.);
#1328 = EDGE_CURVE('',#1221,#1321,#1329,.T.);
#1329 = LINE('',#1330,#1331);
#1330 = CARTESIAN_POINT('',(-0.918616,-5.E-02,7.E-02));
#1331 = VECTOR('',#1332,1.);
#1332 = DIRECTION('',(0.,0.,1.));
#1333 = ORIENTED_EDGE('',*,*,#1228,.F.);
#1334 = PLANE('',#1335);
#1335 = AXIS2_PLACEMENT_3D('',#1336,#1337,#1338);
#1336 = CARTESIAN_POINT('',(-0.918616,5.E-02,7.E-02));
#1337 = DIRECTION('',(1.,0.,0.));
#1338 = DIRECTION('',(0.,-1.,0.));
#1339 = ADVANCED_FACE('',(#1340),#1353,.T.);
#1340 = FACE_BOUND('',#1341,.T.);
#1341 = EDGE_LOOP('',(#1342,#1343,#1349,#1350,#1351,#1352));
#1342 = ORIENTED_EDGE('',*,*,#1312,.T.);
#1343 = ORIENTED_EDGE('',*,*,#1344,.F.);
#1344 = EDGE_CURVE('',#748,#1313,#1345,.T.);
#1345 = LINE('',#1346,#1347);
#1346 = CARTESIAN_POINT('',(0.,5.E-02,8.E-02));
#1347 = VECTOR('',#1348,1.);
#1348 = DIRECTION('',(-1.,0.,0.));
#1349 = ORIENTED_EDGE('',*,*,#745,.F.);
#1350 = ORIENTED_EDGE('',*,*,#836,.F.);
#1351 = ORIENTED_EDGE('',*,*,#1033,.T.);
#1352 = ORIENTED_EDGE('',*,*,#1236,.T.);
#1353 = PLANE('',#1354);
#1354 = AXIS2_PLACEMENT_3D('',#1355,#1356,#1357);
#1355 = CARTESIAN_POINT('',(-7.512747617957E-18,5.E-02,7.5E-02));
#1356 = DIRECTION('',(0.,1.,0.));
#1357 = DIRECTION('',(0.,0.,1.));
#1358 = ADVANCED_FACE('',(#1359),#1372,.T.);
#1359 = FACE_BOUND('',#1360,.T.);
#1360 = EDGE_LOOP('',(#1361,#1362,#1363,#1364,#1365,#1366));
#1361 = ORIENTED_EDGE('',*,*,#1328,.F.);
#1362 = ORIENTED_EDGE('',*,*,#1220,.T.);
#1363 = ORIENTED_EDGE('',*,*,#1042,.F.);
#1364 = ORIENTED_EDGE('',*,*,#829,.F.);
#1365 = ORIENTED_EDGE('',*,*,#763,.T.);
#1366 = ORIENTED_EDGE('',*,*,#1367,.T.);
#1367 = EDGE_CURVE('',#756,#1321,#1368,.T.);
#1368 = LINE('',#1369,#1370);
#1369 = CARTESIAN_POINT('',(0.918616,-5.E-02,8.E-02));
#1370 = VECTOR('',#1371,1.);
#1371 = DIRECTION('',(-1.,2.22044604925E-16,-2.22044604925E-16));
#1372 = PLANE('',#1373);
#1373 = AXIS2_PLACEMENT_3D('',#1374,#1375,#1376);
#1374 = CARTESIAN_POINT('',(0.,-5.E-02,7.5E-02));
#1375 = DIRECTION('',(-0.,-1.,-0.));
#1376 = DIRECTION('',(0.,0.,-1.));
#1377 = ADVANCED_FACE('',(#1378),#1384,.T.);
#1378 = FACE_BOUND('',#1379,.T.);
#1379 = EDGE_LOOP('',(#1380,#1381,#1382,#1383));
#1380 = ORIENTED_EDGE('',*,*,#1320,.T.);
#1381 = ORIENTED_EDGE('',*,*,#1367,.F.);
#1382 = ORIENTED_EDGE('',*,*,#755,.F.);
#1383 = ORIENTED_EDGE('',*,*,#1344,.T.);
#1384 = PLANE('',#1385);
#1385 = AXIS2_PLACEMENT_3D('',#1386,#1387,#1388);
#1386 = CARTESIAN_POINT('',(0.,-5.55188307392E-17,8.E-02));
#1387 = DIRECTION('',(0.,0.,1.));
#1388 = DIRECTION('',(1.,0.,0.));
#1389 = ( GEOMETRIC_REPRESENTATION_CONTEXT(3) 
GLOBAL_UNCERTAINTY_ASSIGNED_CONTEXT((#1393)) 
GLOBAL_UNIT_ASSIGNED_CONTEXT((#1390,#1391,#1392)) REPRESENTATION_CONTEXT
('Context #1','3D Context with UNIT and UNCERTAINTY') );
#1390 = ( LENGTH_UNIT() NAMED_UNIT(*) SI_UNIT(.MILLI.,.METRE.) );
#1391 = ( NAMED_UNIT(*) PLANE_ANGLE_UNIT() SI_UNIT($,.RADIAN.) );
#1392 = ( NAMED_UNIT(*) SI_UNIT($,.STERADIAN.) SOLID_ANGLE_UNIT() );
#1393 = UNCERTAINTY_MEASURE_WITH_UNIT(LENGTH_MEASURE(1.E-07),#1390,
  'distance_accuracy_value','confusion accuracy');
#1394 = CONTEXT_DEPENDENT_SHAPE_REPRESENTATION(#1395,#1397);
#1395 = ( REPRESENTATION_RELATIONSHIP('','',#738,#10) 
REPRESENTATION_RELATIONSHIP_WITH_TRANSFORMATION(#1396) 
SHAPE_REPRESENTATION_RELATIONSHIP() );
#1396 = ITEM_DEFINED_TRANSFORMATION('','',#11,#19);
#1397 = PRODUCT_DEFINITION_SHAPE('Placement','Placement of an item',
  #1398);
#1398 = NEXT_ASSEMBLY_USAGE_OCCURRENCE('8','Pins','',#5,#733,$);
#1399 = PRODUCT_RELATED_PRODUCT_CATEGORY('part',$,(#735));
#1400 = SHAPE_DEFINITION_REPRESENTATION(#1401,#1407);
#1401 = PRODUCT_DEFINITION_SHAPE('','',#1402);
#1402 = PRODUCT_DEFINITION('design','',#1403,#1406);
#1403 = PRODUCT_DEFINITION_FORMATION('','',#1404);
#1404 = PRODUCT('Pin1Indicator','Pin1Indicator','',(#1405));
#1405 = PRODUCT_CONTEXT('',#2,'mechanical');
#1406 = PRODUCT_DEFINITION_CONTEXT('part definition',#2,'design');
#1407 = ADVANCED_BREP_SHAPE_REPRESENTATION('',(#11,#1408),#1461);
#1408 = MANIFOLD_SOLID_BREP('',#1409);
#1409 = CLOSED_SHELL('',(#1410,#1443,#1452));
#1410 = ADVANCED_FACE('',(#1411),#1438,.T.);
#1411 = FACE_BOUND('',#1412,.F.);
#1412 = EDGE_LOOP('',(#1413,#1423,#1430,#1431));
#1413 = ORIENTED_EDGE('',*,*,#1414,.T.);
#1414 = EDGE_CURVE('',#1415,#1417,#1419,.T.);
#1415 = VERTEX_POINT('',#1416);
#1416 = CARTESIAN_POINT('',(-0.6,-0.5,0.98));
#1417 = VERTEX_POINT('',#1418);
#1418 = CARTESIAN_POINT('',(-0.6,-0.5,0.99));
#1419 = LINE('',#1420,#1421);
#1420 = CARTESIAN_POINT('',(-0.6,-0.5,0.98));
#1421 = VECTOR('',#1422,1.);
#1422 = DIRECTION('',(0.,0.,1.));
#1423 = ORIENTED_EDGE('',*,*,#1424,.T.);
#1424 = EDGE_CURVE('',#1417,#1417,#1425,.T.);
#1425 = CIRCLE('',#1426,0.1);
#1426 = AXIS2_PLACEMENT_3D('',#1427,#1428,#1429);
#1427 = CARTESIAN_POINT('',(-0.7,-0.5,0.99));
#1428 = DIRECTION('',(0.,0.,1.));
#1429 = DIRECTION('',(1.,0.,0.));
#1430 = ORIENTED_EDGE('',*,*,#1414,.F.);
#1431 = ORIENTED_EDGE('',*,*,#1432,.F.);
#1432 = EDGE_CURVE('',#1415,#1415,#1433,.T.);
#1433 = CIRCLE('',#1434,0.1);
#1434 = AXIS2_PLACEMENT_3D('',#1435,#1436,#1437);
#1435 = CARTESIAN_POINT('',(-0.7,-0.5,0.98));
#1436 = DIRECTION('',(0.,0.,1.));
#1437 = DIRECTION('',(1.,0.,0.));
#1438 = CYLINDRICAL_SURFACE('',#1439,0.1);
#1439 = AXIS2_PLACEMENT_3D('',#1440,#1441,#1442);
#1440 = CARTESIAN_POINT('',(-0.7,-0.5,0.98));
#1441 = DIRECTION('',(-0.,-0.,-1.));
#1442 = DIRECTION('',(1.,0.,0.));
#1443 = ADVANCED_FACE('',(#1444),#1447,.F.);
#1444 = FACE_BOUND('',#1445,.F.);
#1445 = EDGE_LOOP('',(#1446));
#1446 = ORIENTED_EDGE('',*,*,#1432,.T.);
#1447 = PLANE('',#1448);
#1448 = AXIS2_PLACEMENT_3D('',#1449,#1450,#1451);
#1449 = CARTESIAN_POINT('',(-0.7,-0.5,0.98));
#1450 = DIRECTION('',(0.,0.,1.));
#1451 = DIRECTION('',(1.,0.,0.));
#1452 = ADVANCED_FACE('',(#1453),#1456,.T.);
#1453 = FACE_BOUND('',#1454,.T.);
#1454 = EDGE_LOOP('',(#1455));
#1455 = ORIENTED_EDGE('',*,*,#1424,.T.);
#1456 = PLANE('',#1457);
#1457 = AXIS2_PLACEMENT_3D('',#1458,#1459,#1460);
#1458 = CARTESIAN_POINT('',(-0.7,-0.5,0.99));
#1459 = DIRECTION('',(0.,0.,1.));
#1460 = DIRECTION('',(1.,0.,0.));
#1461 = ( GEOMETRIC_REPRESENTATION_CONTEXT(3) 
GLOBAL_UNCERTAINTY_ASSIGNED_CONTEXT((#1465)) 
GLOBAL_UNIT_ASSIGNED_CONTEXT((#1462,#1463,#1464)) REPRESENTATION_CONTEXT
('Context #1','3D Context with UNIT and UNCERTAINTY') );
#1462 = ( LENGTH_UNIT() NAMED_UNIT(*) SI_UNIT(.MILLI.,.METRE.) );
#1463 = ( NAMED_UNIT(*) PLANE_ANGLE_UNIT() SI_UNIT($,.RADIAN.) );
#1464 = ( NAMED_UNIT(*) SI_UNIT($,.STERADIAN.) SOLID_ANGLE_UNIT() );
#1465 = UNCERTAINTY_MEASURE_WITH_UNIT(LENGTH_MEASURE(1.E-07),#1462,
  'distance_accuracy_value','confusion accuracy');
#1466 = CONTEXT_DEPENDENT_SHAPE_REPRESENTATION(#1467,#1469);
#1467 = ( REPRESENTATION_RELATIONSHIP('','',#1407,#10) 
REPRESENTATION_RELATIONSHIP_WITH_TRANSFORMATION(#1468) 
SHAPE_REPRESENTATION_RELATIONSHIP() );
#1468 = ITEM_DEFINED_TRANSFORMATION('','',#11,#23);
#1469 = PRODUCT_DEFINITION_SHAPE('Placement','Placement of an item',
  #1470);
#1470 = NEXT_ASSEMBLY_USAGE_OCCURRENCE('9','Pin1Indicator','',#5,#1402,$
  );
#1471 = PRODUCT_RELATED_PRODUCT_CATEGORY('part',$,(#1404));
#1472 = MECHANICAL_DESIGN_GEOMETRIC_PRESENTATION_REPRESENTATION('',(
    #1473),#1389);
#1473 = STYLED_ITEM('color',(#1474),#739);
#1474 = PRESENTATION_STYLE_ASSIGNMENT((#1475,#1481));
#1475 = SURFACE_STYLE_USAGE(.BOTH.,#1476);
#1476 = SURFACE_SIDE_STYLE('',(#1477));
#1477 = SURFACE_STYLE_FILL_AREA(#1478);
#1478 = FILL_AREA_STYLE('',(#1479));
#1479 = FILL_AREA_STYLE_COLOUR('',#1480);
#1480 = COLOUR_RGB('',0.733333345324,0.733333345324,0.733333345324);
#1481 = CURVE_STYLE('',#1482,POSITIVE_LENGTH_MEASURE(0.1),#1483);
#1482 = DRAUGHTING_PRE_DEFINED_CURVE_FONT('continuous');
#1483 = COLOUR_RGB('',9.803921802644E-02,9.803921802644E-02,
  9.803921802644E-02);
#1484 = MECHANICAL_DESIGN_GEOMETRIC_PRESENTATION_REPRESENTATION('',(
    #1485),#1461);
#1485 = STYLED_ITEM('color',(#1486),#1408);
#1486 = PRESENTATION_STYLE_ASSIGNMENT((#1487,#1493));
#1487 = SURFACE_STYLE_USAGE(.BOTH.,#1488);
#1488 = SURFACE_SIDE_STYLE('',(#1489));
#1489 = SURFACE_STYLE_FILL_AREA(#1490);
#1490 = FILL_AREA_STYLE('',(#1491));
#1491 = FILL_AREA_STYLE_COLOUR('',#1492);
#1492 = COLOUR_RGB('',0.466666661095,0.466666661095,0.466666661095);
#1493 = CURVE_STYLE('',#1494,POSITIVE_LENGTH_MEASURE(0.1),#1483);
#1494 = DRAUGHTING_PRE_DEFINED_CURVE_FONT('continuous');
#1495 = MECHANICAL_DESIGN_GEOMETRIC_PRESENTATION_REPRESENTATION('',(
    #1496),#720);
#1496 = STYLED_ITEM('color',(#1497),#41);
#1497 = PRESENTATION_STYLE_ASSIGNMENT((#1498,#1504));
#1498 = SURFACE_STYLE_USAGE(.BOTH.,#1499);
#1499 = SURFACE_SIDE_STYLE('',(#1500));
#1500 = SURFACE_STYLE_FILL_AREA(#1501);
#1501 = FILL_AREA_STYLE('',(#1502));
#1502 = FILL_AREA_STYLE_COLOUR('',#1503);
#1503 = COLOUR_RGB('',0.199999998682,0.199999998682,0.199999998682);
#1504 = CURVE_STYLE('',#1505,POSITIVE_LENGTH_MEASURE(0.1),#1483);
#1505 = DRAUGHTING_PRE_DEFINED_CURVE_FONT('continuous');
ENDSEC;
END-ISO-10303-21;
