ISO-10303-21;
HEADER;
FILE_DESCRIPTION(('FreeCAD Model'),'2;1');
FILE_NAME('Open CASCADE Shape Model','2025-03-12T11:55:29',(''),(''),
  'Open CASCADE STEP processor 7.8','FreeCAD','Unknown');
FILE_SCHEMA(('AUTOMOTIVE_DESIGN { 1 0 10303 214 1 1 1 1 }'));
ENDSEC;
DATA;
#1 = APPLICATION_PROTOCOL_DEFINITION('international standard',
  'automotive_design',2000,#2);
#2 = APPLICATION_CONTEXT(
  'core data for automotive mechanical design processes');
#3 = SHAPE_DEFINITION_REPRESENTATION(#4,#10);
#4 = PRODUCT_DEFINITION_SHAPE('','',#5);
#5 = PRODUCT_DEFINITION('design','',#6,#9);
#6 = PRODUCT_DEFINITION_FORMATION('','',#7);
#7 = PRODUCT('capc','capc','',(#8));
#8 = PRODUCT_CONTEXT('',#2,'mechanical');
#9 = PRODUCT_DEFINITION_CONTEXT('part definition',#2,'design');
#10 = SHAPE_REPRESENTATION('',(#11,#15,#19),#23);
#11 = AXIS2_PLACEMENT_3D('',#12,#13,#14);
#12 = CARTESIAN_POINT('',(0.,0.,0.));
#13 = DIRECTION('',(0.,0.,1.));
#14 = DIRECTION('',(1.,0.,-0.));
#15 = AXIS2_PLACEMENT_3D('',#16,#17,#18);
#16 = CARTESIAN_POINT('',(0.,0.,0.));
#17 = DIRECTION('',(0.,0.,1.));
#18 = DIRECTION('',(1.,0.,0.));
#19 = AXIS2_PLACEMENT_3D('',#20,#21,#22);
#20 = CARTESIAN_POINT('',(0.,0.,0.));
#21 = DIRECTION('',(0.,0.,1.));
#22 = DIRECTION('',(1.,0.,0.));
#23 = ( GEOMETRIC_REPRESENTATION_CONTEXT(3) 
GLOBAL_UNCERTAINTY_ASSIGNED_CONTEXT((#27)) GLOBAL_UNIT_ASSIGNED_CONTEXT(
(#24,#25,#26)) REPRESENTATION_CONTEXT('Context #1',
  '3D Context with UNIT and UNCERTAINTY') );
#24 = ( LENGTH_UNIT() NAMED_UNIT(*) SI_UNIT(.MILLI.,.METRE.) );
#25 = ( NAMED_UNIT(*) PLANE_ANGLE_UNIT() SI_UNIT($,.RADIAN.) );
#26 = ( NAMED_UNIT(*) SI_UNIT($,.STERADIAN.) SOLID_ANGLE_UNIT() );
#27 = UNCERTAINTY_MEASURE_WITH_UNIT(LENGTH_MEASURE(1.E-07),#24,
  'distance_accuracy_value','confusion accuracy');
#28 = PRODUCT_RELATED_PRODUCT_CATEGORY('part',$,(#7));
#29 = SHAPE_DEFINITION_REPRESENTATION(#30,#36);
#30 = PRODUCT_DEFINITION_SHAPE('','',#31);
#31 = PRODUCT_DEFINITION('design','',#32,#35);
#32 = PRODUCT_DEFINITION_FORMATION('','',#33);
#33 = PRODUCT('CapacitorMainBody','CapacitorMainBody','',(#34));
#34 = PRODUCT_CONTEXT('',#2,'mechanical');
#35 = PRODUCT_DEFINITION_CONTEXT('part definition',#2,'design');
#36 = ADVANCED_BREP_SHAPE_REPRESENTATION('',(#11,#37),#187);
#37 = MANIFOLD_SOLID_BREP('',#38);
#38 = CLOSED_SHELL('',(#39,#79,#110,#141,#163,#175));
#39 = ADVANCED_FACE('',(#40),#74,.T.);
#40 = FACE_BOUND('',#41,.T.);
#41 = EDGE_LOOP('',(#42,#52,#60,#68));
#42 = ORIENTED_EDGE('',*,*,#43,.T.);
#43 = EDGE_CURVE('',#44,#46,#48,.T.);
#44 = VERTEX_POINT('',#45);
#45 = CARTESIAN_POINT('',(-0.99,0.615,1.E-02));
#46 = VERTEX_POINT('',#47);
#47 = CARTESIAN_POINT('',(-0.99,0.615,1.24));
#48 = LINE('',#49,#50);
#49 = CARTESIAN_POINT('',(-0.99,0.615,1.E-02));
#50 = VECTOR('',#51,1.);
#51 = DIRECTION('',(0.,0.,1.));
#52 = ORIENTED_EDGE('',*,*,#53,.T.);
#53 = EDGE_CURVE('',#46,#54,#56,.T.);
#54 = VERTEX_POINT('',#55);
#55 = CARTESIAN_POINT('',(0.99,0.615,1.24));
#56 = LINE('',#57,#58);
#57 = CARTESIAN_POINT('',(-0.99,0.615,1.24));
#58 = VECTOR('',#59,1.);
#59 = DIRECTION('',(1.,0.,0.));
#60 = ORIENTED_EDGE('',*,*,#61,.F.);
#61 = EDGE_CURVE('',#62,#54,#64,.T.);
#62 = VERTEX_POINT('',#63);
#63 = CARTESIAN_POINT('',(0.99,0.615,1.E-02));
#64 = LINE('',#65,#66);
#65 = CARTESIAN_POINT('',(0.99,0.615,1.E-02));
#66 = VECTOR('',#67,1.);
#67 = DIRECTION('',(0.,0.,1.));
#68 = ORIENTED_EDGE('',*,*,#69,.F.);
#69 = EDGE_CURVE('',#44,#62,#70,.T.);
#70 = LINE('',#71,#72);
#71 = CARTESIAN_POINT('',(-0.99,0.615,1.E-02));
#72 = VECTOR('',#73,1.);
#73 = DIRECTION('',(1.,0.,0.));
#74 = PLANE('',#75);
#75 = AXIS2_PLACEMENT_3D('',#76,#77,#78);
#76 = CARTESIAN_POINT('',(-0.99,0.615,1.E-02));
#77 = DIRECTION('',(0.,1.,0.));
#78 = DIRECTION('',(1.,0.,0.));
#79 = ADVANCED_FACE('',(#80),#105,.T.);
#80 = FACE_BOUND('',#81,.T.);
#81 = EDGE_LOOP('',(#82,#83,#91,#99));
#82 = ORIENTED_EDGE('',*,*,#61,.T.);
#83 = ORIENTED_EDGE('',*,*,#84,.T.);
#84 = EDGE_CURVE('',#54,#85,#87,.T.);
#85 = VERTEX_POINT('',#86);
#86 = CARTESIAN_POINT('',(0.99,-0.615,1.24));
#87 = LINE('',#88,#89);
#88 = CARTESIAN_POINT('',(0.99,0.615,1.24));
#89 = VECTOR('',#90,1.);
#90 = DIRECTION('',(0.,-1.,0.));
#91 = ORIENTED_EDGE('',*,*,#92,.F.);
#92 = EDGE_CURVE('',#93,#85,#95,.T.);
#93 = VERTEX_POINT('',#94);
#94 = CARTESIAN_POINT('',(0.99,-0.615,1.E-02));
#95 = LINE('',#96,#97);
#96 = CARTESIAN_POINT('',(0.99,-0.615,1.E-02));
#97 = VECTOR('',#98,1.);
#98 = DIRECTION('',(0.,0.,1.));
#99 = ORIENTED_EDGE('',*,*,#100,.F.);
#100 = EDGE_CURVE('',#62,#93,#101,.T.);
#101 = LINE('',#102,#103);
#102 = CARTESIAN_POINT('',(0.99,0.615,1.E-02));
#103 = VECTOR('',#104,1.);
#104 = DIRECTION('',(0.,-1.,0.));
#105 = PLANE('',#106);
#106 = AXIS2_PLACEMENT_3D('',#107,#108,#109);
#107 = CARTESIAN_POINT('',(0.99,0.615,1.E-02));
#108 = DIRECTION('',(1.,0.,0.));
#109 = DIRECTION('',(0.,-1.,0.));
#110 = ADVANCED_FACE('',(#111),#136,.T.);
#111 = FACE_BOUND('',#112,.T.);
#112 = EDGE_LOOP('',(#113,#114,#122,#130));
#113 = ORIENTED_EDGE('',*,*,#92,.T.);
#114 = ORIENTED_EDGE('',*,*,#115,.T.);
#115 = EDGE_CURVE('',#85,#116,#118,.T.);
#116 = VERTEX_POINT('',#117);
#117 = CARTESIAN_POINT('',(-0.99,-0.615,1.24));
#118 = LINE('',#119,#120);
#119 = CARTESIAN_POINT('',(0.99,-0.615,1.24));
#120 = VECTOR('',#121,1.);
#121 = DIRECTION('',(-1.,0.,0.));
#122 = ORIENTED_EDGE('',*,*,#123,.F.);
#123 = EDGE_CURVE('',#124,#116,#126,.T.);
#124 = VERTEX_POINT('',#125);
#125 = CARTESIAN_POINT('',(-0.99,-0.615,1.E-02));
#126 = LINE('',#127,#128);
#127 = CARTESIAN_POINT('',(-0.99,-0.615,1.E-02));
#128 = VECTOR('',#129,1.);
#129 = DIRECTION('',(0.,0.,1.));
#130 = ORIENTED_EDGE('',*,*,#131,.F.);
#131 = EDGE_CURVE('',#93,#124,#132,.T.);
#132 = LINE('',#133,#134);
#133 = CARTESIAN_POINT('',(0.99,-0.615,1.E-02));
#134 = VECTOR('',#135,1.);
#135 = DIRECTION('',(-1.,0.,0.));
#136 = PLANE('',#137);
#137 = AXIS2_PLACEMENT_3D('',#138,#139,#140);
#138 = CARTESIAN_POINT('',(0.99,-0.615,1.E-02));
#139 = DIRECTION('',(0.,-1.,0.));
#140 = DIRECTION('',(-1.,0.,0.));
#141 = ADVANCED_FACE('',(#142),#158,.T.);
#142 = FACE_BOUND('',#143,.T.);
#143 = EDGE_LOOP('',(#144,#145,#151,#152));
#144 = ORIENTED_EDGE('',*,*,#123,.T.);
#145 = ORIENTED_EDGE('',*,*,#146,.T.);
#146 = EDGE_CURVE('',#116,#46,#147,.T.);
#147 = LINE('',#148,#149);
#148 = CARTESIAN_POINT('',(-0.99,-0.615,1.24));
#149 = VECTOR('',#150,1.);
#150 = DIRECTION('',(0.,1.,0.));
#151 = ORIENTED_EDGE('',*,*,#43,.F.);
#152 = ORIENTED_EDGE('',*,*,#153,.F.);
#153 = EDGE_CURVE('',#124,#44,#154,.T.);
#154 = LINE('',#155,#156);
#155 = CARTESIAN_POINT('',(-0.99,-0.615,1.E-02));
#156 = VECTOR('',#157,1.);
#157 = DIRECTION('',(0.,1.,0.));
#158 = PLANE('',#159);
#159 = AXIS2_PLACEMENT_3D('',#160,#161,#162);
#160 = CARTESIAN_POINT('',(-0.99,-0.615,1.E-02));
#161 = DIRECTION('',(-1.,0.,0.));
#162 = DIRECTION('',(0.,1.,0.));
#163 = ADVANCED_FACE('',(#164),#170,.F.);
#164 = FACE_BOUND('',#165,.T.);
#165 = EDGE_LOOP('',(#166,#167,#168,#169));
#166 = ORIENTED_EDGE('',*,*,#69,.T.);
#167 = ORIENTED_EDGE('',*,*,#100,.T.);
#168 = ORIENTED_EDGE('',*,*,#131,.T.);
#169 = ORIENTED_EDGE('',*,*,#153,.T.);
#170 = PLANE('',#171);
#171 = AXIS2_PLACEMENT_3D('',#172,#173,#174);
#172 = CARTESIAN_POINT('',(0.,0.,1.E-02));
#173 = DIRECTION('',(0.,0.,1.));
#174 = DIRECTION('',(1.,0.,0.));
#175 = ADVANCED_FACE('',(#176),#182,.T.);
#176 = FACE_BOUND('',#177,.F.);
#177 = EDGE_LOOP('',(#178,#179,#180,#181));
#178 = ORIENTED_EDGE('',*,*,#53,.T.);
#179 = ORIENTED_EDGE('',*,*,#84,.T.);
#180 = ORIENTED_EDGE('',*,*,#115,.T.);
#181 = ORIENTED_EDGE('',*,*,#146,.T.);
#182 = PLANE('',#183);
#183 = AXIS2_PLACEMENT_3D('',#184,#185,#186);
#184 = CARTESIAN_POINT('',(0.,0.,1.24));
#185 = DIRECTION('',(0.,0.,1.));
#186 = DIRECTION('',(1.,0.,0.));
#187 = ( GEOMETRIC_REPRESENTATION_CONTEXT(3) 
GLOBAL_UNCERTAINTY_ASSIGNED_CONTEXT((#191)) GLOBAL_UNIT_ASSIGNED_CONTEXT
((#188,#189,#190)) REPRESENTATION_CONTEXT('Context #1',
  '3D Context with UNIT and UNCERTAINTY') );
#188 = ( LENGTH_UNIT() NAMED_UNIT(*) SI_UNIT(.MILLI.,.METRE.) );
#189 = ( NAMED_UNIT(*) PLANE_ANGLE_UNIT() SI_UNIT($,.RADIAN.) );
#190 = ( NAMED_UNIT(*) SI_UNIT($,.STERADIAN.) SOLID_ANGLE_UNIT() );
#191 = UNCERTAINTY_MEASURE_WITH_UNIT(LENGTH_MEASURE(1.E-07),#188,
  'distance_accuracy_value','confusion accuracy');
#192 = CONTEXT_DEPENDENT_SHAPE_REPRESENTATION(#193,#195);
#193 = ( REPRESENTATION_RELATIONSHIP('','',#36,#10) 
REPRESENTATION_RELATIONSHIP_WITH_TRANSFORMATION(#194) 
SHAPE_REPRESENTATION_RELATIONSHIP() );
#194 = ITEM_DEFINED_TRANSFORMATION('','',#11,#15);
#195 = PRODUCT_DEFINITION_SHAPE('Placement','Placement of an item',#196
  );
#196 = NEXT_ASSEMBLY_USAGE_OCCURRENCE('949','CapacitorMainBody','',#5,
  #31,$);
#197 = PRODUCT_RELATED_PRODUCT_CATEGORY('part',$,(#33));
#198 = SHAPE_DEFINITION_REPRESENTATION(#199,#205);
#199 = PRODUCT_DEFINITION_SHAPE('','',#200);
#200 = PRODUCT_DEFINITION('design','',#201,#204);
#201 = PRODUCT_DEFINITION_FORMATION('','',#202);
#202 = PRODUCT('CapacitorContacts','CapacitorContacts','',(#203));
#203 = PRODUCT_CONTEXT('',#2,'mechanical');
#204 = PRODUCT_DEFINITION_CONTEXT('part definition',#2,'design');
#205 = ADVANCED_BREP_SHAPE_REPRESENTATION('',(#11,#206),#1248);
#206 = MANIFOLD_SOLID_BREP('',#207);
#207 = CLOSED_SHELL('',(#208,#318,#349,#374,#399,#423,#447,#472,#497,
    #514,#545,#569,#593,#610,#643,#660,#677,#702,#727,#744,#761,#778,
    #860,#872,#904,#928,#953,#977,#1002,#1026,#1051,#1068,#1093,#1118,
    #1135,#1160,#1177,#1202,#1219,#1236));
#208 = ADVANCED_FACE('',(#209,#279),#313,.T.);
#209 = FACE_BOUND('',#210,.T.);
#210 = EDGE_LOOP('',(#211,#221,#230,#238,#247,#255,#264,#272));
#211 = ORIENTED_EDGE('',*,*,#212,.T.);
#212 = EDGE_CURVE('',#213,#215,#217,.T.);
#213 = VERTEX_POINT('',#214);
#214 = CARTESIAN_POINT('',(-0.5,0.625,1.E-02));
#215 = VERTEX_POINT('',#216);
#216 = CARTESIAN_POINT('',(-0.5,0.625,1.24));
#217 = LINE('',#218,#219);
#218 = CARTESIAN_POINT('',(-0.5,0.625,0.));
#219 = VECTOR('',#220,1.);
#220 = DIRECTION('',(0.,0.,1.));
#221 = ORIENTED_EDGE('',*,*,#222,.T.);
#222 = EDGE_CURVE('',#215,#223,#225,.T.);
#223 = VERTEX_POINT('',#224);
#224 = CARTESIAN_POINT('',(-0.5,0.615,1.25));
#225 = CIRCLE('',#226,1.E-02);
#226 = AXIS2_PLACEMENT_3D('',#227,#228,#229);
#227 = CARTESIAN_POINT('',(-0.5,0.615,1.24));
#228 = DIRECTION('',(1.,0.,-0.));
#229 = DIRECTION('',(0.,0.,1.));
#230 = ORIENTED_EDGE('',*,*,#231,.T.);
#231 = EDGE_CURVE('',#223,#232,#234,.T.);
#232 = VERTEX_POINT('',#233);
#233 = CARTESIAN_POINT('',(-0.5,-0.615,1.25));
#234 = LINE('',#235,#236);
#235 = CARTESIAN_POINT('',(-0.5,0.625,1.25));
#236 = VECTOR('',#237,1.);
#237 = DIRECTION('',(0.,-1.,0.));
#238 = ORIENTED_EDGE('',*,*,#239,.T.);
#239 = EDGE_CURVE('',#232,#240,#242,.T.);
#240 = VERTEX_POINT('',#241);
#241 = CARTESIAN_POINT('',(-0.5,-0.625,1.24));
#242 = CIRCLE('',#243,1.E-02);
#243 = AXIS2_PLACEMENT_3D('',#244,#245,#246);
#244 = CARTESIAN_POINT('',(-0.5,-0.615,1.24));
#245 = DIRECTION('',(1.,-0.,0.));
#246 = DIRECTION('',(0.,0.,-1.));
#247 = ORIENTED_EDGE('',*,*,#248,.F.);
#248 = EDGE_CURVE('',#249,#240,#251,.T.);
#249 = VERTEX_POINT('',#250);
#250 = CARTESIAN_POINT('',(-0.5,-0.625,1.E-02));
#251 = LINE('',#252,#253);
#252 = CARTESIAN_POINT('',(-0.5,-0.625,0.));
#253 = VECTOR('',#254,1.);
#254 = DIRECTION('',(0.,0.,1.));
#255 = ORIENTED_EDGE('',*,*,#256,.F.);
#256 = EDGE_CURVE('',#257,#249,#259,.T.);
#257 = VERTEX_POINT('',#258);
#258 = CARTESIAN_POINT('',(-0.5,-0.615,-1.734723475977E-18));
#259 = CIRCLE('',#260,1.E-02);
#260 = AXIS2_PLACEMENT_3D('',#261,#262,#263);
#261 = CARTESIAN_POINT('',(-0.5,-0.615,1.E-02));
#262 = DIRECTION('',(-1.,0.,0.));
#263 = DIRECTION('',(0.,0.,-1.));
#264 = ORIENTED_EDGE('',*,*,#265,.F.);
#265 = EDGE_CURVE('',#266,#257,#268,.T.);
#266 = VERTEX_POINT('',#267);
#267 = CARTESIAN_POINT('',(-0.5,0.615,-1.734723475977E-18));
#268 = LINE('',#269,#270);
#269 = CARTESIAN_POINT('',(-0.5,0.625,0.));
#270 = VECTOR('',#271,1.);
#271 = DIRECTION('',(0.,-1.,0.));
#272 = ORIENTED_EDGE('',*,*,#273,.F.);
#273 = EDGE_CURVE('',#213,#266,#274,.T.);
#274 = CIRCLE('',#275,1.E-02);
#275 = AXIS2_PLACEMENT_3D('',#276,#277,#278);
#276 = CARTESIAN_POINT('',(-0.5,0.615,1.E-02));
#277 = DIRECTION('',(-1.,0.,0.));
#278 = DIRECTION('',(0.,0.,1.));
#279 = FACE_BOUND('',#280,.T.);
#280 = EDGE_LOOP('',(#281,#291,#299,#307));
#281 = ORIENTED_EDGE('',*,*,#282,.F.);
#282 = EDGE_CURVE('',#283,#285,#287,.T.);
#283 = VERTEX_POINT('',#284);
#284 = CARTESIAN_POINT('',(-0.5,2.5E-03,0.623));
#285 = VERTEX_POINT('',#286);
#286 = CARTESIAN_POINT('',(-0.5,2.5E-03,0.627));
#287 = LINE('',#288,#289);
#288 = CARTESIAN_POINT('',(-0.5,2.5E-03,0.623));
#289 = VECTOR('',#290,1.);
#290 = DIRECTION('',(0.,0.,1.));
#291 = ORIENTED_EDGE('',*,*,#292,.F.);
#292 = EDGE_CURVE('',#293,#283,#295,.T.);
#293 = VERTEX_POINT('',#294);
#294 = CARTESIAN_POINT('',(-0.5,-2.5E-03,0.623));
#295 = LINE('',#296,#297);
#296 = CARTESIAN_POINT('',(-0.5,-2.5E-03,0.623));
#297 = VECTOR('',#298,1.);
#298 = DIRECTION('',(0.,1.,0.));
#299 = ORIENTED_EDGE('',*,*,#300,.T.);
#300 = EDGE_CURVE('',#293,#301,#303,.T.);
#301 = VERTEX_POINT('',#302);
#302 = CARTESIAN_POINT('',(-0.5,-2.5E-03,0.627));
#303 = LINE('',#304,#305);
#304 = CARTESIAN_POINT('',(-0.5,-2.5E-03,0.623));
#305 = VECTOR('',#306,1.);
#306 = DIRECTION('',(0.,0.,1.));
#307 = ORIENTED_EDGE('',*,*,#308,.T.);
#308 = EDGE_CURVE('',#301,#285,#309,.T.);
#309 = LINE('',#310,#311);
#310 = CARTESIAN_POINT('',(-0.5,-2.5E-03,0.627));
#311 = VECTOR('',#312,1.);
#312 = DIRECTION('',(0.,1.,0.));
#313 = PLANE('',#314);
#314 = AXIS2_PLACEMENT_3D('',#315,#316,#317);
#315 = CARTESIAN_POINT('',(-0.5,0.625,0.));
#316 = DIRECTION('',(1.,0.,0.));
#317 = DIRECTION('',(0.,-1.,0.));
#318 = ADVANCED_FACE('',(#319),#344,.T.);
#319 = FACE_BOUND('',#320,.T.);
#320 = EDGE_LOOP('',(#321,#322,#330,#338));
#321 = ORIENTED_EDGE('',*,*,#212,.F.);
#322 = ORIENTED_EDGE('',*,*,#323,.F.);
#323 = EDGE_CURVE('',#324,#213,#326,.T.);
#324 = VERTEX_POINT('',#325);
#325 = CARTESIAN_POINT('',(-0.99,0.625,1.E-02));
#326 = LINE('',#327,#328);
#327 = CARTESIAN_POINT('',(-1.,0.625,1.E-02));
#328 = VECTOR('',#329,1.);
#329 = DIRECTION('',(1.,0.,0.));
#330 = ORIENTED_EDGE('',*,*,#331,.T.);
#331 = EDGE_CURVE('',#324,#332,#334,.T.);
#332 = VERTEX_POINT('',#333);
#333 = CARTESIAN_POINT('',(-0.99,0.625,1.24));
#334 = LINE('',#335,#336);
#335 = CARTESIAN_POINT('',(-0.99,0.625,0.));
#336 = VECTOR('',#337,1.);
#337 = DIRECTION('',(0.,0.,1.));
#338 = ORIENTED_EDGE('',*,*,#339,.T.);
#339 = EDGE_CURVE('',#332,#215,#340,.T.);
#340 = LINE('',#341,#342);
#341 = CARTESIAN_POINT('',(-1.,0.625,1.24));
#342 = VECTOR('',#343,1.);
#343 = DIRECTION('',(1.,0.,0.));
#344 = PLANE('',#345);
#345 = AXIS2_PLACEMENT_3D('',#346,#347,#348);
#346 = CARTESIAN_POINT('',(-1.,0.625,0.));
#347 = DIRECTION('',(0.,1.,0.));
#348 = DIRECTION('',(1.,0.,0.));
#349 = ADVANCED_FACE('',(#350),#369,.T.);
#350 = FACE_BOUND('',#351,.F.);
#351 = EDGE_LOOP('',(#352,#361,#367,#368));
#352 = ORIENTED_EDGE('',*,*,#353,.T.);
#353 = EDGE_CURVE('',#324,#354,#356,.T.);
#354 = VERTEX_POINT('',#355);
#355 = CARTESIAN_POINT('',(-0.99,0.615,-1.734723475977E-18));
#356 = CIRCLE('',#357,1.E-02);
#357 = AXIS2_PLACEMENT_3D('',#358,#359,#360);
#358 = CARTESIAN_POINT('',(-0.99,0.615,1.E-02));
#359 = DIRECTION('',(-1.,0.,6.123233995737E-17));
#360 = DIRECTION('',(-6.123233995737E-17,0.,-1.));
#361 = ORIENTED_EDGE('',*,*,#362,.T.);
#362 = EDGE_CURVE('',#354,#266,#363,.T.);
#363 = LINE('',#364,#365);
#364 = CARTESIAN_POINT('',(-1.,0.615,-1.734723475977E-18));
#365 = VECTOR('',#366,1.);
#366 = DIRECTION('',(1.,0.,0.));
#367 = ORIENTED_EDGE('',*,*,#273,.F.);
#368 = ORIENTED_EDGE('',*,*,#323,.F.);
#369 = CYLINDRICAL_SURFACE('',#370,1.E-02);
#370 = AXIS2_PLACEMENT_3D('',#371,#372,#373);
#371 = CARTESIAN_POINT('',(-1.,0.615,1.E-02));
#372 = DIRECTION('',(1.,0.,0.));
#373 = DIRECTION('',(0.,1.,0.));
#374 = ADVANCED_FACE('',(#375),#394,.T.);
#375 = FACE_BOUND('',#376,.T.);
#376 = EDGE_LOOP('',(#377,#386,#392,#393));
#377 = ORIENTED_EDGE('',*,*,#378,.T.);
#378 = EDGE_CURVE('',#332,#379,#381,.T.);
#379 = VERTEX_POINT('',#380);
#380 = CARTESIAN_POINT('',(-0.99,0.615,1.25));
#381 = CIRCLE('',#382,1.E-02);
#382 = AXIS2_PLACEMENT_3D('',#383,#384,#385);
#383 = CARTESIAN_POINT('',(-0.99,0.615,1.24));
#384 = DIRECTION('',(1.,0.,-0.));
#385 = DIRECTION('',(0.,0.,1.));
#386 = ORIENTED_EDGE('',*,*,#387,.T.);
#387 = EDGE_CURVE('',#379,#223,#388,.T.);
#388 = LINE('',#389,#390);
#389 = CARTESIAN_POINT('',(-1.,0.615,1.25));
#390 = VECTOR('',#391,1.);
#391 = DIRECTION('',(1.,0.,0.));
#392 = ORIENTED_EDGE('',*,*,#222,.F.);
#393 = ORIENTED_EDGE('',*,*,#339,.F.);
#394 = CYLINDRICAL_SURFACE('',#395,1.E-02);
#395 = AXIS2_PLACEMENT_3D('',#396,#397,#398);
#396 = CARTESIAN_POINT('',(-1.,0.615,1.24));
#397 = DIRECTION('',(1.,0.,0.));
#398 = DIRECTION('',(0.,1.,0.));
#399 = ADVANCED_FACE('',(#400),#418,.F.);
#400 = FACE_BOUND('',#401,.F.);
#401 = EDGE_LOOP('',(#402,#403,#404,#412));
#402 = ORIENTED_EDGE('',*,*,#265,.F.);
#403 = ORIENTED_EDGE('',*,*,#362,.F.);
#404 = ORIENTED_EDGE('',*,*,#405,.F.);
#405 = EDGE_CURVE('',#406,#354,#408,.T.);
#406 = VERTEX_POINT('',#407);
#407 = CARTESIAN_POINT('',(-0.99,-0.615,0.));
#408 = LINE('',#409,#410);
#409 = CARTESIAN_POINT('',(-0.99,-0.625,-1.734723475977E-18));
#410 = VECTOR('',#411,1.);
#411 = DIRECTION('',(0.,1.,0.));
#412 = ORIENTED_EDGE('',*,*,#413,.F.);
#413 = EDGE_CURVE('',#257,#406,#414,.T.);
#414 = LINE('',#415,#416);
#415 = CARTESIAN_POINT('',(-0.5,-0.615,-1.734723475977E-18));
#416 = VECTOR('',#417,1.);
#417 = DIRECTION('',(-1.,0.,0.));
#418 = PLANE('',#419);
#419 = AXIS2_PLACEMENT_3D('',#420,#421,#422);
#420 = CARTESIAN_POINT('',(-0.75,0.,0.));
#421 = DIRECTION('',(0.,0.,1.));
#422 = DIRECTION('',(1.,0.,0.));
#423 = ADVANCED_FACE('',(#424),#442,.T.);
#424 = FACE_BOUND('',#425,.T.);
#425 = EDGE_LOOP('',(#426,#427,#428,#436));
#426 = ORIENTED_EDGE('',*,*,#231,.F.);
#427 = ORIENTED_EDGE('',*,*,#387,.F.);
#428 = ORIENTED_EDGE('',*,*,#429,.F.);
#429 = EDGE_CURVE('',#430,#379,#432,.T.);
#430 = VERTEX_POINT('',#431);
#431 = CARTESIAN_POINT('',(-0.99,-0.615,1.25));
#432 = LINE('',#433,#434);
#433 = CARTESIAN_POINT('',(-0.99,-0.625,1.25));
#434 = VECTOR('',#435,1.);
#435 = DIRECTION('',(0.,1.,0.));
#436 = ORIENTED_EDGE('',*,*,#437,.F.);
#437 = EDGE_CURVE('',#232,#430,#438,.T.);
#438 = LINE('',#439,#440);
#439 = CARTESIAN_POINT('',(-0.5,-0.615,1.25));
#440 = VECTOR('',#441,1.);
#441 = DIRECTION('',(-1.,0.,0.));
#442 = PLANE('',#443);
#443 = AXIS2_PLACEMENT_3D('',#444,#445,#446);
#444 = CARTESIAN_POINT('',(-0.75,0.,1.25));
#445 = DIRECTION('',(0.,0.,1.));
#446 = DIRECTION('',(1.,0.,0.));
#447 = ADVANCED_FACE('',(#448),#467,.T.);
#448 = FACE_BOUND('',#449,.T.);
#449 = EDGE_LOOP('',(#450,#451,#459,#466));
#450 = ORIENTED_EDGE('',*,*,#256,.T.);
#451 = ORIENTED_EDGE('',*,*,#452,.T.);
#452 = EDGE_CURVE('',#249,#453,#455,.T.);
#453 = VERTEX_POINT('',#454);
#454 = CARTESIAN_POINT('',(-0.99,-0.625,1.E-02));
#455 = LINE('',#456,#457);
#456 = CARTESIAN_POINT('',(-0.5,-0.625,1.E-02));
#457 = VECTOR('',#458,1.);
#458 = DIRECTION('',(-1.,0.,0.));
#459 = ORIENTED_EDGE('',*,*,#460,.F.);
#460 = EDGE_CURVE('',#406,#453,#461,.T.);
#461 = CIRCLE('',#462,1.E-02);
#462 = AXIS2_PLACEMENT_3D('',#463,#464,#465);
#463 = CARTESIAN_POINT('',(-0.99,-0.615,1.E-02));
#464 = DIRECTION('',(-1.,0.,0.));
#465 = DIRECTION('',(0.,-1.,0.));
#466 = ORIENTED_EDGE('',*,*,#413,.F.);
#467 = CYLINDRICAL_SURFACE('',#468,1.E-02);
#468 = AXIS2_PLACEMENT_3D('',#469,#470,#471);
#469 = CARTESIAN_POINT('',(-0.5,-0.615,1.E-02));
#470 = DIRECTION('',(-1.,0.,0.));
#471 = DIRECTION('',(0.,0.,-1.));
#472 = ADVANCED_FACE('',(#473),#492,.T.);
#473 = FACE_BOUND('',#474,.F.);
#474 = EDGE_LOOP('',(#475,#476,#484,#491));
#475 = ORIENTED_EDGE('',*,*,#239,.T.);
#476 = ORIENTED_EDGE('',*,*,#477,.T.);
#477 = EDGE_CURVE('',#240,#478,#480,.T.);
#478 = VERTEX_POINT('',#479);
#479 = CARTESIAN_POINT('',(-0.99,-0.625,1.24));
#480 = LINE('',#481,#482);
#481 = CARTESIAN_POINT('',(-0.5,-0.625,1.24));
#482 = VECTOR('',#483,1.);
#483 = DIRECTION('',(-1.,0.,0.));
#484 = ORIENTED_EDGE('',*,*,#485,.F.);
#485 = EDGE_CURVE('',#430,#478,#486,.T.);
#486 = CIRCLE('',#487,1.E-02);
#487 = AXIS2_PLACEMENT_3D('',#488,#489,#490);
#488 = CARTESIAN_POINT('',(-0.99,-0.615,1.24));
#489 = DIRECTION('',(1.,0.,-0.));
#490 = DIRECTION('',(0.,0.,1.));
#491 = ORIENTED_EDGE('',*,*,#437,.F.);
#492 = CYLINDRICAL_SURFACE('',#493,1.E-02);
#493 = AXIS2_PLACEMENT_3D('',#494,#495,#496);
#494 = CARTESIAN_POINT('',(-0.5,-0.615,1.24));
#495 = DIRECTION('',(-1.,0.,0.));
#496 = DIRECTION('',(0.,0.,1.));
#497 = ADVANCED_FACE('',(#498),#509,.T.);
#498 = FACE_BOUND('',#499,.T.);
#499 = EDGE_LOOP('',(#500,#501,#502,#508));
#500 = ORIENTED_EDGE('',*,*,#248,.T.);
#501 = ORIENTED_EDGE('',*,*,#477,.T.);
#502 = ORIENTED_EDGE('',*,*,#503,.F.);
#503 = EDGE_CURVE('',#453,#478,#504,.T.);
#504 = LINE('',#505,#506);
#505 = CARTESIAN_POINT('',(-0.99,-0.625,0.));
#506 = VECTOR('',#507,1.);
#507 = DIRECTION('',(0.,0.,1.));
#508 = ORIENTED_EDGE('',*,*,#452,.F.);
#509 = PLANE('',#510);
#510 = AXIS2_PLACEMENT_3D('',#511,#512,#513);
#511 = CARTESIAN_POINT('',(-0.5,-0.625,0.));
#512 = DIRECTION('',(0.,-1.,0.));
#513 = DIRECTION('',(-1.,0.,0.));
#514 = ADVANCED_FACE('',(#515),#540,.T.);
#515 = FACE_BOUND('',#516,.T.);
#516 = EDGE_LOOP('',(#517,#518,#526,#534));
#517 = ORIENTED_EDGE('',*,*,#282,.T.);
#518 = ORIENTED_EDGE('',*,*,#519,.T.);
#519 = EDGE_CURVE('',#285,#520,#522,.T.);
#520 = VERTEX_POINT('',#521);
#521 = CARTESIAN_POINT('',(0.5,2.5E-03,0.627));
#522 = LINE('',#523,#524);
#523 = CARTESIAN_POINT('',(-0.5,2.5E-03,0.627));
#524 = VECTOR('',#525,1.);
#525 = DIRECTION('',(1.,0.,0.));
#526 = ORIENTED_EDGE('',*,*,#527,.F.);
#527 = EDGE_CURVE('',#528,#520,#530,.T.);
#528 = VERTEX_POINT('',#529);
#529 = CARTESIAN_POINT('',(0.5,2.5E-03,0.623));
#530 = LINE('',#531,#532);
#531 = CARTESIAN_POINT('',(0.5,2.5E-03,0.623));
#532 = VECTOR('',#533,1.);
#533 = DIRECTION('',(0.,0.,1.));
#534 = ORIENTED_EDGE('',*,*,#535,.F.);
#535 = EDGE_CURVE('',#283,#528,#536,.T.);
#536 = LINE('',#537,#538);
#537 = CARTESIAN_POINT('',(-0.5,2.5E-03,0.623));
#538 = VECTOR('',#539,1.);
#539 = DIRECTION('',(1.,0.,0.));
#540 = PLANE('',#541);
#541 = AXIS2_PLACEMENT_3D('',#542,#543,#544);
#542 = CARTESIAN_POINT('',(-0.5,2.5E-03,0.623));
#543 = DIRECTION('',(0.,1.,0.));
#544 = DIRECTION('',(1.,0.,0.));
#545 = ADVANCED_FACE('',(#546),#564,.T.);
#546 = FACE_BOUND('',#547,.F.);
#547 = EDGE_LOOP('',(#548,#549,#557,#563));
#548 = ORIENTED_EDGE('',*,*,#519,.T.);
#549 = ORIENTED_EDGE('',*,*,#550,.T.);
#550 = EDGE_CURVE('',#520,#551,#553,.T.);
#551 = VERTEX_POINT('',#552);
#552 = CARTESIAN_POINT('',(0.5,-2.5E-03,0.627));
#553 = LINE('',#554,#555);
#554 = CARTESIAN_POINT('',(0.5,2.5E-03,0.627));
#555 = VECTOR('',#556,1.);
#556 = DIRECTION('',(0.,-1.,0.));
#557 = ORIENTED_EDGE('',*,*,#558,.T.);
#558 = EDGE_CURVE('',#551,#301,#559,.T.);
#559 = LINE('',#560,#561);
#560 = CARTESIAN_POINT('',(0.5,-2.5E-03,0.627));
#561 = VECTOR('',#562,1.);
#562 = DIRECTION('',(-1.,0.,0.));
#563 = ORIENTED_EDGE('',*,*,#308,.T.);
#564 = PLANE('',#565);
#565 = AXIS2_PLACEMENT_3D('',#566,#567,#568);
#566 = CARTESIAN_POINT('',(1.078808131826E-18,0.,0.627));
#567 = DIRECTION('',(0.,0.,1.));
#568 = DIRECTION('',(1.,0.,0.));
#569 = ADVANCED_FACE('',(#570),#588,.T.);
#570 = FACE_BOUND('',#571,.T.);
#571 = EDGE_LOOP('',(#572,#580,#581,#582));
#572 = ORIENTED_EDGE('',*,*,#573,.T.);
#573 = EDGE_CURVE('',#574,#551,#576,.T.);
#574 = VERTEX_POINT('',#575);
#575 = CARTESIAN_POINT('',(0.5,-2.5E-03,0.623));
#576 = LINE('',#577,#578);
#577 = CARTESIAN_POINT('',(0.5,-2.5E-03,0.623));
#578 = VECTOR('',#579,1.);
#579 = DIRECTION('',(0.,0.,1.));
#580 = ORIENTED_EDGE('',*,*,#558,.T.);
#581 = ORIENTED_EDGE('',*,*,#300,.F.);
#582 = ORIENTED_EDGE('',*,*,#583,.F.);
#583 = EDGE_CURVE('',#574,#293,#584,.T.);
#584 = LINE('',#585,#586);
#585 = CARTESIAN_POINT('',(0.5,-2.5E-03,0.623));
#586 = VECTOR('',#587,1.);
#587 = DIRECTION('',(-1.,0.,0.));
#588 = PLANE('',#589);
#589 = AXIS2_PLACEMENT_3D('',#590,#591,#592);
#590 = CARTESIAN_POINT('',(0.5,-2.5E-03,0.623));
#591 = DIRECTION('',(0.,-1.,0.));
#592 = DIRECTION('',(-1.,0.,0.));
#593 = ADVANCED_FACE('',(#594),#605,.F.);
#594 = FACE_BOUND('',#595,.T.);
#595 = EDGE_LOOP('',(#596,#597,#603,#604));
#596 = ORIENTED_EDGE('',*,*,#535,.T.);
#597 = ORIENTED_EDGE('',*,*,#598,.T.);
#598 = EDGE_CURVE('',#528,#574,#599,.T.);
#599 = LINE('',#600,#601);
#600 = CARTESIAN_POINT('',(0.5,2.5E-03,0.623));
#601 = VECTOR('',#602,1.);
#602 = DIRECTION('',(0.,-1.,0.));
#603 = ORIENTED_EDGE('',*,*,#583,.T.);
#604 = ORIENTED_EDGE('',*,*,#292,.T.);
#605 = PLANE('',#606);
#606 = AXIS2_PLACEMENT_3D('',#607,#608,#609);
#607 = CARTESIAN_POINT('',(1.078808131826E-18,0.,0.623));
#608 = DIRECTION('',(0.,0.,1.));
#609 = DIRECTION('',(1.,0.,0.));
#610 = ADVANCED_FACE('',(#611),#638,.T.);
#611 = FACE_BOUND('',#612,.T.);
#612 = EDGE_LOOP('',(#613,#622,#630,#637));
#613 = ORIENTED_EDGE('',*,*,#614,.T.);
#614 = EDGE_CURVE('',#324,#615,#617,.T.);
#615 = VERTEX_POINT('',#616);
#616 = CARTESIAN_POINT('',(-1.,0.615,1.E-02));
#617 = CIRCLE('',#618,1.E-02);
#618 = AXIS2_PLACEMENT_3D('',#619,#620,#621);
#619 = CARTESIAN_POINT('',(-0.99,0.615,1.E-02));
#620 = DIRECTION('',(0.,0.,1.));
#621 = DIRECTION('',(-1.,0.,0.));
#622 = ORIENTED_EDGE('',*,*,#623,.T.);
#623 = EDGE_CURVE('',#615,#624,#626,.T.);
#624 = VERTEX_POINT('',#625);
#625 = CARTESIAN_POINT('',(-1.,0.615,1.24));
#626 = LINE('',#627,#628);
#627 = CARTESIAN_POINT('',(-1.,0.615,0.));
#628 = VECTOR('',#629,1.);
#629 = DIRECTION('',(0.,0.,1.));
#630 = ORIENTED_EDGE('',*,*,#631,.F.);
#631 = EDGE_CURVE('',#332,#624,#632,.T.);
#632 = CIRCLE('',#633,1.E-02);
#633 = AXIS2_PLACEMENT_3D('',#634,#635,#636);
#634 = CARTESIAN_POINT('',(-0.99,0.615,1.24));
#635 = DIRECTION('',(6.123233995737E-17,0.,1.));
#636 = DIRECTION('',(-1.,0.,6.123233995737E-17));
#637 = ORIENTED_EDGE('',*,*,#331,.F.);
#638 = CYLINDRICAL_SURFACE('',#639,1.E-02);
#639 = AXIS2_PLACEMENT_3D('',#640,#641,#642);
#640 = CARTESIAN_POINT('',(-0.99,0.615,0.));
#641 = DIRECTION('',(0.,0.,1.));
#642 = DIRECTION('',(0.,1.,0.));
#643 = ADVANCED_FACE('',(#644),#655,.T.);
#644 = FACE_BOUND('',#645,.T.);
#645 = EDGE_LOOP('',(#646,#647,#648));
#646 = ORIENTED_EDGE('',*,*,#614,.F.);
#647 = ORIENTED_EDGE('',*,*,#353,.T.);
#648 = ORIENTED_EDGE('',*,*,#649,.F.);
#649 = EDGE_CURVE('',#615,#354,#650,.T.);
#650 = CIRCLE('',#651,1.E-02);
#651 = AXIS2_PLACEMENT_3D('',#652,#653,#654);
#652 = CARTESIAN_POINT('',(-0.99,0.615,1.E-02));
#653 = DIRECTION('',(-0.,-1.,-0.));
#654 = DIRECTION('',(-1.,0.,0.));
#655 = SPHERICAL_SURFACE('',#656,1.E-02);
#656 = AXIS2_PLACEMENT_3D('',#657,#658,#659);
#657 = CARTESIAN_POINT('',(-0.99,0.615,1.E-02));
#658 = DIRECTION('',(0.,-1.,0.));
#659 = DIRECTION('',(-1.,0.,0.));
#660 = ADVANCED_FACE('',(#661),#672,.T.);
#661 = FACE_BOUND('',#662,.T.);
#662 = EDGE_LOOP('',(#663,#664,#665));
#663 = ORIENTED_EDGE('',*,*,#378,.F.);
#664 = ORIENTED_EDGE('',*,*,#631,.T.);
#665 = ORIENTED_EDGE('',*,*,#666,.F.);
#666 = EDGE_CURVE('',#379,#624,#667,.T.);
#667 = CIRCLE('',#668,1.E-02);
#668 = AXIS2_PLACEMENT_3D('',#669,#670,#671);
#669 = CARTESIAN_POINT('',(-0.99,0.615,1.24));
#670 = DIRECTION('',(0.,-1.,0.));
#671 = DIRECTION('',(0.,0.,1.));
#672 = SPHERICAL_SURFACE('',#673,1.E-02);
#673 = AXIS2_PLACEMENT_3D('',#674,#675,#676);
#674 = CARTESIAN_POINT('',(-0.99,0.615,1.24));
#675 = DIRECTION('',(0.,-1.,0.));
#676 = DIRECTION('',(0.,0.,1.));
#677 = ADVANCED_FACE('',(#678),#697,.T.);
#678 = FACE_BOUND('',#679,.T.);
#679 = EDGE_LOOP('',(#680,#689,#695,#696));
#680 = ORIENTED_EDGE('',*,*,#681,.T.);
#681 = EDGE_CURVE('',#406,#682,#684,.T.);
#682 = VERTEX_POINT('',#683);
#683 = CARTESIAN_POINT('',(-1.,-0.615,1.E-02));
#684 = CIRCLE('',#685,1.E-02);
#685 = AXIS2_PLACEMENT_3D('',#686,#687,#688);
#686 = CARTESIAN_POINT('',(-0.99,-0.615,1.E-02));
#687 = DIRECTION('',(-6.123233995737E-17,1.,0.));
#688 = DIRECTION('',(-1.,-6.123233995737E-17,0.));
#689 = ORIENTED_EDGE('',*,*,#690,.T.);
#690 = EDGE_CURVE('',#682,#615,#691,.T.);
#691 = LINE('',#692,#693);
#692 = CARTESIAN_POINT('',(-1.,-0.625,1.E-02));
#693 = VECTOR('',#694,1.);
#694 = DIRECTION('',(0.,1.,0.));
#695 = ORIENTED_EDGE('',*,*,#649,.T.);
#696 = ORIENTED_EDGE('',*,*,#405,.F.);
#697 = CYLINDRICAL_SURFACE('',#698,1.E-02);
#698 = AXIS2_PLACEMENT_3D('',#699,#700,#701);
#699 = CARTESIAN_POINT('',(-0.99,-0.625,1.E-02));
#700 = DIRECTION('',(0.,1.,0.));
#701 = DIRECTION('',(0.,0.,-1.));
#702 = ADVANCED_FACE('',(#703),#722,.T.);
#703 = FACE_BOUND('',#704,.F.);
#704 = EDGE_LOOP('',(#705,#714,#720,#721));
#705 = ORIENTED_EDGE('',*,*,#706,.F.);
#706 = EDGE_CURVE('',#707,#430,#709,.T.);
#707 = VERTEX_POINT('',#708);
#708 = CARTESIAN_POINT('',(-1.,-0.615,1.24));
#709 = CIRCLE('',#710,1.E-02);
#710 = AXIS2_PLACEMENT_3D('',#711,#712,#713);
#711 = CARTESIAN_POINT('',(-0.99,-0.615,1.24));
#712 = DIRECTION('',(0.,1.,0.));
#713 = DIRECTION('',(0.,0.,1.));
#714 = ORIENTED_EDGE('',*,*,#715,.T.);
#715 = EDGE_CURVE('',#707,#624,#716,.T.);
#716 = LINE('',#717,#718);
#717 = CARTESIAN_POINT('',(-1.,-0.625,1.24));
#718 = VECTOR('',#719,1.);
#719 = DIRECTION('',(0.,1.,0.));
#720 = ORIENTED_EDGE('',*,*,#666,.F.);
#721 = ORIENTED_EDGE('',*,*,#429,.F.);
#722 = CYLINDRICAL_SURFACE('',#723,1.E-02);
#723 = AXIS2_PLACEMENT_3D('',#724,#725,#726);
#724 = CARTESIAN_POINT('',(-0.99,-0.625,1.24));
#725 = DIRECTION('',(0.,1.,0.));
#726 = DIRECTION('',(0.,0.,1.));
#727 = ADVANCED_FACE('',(#728),#739,.T.);
#728 = FACE_BOUND('',#729,.F.);
#729 = EDGE_LOOP('',(#730,#731,#732));
#730 = ORIENTED_EDGE('',*,*,#460,.F.);
#731 = ORIENTED_EDGE('',*,*,#681,.T.);
#732 = ORIENTED_EDGE('',*,*,#733,.F.);
#733 = EDGE_CURVE('',#453,#682,#734,.T.);
#734 = CIRCLE('',#735,1.E-02);
#735 = AXIS2_PLACEMENT_3D('',#736,#737,#738);
#736 = CARTESIAN_POINT('',(-0.99,-0.615,1.E-02));
#737 = DIRECTION('',(-0.,-0.,-1.));
#738 = DIRECTION('',(0.,-1.,0.));
#739 = SPHERICAL_SURFACE('',#740,1.E-02);
#740 = AXIS2_PLACEMENT_3D('',#741,#742,#743);
#741 = CARTESIAN_POINT('',(-0.99,-0.615,1.E-02));
#742 = DIRECTION('',(0.,0.,1.));
#743 = DIRECTION('',(0.,-1.,0.));
#744 = ADVANCED_FACE('',(#745),#756,.T.);
#745 = FACE_BOUND('',#746,.T.);
#746 = EDGE_LOOP('',(#747,#748,#755));
#747 = ORIENTED_EDGE('',*,*,#706,.F.);
#748 = ORIENTED_EDGE('',*,*,#749,.T.);
#749 = EDGE_CURVE('',#707,#478,#750,.T.);
#750 = CIRCLE('',#751,1.E-02);
#751 = AXIS2_PLACEMENT_3D('',#752,#753,#754);
#752 = CARTESIAN_POINT('',(-0.99,-0.615,1.24));
#753 = DIRECTION('',(-0.,6.123233995737E-17,1.));
#754 = DIRECTION('',(0.,-1.,6.123233995737E-17));
#755 = ORIENTED_EDGE('',*,*,#485,.F.);
#756 = SPHERICAL_SURFACE('',#757,1.E-02);
#757 = AXIS2_PLACEMENT_3D('',#758,#759,#760);
#758 = CARTESIAN_POINT('',(-0.99,-0.615,1.24));
#759 = DIRECTION('',(1.,0.,0.));
#760 = DIRECTION('',(0.,0.,1.));
#761 = ADVANCED_FACE('',(#762),#773,.T.);
#762 = FACE_BOUND('',#763,.F.);
#763 = EDGE_LOOP('',(#764,#765,#766,#772));
#764 = ORIENTED_EDGE('',*,*,#503,.F.);
#765 = ORIENTED_EDGE('',*,*,#733,.T.);
#766 = ORIENTED_EDGE('',*,*,#767,.T.);
#767 = EDGE_CURVE('',#682,#707,#768,.T.);
#768 = LINE('',#769,#770);
#769 = CARTESIAN_POINT('',(-1.,-0.615,0.));
#770 = VECTOR('',#771,1.);
#771 = DIRECTION('',(0.,0.,1.));
#772 = ORIENTED_EDGE('',*,*,#749,.T.);
#773 = CYLINDRICAL_SURFACE('',#774,1.E-02);
#774 = AXIS2_PLACEMENT_3D('',#775,#776,#777);
#775 = CARTESIAN_POINT('',(-0.99,-0.615,0.));
#776 = DIRECTION('',(0.,0.,1.));
#777 = DIRECTION('',(0.,-1.,0.));
#778 = ADVANCED_FACE('',(#779,#849),#855,.T.);
#779 = FACE_BOUND('',#780,.F.);
#780 = EDGE_LOOP('',(#781,#792,#800,#809,#817,#826,#834,#843));
#781 = ORIENTED_EDGE('',*,*,#782,.F.);
#782 = EDGE_CURVE('',#783,#785,#787,.T.);
#783 = VERTEX_POINT('',#784);
#784 = CARTESIAN_POINT('',(0.5,0.625,1.E-02));
#785 = VERTEX_POINT('',#786);
#786 = CARTESIAN_POINT('',(0.5,0.615,1.092875789865E-16));
#787 = CIRCLE('',#788,1.E-02);
#788 = AXIS2_PLACEMENT_3D('',#789,#790,#791);
#789 = CARTESIAN_POINT('',(0.5,0.615,1.E-02));
#790 = DIRECTION('',(-1.,2.22044604925E-16,-2.22044604925E-16));
#791 = DIRECTION('',(-2.22044604925E-16,2.465190328816E-32,1.));
#792 = ORIENTED_EDGE('',*,*,#793,.T.);
#793 = EDGE_CURVE('',#783,#794,#796,.T.);
#794 = VERTEX_POINT('',#795);
#795 = CARTESIAN_POINT('',(0.5,0.625,1.24));
#796 = LINE('',#797,#798);
#797 = CARTESIAN_POINT('',(0.5,0.625,1.110223024625E-16));
#798 = VECTOR('',#799,1.);
#799 = DIRECTION('',(-2.22044604925E-16,2.465190328816E-32,1.));
#800 = ORIENTED_EDGE('',*,*,#801,.T.);
#801 = EDGE_CURVE('',#794,#802,#804,.T.);
#802 = VERTEX_POINT('',#803);
#803 = CARTESIAN_POINT('',(0.5,0.615,1.25));
#804 = CIRCLE('',#805,1.E-02);
#805 = AXIS2_PLACEMENT_3D('',#806,#807,#808);
#806 = CARTESIAN_POINT('',(0.5,0.615,1.24));
#807 = DIRECTION('',(1.,-2.22044604925E-16,2.22044604925E-16));
#808 = DIRECTION('',(-2.22044604925E-16,2.465190328816E-32,1.));
#809 = ORIENTED_EDGE('',*,*,#810,.T.);
#810 = EDGE_CURVE('',#802,#811,#813,.T.);
#811 = VERTEX_POINT('',#812);
#812 = CARTESIAN_POINT('',(0.5,-0.615,1.25));
#813 = LINE('',#814,#815);
#814 = CARTESIAN_POINT('',(0.5,0.625,1.25));
#815 = VECTOR('',#816,1.);
#816 = DIRECTION('',(-2.22044604925E-16,-1.,-2.465190328816E-32));
#817 = ORIENTED_EDGE('',*,*,#818,.T.);
#818 = EDGE_CURVE('',#811,#819,#821,.T.);
#819 = VERTEX_POINT('',#820);
#820 = CARTESIAN_POINT('',(0.5,-0.625,1.24));
#821 = CIRCLE('',#822,1.E-02);
#822 = AXIS2_PLACEMENT_3D('',#823,#824,#825);
#823 = CARTESIAN_POINT('',(0.5,-0.615,1.24));
#824 = DIRECTION('',(1.,-2.22044604925E-16,2.22044604925E-16));
#825 = DIRECTION('',(2.22044604925E-16,-2.465190328816E-32,-1.));
#826 = ORIENTED_EDGE('',*,*,#827,.F.);
#827 = EDGE_CURVE('',#828,#819,#830,.T.);
#828 = VERTEX_POINT('',#829);
#829 = CARTESIAN_POINT('',(0.5,-0.625,1.E-02));
#830 = LINE('',#831,#832);
#831 = CARTESIAN_POINT('',(0.5,-0.625,1.110223024625E-16));
#832 = VECTOR('',#833,1.);
#833 = DIRECTION('',(-2.22044604925E-16,2.465190328816E-32,1.));
#834 = ORIENTED_EDGE('',*,*,#835,.F.);
#835 = EDGE_CURVE('',#836,#828,#838,.T.);
#836 = VERTEX_POINT('',#837);
#837 = CARTESIAN_POINT('',(0.5,-0.615,1.092875789865E-16));
#838 = CIRCLE('',#839,1.E-02);
#839 = AXIS2_PLACEMENT_3D('',#840,#841,#842);
#840 = CARTESIAN_POINT('',(0.5,-0.615,1.E-02));
#841 = DIRECTION('',(-1.,2.22044604925E-16,-2.22044604925E-16));
#842 = DIRECTION('',(2.22044604925E-16,-2.465190328816E-32,-1.));
#843 = ORIENTED_EDGE('',*,*,#844,.F.);
#844 = EDGE_CURVE('',#785,#836,#845,.T.);
#845 = LINE('',#846,#847);
#846 = CARTESIAN_POINT('',(0.5,0.625,1.110223024625E-16));
#847 = VECTOR('',#848,1.);
#848 = DIRECTION('',(-2.22044604925E-16,-1.,-2.465190328816E-32));
#849 = FACE_BOUND('',#850,.F.);
#850 = EDGE_LOOP('',(#851,#852,#853,#854));
#851 = ORIENTED_EDGE('',*,*,#527,.F.);
#852 = ORIENTED_EDGE('',*,*,#598,.T.);
#853 = ORIENTED_EDGE('',*,*,#573,.T.);
#854 = ORIENTED_EDGE('',*,*,#550,.F.);
#855 = PLANE('',#856);
#856 = AXIS2_PLACEMENT_3D('',#857,#858,#859);
#857 = CARTESIAN_POINT('',(0.5,0.625,1.110223024625E-16));
#858 = DIRECTION('',(-1.,2.22044604925E-16,-2.22044604925E-16));
#859 = DIRECTION('',(2.22044604925E-16,1.,2.465190328816E-32));
#860 = ADVANCED_FACE('',(#861),#867,.T.);
#861 = FACE_BOUND('',#862,.T.);
#862 = EDGE_LOOP('',(#863,#864,#865,#866));
#863 = ORIENTED_EDGE('',*,*,#715,.T.);
#864 = ORIENTED_EDGE('',*,*,#623,.F.);
#865 = ORIENTED_EDGE('',*,*,#690,.F.);
#866 = ORIENTED_EDGE('',*,*,#767,.T.);
#867 = PLANE('',#868);
#868 = AXIS2_PLACEMENT_3D('',#869,#870,#871);
#869 = CARTESIAN_POINT('',(-1.,-0.625,0.));
#870 = DIRECTION('',(-1.,0.,0.));
#871 = DIRECTION('',(0.,1.,0.));
#872 = ADVANCED_FACE('',(#873),#899,.T.);
#873 = FACE_BOUND('',#874,.T.);
#874 = EDGE_LOOP('',(#875,#886,#892,#893));
#875 = ORIENTED_EDGE('',*,*,#876,.T.);
#876 = EDGE_CURVE('',#877,#879,#881,.T.);
#877 = VERTEX_POINT('',#878);
#878 = CARTESIAN_POINT('',(0.99,0.625,1.E-02));
#879 = VERTEX_POINT('',#880);
#880 = CARTESIAN_POINT('',(0.99,0.615,2.180894353998E-16));
#881 = CIRCLE('',#882,1.E-02);
#882 = AXIS2_PLACEMENT_3D('',#883,#884,#885);
#883 = CARTESIAN_POINT('',(0.99,0.615,1.E-02));
#884 = DIRECTION('',(-1.,2.22044604925E-16,-2.832769448824E-16));
#885 = DIRECTION('',(2.832769448824E-16,-3.824821402263E-32,-1.));
#886 = ORIENTED_EDGE('',*,*,#887,.T.);
#887 = EDGE_CURVE('',#879,#785,#888,.T.);
#888 = LINE('',#889,#890);
#889 = CARTESIAN_POINT('',(1.,0.615,2.203098814491E-16));
#890 = VECTOR('',#891,1.);
#891 = DIRECTION('',(-1.,2.22044604925E-16,-2.22044604925E-16));
#892 = ORIENTED_EDGE('',*,*,#782,.F.);
#893 = ORIENTED_EDGE('',*,*,#894,.F.);
#894 = EDGE_CURVE('',#877,#783,#895,.T.);
#895 = LINE('',#896,#897);
#896 = CARTESIAN_POINT('',(1.,0.625,1.E-02));
#897 = VECTOR('',#898,1.);
#898 = DIRECTION('',(-1.,2.22044604925E-16,-2.22044604925E-16));
#899 = CYLINDRICAL_SURFACE('',#900,1.E-02);
#900 = AXIS2_PLACEMENT_3D('',#901,#902,#903);
#901 = CARTESIAN_POINT('',(1.,0.615,1.E-02));
#902 = DIRECTION('',(-1.,2.22044604925E-16,-2.22044604925E-16));
#903 = DIRECTION('',(2.22044604925E-16,1.,2.465190328816E-32));
#904 = ADVANCED_FACE('',(#905),#923,.F.);
#905 = FACE_BOUND('',#906,.T.);
#906 = EDGE_LOOP('',(#907,#908,#909,#917));
#907 = ORIENTED_EDGE('',*,*,#844,.F.);
#908 = ORIENTED_EDGE('',*,*,#887,.F.);
#909 = ORIENTED_EDGE('',*,*,#910,.F.);
#910 = EDGE_CURVE('',#911,#879,#913,.T.);
#911 = VERTEX_POINT('',#912);
#912 = CARTESIAN_POINT('',(0.99,-0.615,2.198241588758E-16));
#913 = LINE('',#914,#915);
#914 = CARTESIAN_POINT('',(0.99,-0.625,2.180894353998E-16));
#915 = VECTOR('',#916,1.);
#916 = DIRECTION('',(2.22044604925E-16,1.,2.465190328816E-32));
#917 = ORIENTED_EDGE('',*,*,#918,.F.);
#918 = EDGE_CURVE('',#836,#911,#919,.T.);
#919 = LINE('',#920,#921);
#920 = CARTESIAN_POINT('',(0.5,-0.615,1.092875789865E-16));
#921 = VECTOR('',#922,1.);
#922 = DIRECTION('',(1.,-2.22044604925E-16,2.22044604925E-16));
#923 = PLANE('',#924);
#924 = AXIS2_PLACEMENT_3D('',#925,#926,#927);
#925 = CARTESIAN_POINT('',(0.75,-1.665334536938E-16,1.665334536938E-16)
  );
#926 = DIRECTION('',(-2.22044604925E-16,2.465190328816E-32,1.));
#927 = DIRECTION('',(1.,-2.22044604925E-16,2.22044604925E-16));
#928 = ADVANCED_FACE('',(#929),#948,.T.);
#929 = FACE_BOUND('',#930,.F.);
#930 = EDGE_LOOP('',(#931,#932,#940,#947));
#931 = ORIENTED_EDGE('',*,*,#835,.T.);
#932 = ORIENTED_EDGE('',*,*,#933,.T.);
#933 = EDGE_CURVE('',#828,#934,#936,.T.);
#934 = VERTEX_POINT('',#935);
#935 = CARTESIAN_POINT('',(0.99,-0.625,1.E-02));
#936 = LINE('',#937,#938);
#937 = CARTESIAN_POINT('',(0.5,-0.625,1.E-02));
#938 = VECTOR('',#939,1.);
#939 = DIRECTION('',(1.,-2.22044604925E-16,2.22044604925E-16));
#940 = ORIENTED_EDGE('',*,*,#941,.F.);
#941 = EDGE_CURVE('',#911,#934,#942,.T.);
#942 = CIRCLE('',#943,1.E-02);
#943 = AXIS2_PLACEMENT_3D('',#944,#945,#946);
#944 = CARTESIAN_POINT('',(0.99,-0.615,1.E-02));
#945 = DIRECTION('',(-1.,2.22044604925E-16,-2.22044604925E-16));
#946 = DIRECTION('',(-2.22044604925E-16,-1.,-2.465190328816E-32));
#947 = ORIENTED_EDGE('',*,*,#918,.F.);
#948 = CYLINDRICAL_SURFACE('',#949,1.E-02);
#949 = AXIS2_PLACEMENT_3D('',#950,#951,#952);
#950 = CARTESIAN_POINT('',(0.5,-0.615,1.E-02));
#951 = DIRECTION('',(1.,-2.22044604925E-16,2.22044604925E-16));
#952 = DIRECTION('',(2.22044604925E-16,-2.465190328816E-32,-1.));
#953 = ADVANCED_FACE('',(#954),#972,.T.);
#954 = FACE_BOUND('',#955,.F.);
#955 = EDGE_LOOP('',(#956,#957,#958,#966));
#956 = ORIENTED_EDGE('',*,*,#933,.F.);
#957 = ORIENTED_EDGE('',*,*,#827,.T.);
#958 = ORIENTED_EDGE('',*,*,#959,.T.);
#959 = EDGE_CURVE('',#819,#960,#962,.T.);
#960 = VERTEX_POINT('',#961);
#961 = CARTESIAN_POINT('',(0.99,-0.625,1.24));
#962 = LINE('',#963,#964);
#963 = CARTESIAN_POINT('',(0.5,-0.625,1.24));
#964 = VECTOR('',#965,1.);
#965 = DIRECTION('',(1.,-2.22044604925E-16,2.22044604925E-16));
#966 = ORIENTED_EDGE('',*,*,#967,.F.);
#967 = EDGE_CURVE('',#934,#960,#968,.T.);
#968 = LINE('',#969,#970);
#969 = CARTESIAN_POINT('',(0.99,-0.625,2.198241588758E-16));
#970 = VECTOR('',#971,1.);
#971 = DIRECTION('',(-2.22044604925E-16,2.465190328816E-32,1.));
#972 = PLANE('',#973);
#973 = AXIS2_PLACEMENT_3D('',#974,#975,#976);
#974 = CARTESIAN_POINT('',(0.5,-0.625,1.110223024625E-16));
#975 = DIRECTION('',(-2.22044604925E-16,-1.,-2.465190328816E-32));
#976 = DIRECTION('',(-1.,2.22044604925E-16,-2.22044604925E-16));
#977 = ADVANCED_FACE('',(#978),#997,.T.);
#978 = FACE_BOUND('',#979,.T.);
#979 = EDGE_LOOP('',(#980,#981,#982,#991));
#980 = ORIENTED_EDGE('',*,*,#818,.T.);
#981 = ORIENTED_EDGE('',*,*,#959,.T.);
#982 = ORIENTED_EDGE('',*,*,#983,.F.);
#983 = EDGE_CURVE('',#984,#960,#986,.T.);
#984 = VERTEX_POINT('',#985);
#985 = CARTESIAN_POINT('',(0.99,-0.615,1.25));
#986 = CIRCLE('',#987,1.E-02);
#987 = AXIS2_PLACEMENT_3D('',#988,#989,#990);
#988 = CARTESIAN_POINT('',(0.99,-0.615,1.24));
#989 = DIRECTION('',(1.,-2.22044604925E-16,2.22044604925E-16));
#990 = DIRECTION('',(-2.22044604925E-16,2.465190328816E-32,1.));
#991 = ORIENTED_EDGE('',*,*,#992,.F.);
#992 = EDGE_CURVE('',#811,#984,#993,.T.);
#993 = LINE('',#994,#995);
#994 = CARTESIAN_POINT('',(0.5,-0.615,1.25));
#995 = VECTOR('',#996,1.);
#996 = DIRECTION('',(1.,-2.22044604925E-16,2.22044604925E-16));
#997 = CYLINDRICAL_SURFACE('',#998,1.E-02);
#998 = AXIS2_PLACEMENT_3D('',#999,#1000,#1001);
#999 = CARTESIAN_POINT('',(0.5,-0.615,1.24));
#1000 = DIRECTION('',(1.,-2.22044604925E-16,2.22044604925E-16));
#1001 = DIRECTION('',(-2.22044604925E-16,2.465190328816E-32,1.));
#1002 = ADVANCED_FACE('',(#1003),#1021,.T.);
#1003 = FACE_BOUND('',#1004,.F.);
#1004 = EDGE_LOOP('',(#1005,#1006,#1014,#1020));
#1005 = ORIENTED_EDGE('',*,*,#810,.F.);
#1006 = ORIENTED_EDGE('',*,*,#1007,.F.);
#1007 = EDGE_CURVE('',#1008,#802,#1010,.T.);
#1008 = VERTEX_POINT('',#1009);
#1009 = CARTESIAN_POINT('',(0.99,0.615,1.25));
#1010 = LINE('',#1011,#1012);
#1011 = CARTESIAN_POINT('',(1.,0.615,1.25));
#1012 = VECTOR('',#1013,1.);
#1013 = DIRECTION('',(-1.,2.22044604925E-16,-2.22044604925E-16));
#1014 = ORIENTED_EDGE('',*,*,#1015,.F.);
#1015 = EDGE_CURVE('',#984,#1008,#1016,.T.);
#1016 = LINE('',#1017,#1018);
#1017 = CARTESIAN_POINT('',(0.99,-0.625,1.25));
#1018 = VECTOR('',#1019,1.);
#1019 = DIRECTION('',(2.22044604925E-16,1.,2.465190328816E-32));
#1020 = ORIENTED_EDGE('',*,*,#992,.F.);
#1021 = PLANE('',#1022);
#1022 = AXIS2_PLACEMENT_3D('',#1023,#1024,#1025);
#1023 = CARTESIAN_POINT('',(0.75,-1.665334536938E-16,1.25));
#1024 = DIRECTION('',(-2.22044604925E-16,2.465190328816E-32,1.));
#1025 = DIRECTION('',(1.,-2.22044604925E-16,2.22044604925E-16));
#1026 = ADVANCED_FACE('',(#1027),#1046,.T.);
#1027 = FACE_BOUND('',#1028,.F.);
#1028 = EDGE_LOOP('',(#1029,#1038,#1039,#1040));
#1029 = ORIENTED_EDGE('',*,*,#1030,.T.);
#1030 = EDGE_CURVE('',#1031,#1008,#1033,.T.);
#1031 = VERTEX_POINT('',#1032);
#1032 = CARTESIAN_POINT('',(0.99,0.625,1.24));
#1033 = CIRCLE('',#1034,1.E-02);
#1034 = AXIS2_PLACEMENT_3D('',#1035,#1036,#1037);
#1035 = CARTESIAN_POINT('',(0.99,0.615,1.24));
#1036 = DIRECTION('',(1.,-2.22044604925E-16,2.22044604925E-16));
#1037 = DIRECTION('',(-2.22044604925E-16,2.465190328816E-32,1.));
#1038 = ORIENTED_EDGE('',*,*,#1007,.T.);
#1039 = ORIENTED_EDGE('',*,*,#801,.F.);
#1040 = ORIENTED_EDGE('',*,*,#1041,.F.);
#1041 = EDGE_CURVE('',#1031,#794,#1042,.T.);
#1042 = LINE('',#1043,#1044);
#1043 = CARTESIAN_POINT('',(1.,0.625,1.24));
#1044 = VECTOR('',#1045,1.);
#1045 = DIRECTION('',(-1.,2.22044604925E-16,-2.22044604925E-16));
#1046 = CYLINDRICAL_SURFACE('',#1047,1.E-02);
#1047 = AXIS2_PLACEMENT_3D('',#1048,#1049,#1050);
#1048 = CARTESIAN_POINT('',(1.,0.615,1.24));
#1049 = DIRECTION('',(-1.,2.22044604925E-16,-2.22044604925E-16));
#1050 = DIRECTION('',(2.22044604925E-16,1.,2.465190328816E-32));
#1051 = ADVANCED_FACE('',(#1052),#1063,.T.);
#1052 = FACE_BOUND('',#1053,.F.);
#1053 = EDGE_LOOP('',(#1054,#1055,#1056,#1062));
#1054 = ORIENTED_EDGE('',*,*,#793,.F.);
#1055 = ORIENTED_EDGE('',*,*,#894,.F.);
#1056 = ORIENTED_EDGE('',*,*,#1057,.T.);
#1057 = EDGE_CURVE('',#877,#1031,#1058,.T.);
#1058 = LINE('',#1059,#1060);
#1059 = CARTESIAN_POINT('',(0.99,0.625,2.198241588758E-16));
#1060 = VECTOR('',#1061,1.);
#1061 = DIRECTION('',(-2.22044604925E-16,2.465190328816E-32,1.));
#1062 = ORIENTED_EDGE('',*,*,#1041,.T.);
#1063 = PLANE('',#1064);
#1064 = AXIS2_PLACEMENT_3D('',#1065,#1066,#1067);
#1065 = CARTESIAN_POINT('',(1.,0.625,2.22044604925E-16));
#1066 = DIRECTION('',(2.22044604925E-16,1.,2.465190328816E-32));
#1067 = DIRECTION('',(1.,-2.22044604925E-16,2.22044604925E-16));
#1068 = ADVANCED_FACE('',(#1069),#1088,.T.);
#1069 = FACE_BOUND('',#1070,.F.);
#1070 = EDGE_LOOP('',(#1071,#1080,#1081));
#1071 = ORIENTED_EDGE('',*,*,#1072,.F.);
#1072 = EDGE_CURVE('',#877,#1073,#1075,.T.);
#1073 = VERTEX_POINT('',#1074);
#1074 = CARTESIAN_POINT('',(1.,0.615,1.E-02));
#1075 = CIRCLE('',#1076,1.E-02);
#1076 = AXIS2_PLACEMENT_3D('',#1077,#1078,#1079);
#1077 = CARTESIAN_POINT('',(0.99,0.615,1.E-02));
#1078 = DIRECTION('',(2.22044604925E-16,-2.465190328816E-32,-1.));
#1079 = DIRECTION('',(1.,-2.22044604925E-16,2.22044604925E-16));
#1080 = ORIENTED_EDGE('',*,*,#876,.T.);
#1081 = ORIENTED_EDGE('',*,*,#1082,.F.);
#1082 = EDGE_CURVE('',#1073,#879,#1083,.T.);
#1083 = CIRCLE('',#1084,1.E-02);
#1084 = AXIS2_PLACEMENT_3D('',#1085,#1086,#1087);
#1085 = CARTESIAN_POINT('',(0.99,0.615,1.E-02));
#1086 = DIRECTION('',(2.22044604925E-16,1.,2.465190328816E-32));
#1087 = DIRECTION('',(1.,-2.22044604925E-16,2.22044604925E-16));
#1088 = SPHERICAL_SURFACE('',#1089,1.E-02);
#1089 = AXIS2_PLACEMENT_3D('',#1090,#1091,#1092);
#1090 = CARTESIAN_POINT('',(0.99,0.615,1.E-02));
#1091 = DIRECTION('',(-2.22044604925E-16,-1.,-2.465190328816E-32));
#1092 = DIRECTION('',(1.,-2.22044604925E-16,2.22044604925E-16));
#1093 = ADVANCED_FACE('',(#1094),#1113,.T.);
#1094 = FACE_BOUND('',#1095,.F.);
#1095 = EDGE_LOOP('',(#1096,#1105,#1111,#1112));
#1096 = ORIENTED_EDGE('',*,*,#1097,.T.);
#1097 = EDGE_CURVE('',#911,#1098,#1100,.T.);
#1098 = VERTEX_POINT('',#1099);
#1099 = CARTESIAN_POINT('',(1.,-0.615,1.E-02));
#1100 = CIRCLE('',#1101,1.E-02);
#1101 = AXIS2_PLACEMENT_3D('',#1102,#1103,#1104);
#1102 = CARTESIAN_POINT('',(0.99,-0.615,1.E-02));
#1103 = DIRECTION('',(-2.832769448824E-16,-1.,-3.824821402263E-32));
#1104 = DIRECTION('',(1.,-2.832769448824E-16,2.22044604925E-16));
#1105 = ORIENTED_EDGE('',*,*,#1106,.T.);
#1106 = EDGE_CURVE('',#1098,#1073,#1107,.T.);
#1107 = LINE('',#1108,#1109);
#1108 = CARTESIAN_POINT('',(1.,-0.625,1.E-02));
#1109 = VECTOR('',#1110,1.);
#1110 = DIRECTION('',(2.22044604925E-16,1.,2.465190328816E-32));
#1111 = ORIENTED_EDGE('',*,*,#1082,.T.);
#1112 = ORIENTED_EDGE('',*,*,#910,.F.);
#1113 = CYLINDRICAL_SURFACE('',#1114,1.E-02);
#1114 = AXIS2_PLACEMENT_3D('',#1115,#1116,#1117);
#1115 = CARTESIAN_POINT('',(0.99,-0.625,1.E-02));
#1116 = DIRECTION('',(2.22044604925E-16,1.,2.465190328816E-32));
#1117 = DIRECTION('',(2.22044604925E-16,-2.465190328816E-32,-1.));
#1118 = ADVANCED_FACE('',(#1119),#1130,.T.);
#1119 = FACE_BOUND('',#1120,.T.);
#1120 = EDGE_LOOP('',(#1121,#1122,#1123));
#1121 = ORIENTED_EDGE('',*,*,#941,.F.);
#1122 = ORIENTED_EDGE('',*,*,#1097,.T.);
#1123 = ORIENTED_EDGE('',*,*,#1124,.F.);
#1124 = EDGE_CURVE('',#934,#1098,#1125,.T.);
#1125 = CIRCLE('',#1126,1.E-02);
#1126 = AXIS2_PLACEMENT_3D('',#1127,#1128,#1129);
#1127 = CARTESIAN_POINT('',(0.99,-0.615,1.E-02));
#1128 = DIRECTION('',(-2.22044604925E-16,2.465190328816E-32,1.));
#1129 = DIRECTION('',(-2.22044604925E-16,-1.,-2.465190328816E-32));
#1130 = SPHERICAL_SURFACE('',#1131,1.E-02);
#1131 = AXIS2_PLACEMENT_3D('',#1132,#1133,#1134);
#1132 = CARTESIAN_POINT('',(0.99,-0.615,1.E-02));
#1133 = DIRECTION('',(-2.22044604925E-16,2.465190328816E-32,1.));
#1134 = DIRECTION('',(-2.22044604925E-16,-1.,-2.465190328816E-32));
#1135 = ADVANCED_FACE('',(#1136),#1155,.T.);
#1136 = FACE_BOUND('',#1137,.T.);
#1137 = EDGE_LOOP('',(#1138,#1139,#1140,#1148));
#1138 = ORIENTED_EDGE('',*,*,#967,.F.);
#1139 = ORIENTED_EDGE('',*,*,#1124,.T.);
#1140 = ORIENTED_EDGE('',*,*,#1141,.T.);
#1141 = EDGE_CURVE('',#1098,#1142,#1144,.T.);
#1142 = VERTEX_POINT('',#1143);
#1143 = CARTESIAN_POINT('',(1.,-0.615,1.24));
#1144 = LINE('',#1145,#1146);
#1145 = CARTESIAN_POINT('',(1.,-0.615,2.22044604925E-16));
#1146 = VECTOR('',#1147,1.);
#1147 = DIRECTION('',(-2.22044604925E-16,2.465190328816E-32,1.));
#1148 = ORIENTED_EDGE('',*,*,#1149,.T.);
#1149 = EDGE_CURVE('',#1142,#960,#1150,.T.);
#1150 = CIRCLE('',#1151,1.E-02);
#1151 = AXIS2_PLACEMENT_3D('',#1152,#1153,#1154);
#1152 = CARTESIAN_POINT('',(0.99,-0.615,1.24));
#1153 = DIRECTION('',(2.22044604925E-16,-6.123233995737E-17,-1.));
#1154 = DIRECTION('',(-2.22044604925E-16,-1.,6.123233995737E-17));
#1155 = CYLINDRICAL_SURFACE('',#1156,1.E-02);
#1156 = AXIS2_PLACEMENT_3D('',#1157,#1158,#1159);
#1157 = CARTESIAN_POINT('',(0.99,-0.615,2.198241588758E-16));
#1158 = DIRECTION('',(-2.22044604925E-16,2.465190328816E-32,1.));
#1159 = DIRECTION('',(-2.22044604925E-16,-1.,-2.465190328816E-32));
#1160 = ADVANCED_FACE('',(#1161),#1172,.T.);
#1161 = FACE_BOUND('',#1162,.F.);
#1162 = EDGE_LOOP('',(#1163,#1170,#1171));
#1163 = ORIENTED_EDGE('',*,*,#1164,.F.);
#1164 = EDGE_CURVE('',#1142,#984,#1165,.T.);
#1165 = CIRCLE('',#1166,1.E-02);
#1166 = AXIS2_PLACEMENT_3D('',#1167,#1168,#1169);
#1167 = CARTESIAN_POINT('',(0.99,-0.615,1.24));
#1168 = DIRECTION('',(-2.22044604925E-16,-1.,-2.465190328816E-32));
#1169 = DIRECTION('',(-2.22044604925E-16,2.465190328816E-32,1.));
#1170 = ORIENTED_EDGE('',*,*,#1149,.T.);
#1171 = ORIENTED_EDGE('',*,*,#983,.F.);
#1172 = SPHERICAL_SURFACE('',#1173,1.E-02);
#1173 = AXIS2_PLACEMENT_3D('',#1174,#1175,#1176);
#1174 = CARTESIAN_POINT('',(0.99,-0.615,1.24));
#1175 = DIRECTION('',(-1.,2.22044604925E-16,-2.22044604925E-16));
#1176 = DIRECTION('',(-2.22044604925E-16,2.465190328816E-32,1.));
#1177 = ADVANCED_FACE('',(#1178),#1197,.T.);
#1178 = FACE_BOUND('',#1179,.T.);
#1179 = EDGE_LOOP('',(#1180,#1181,#1189,#1196));
#1180 = ORIENTED_EDGE('',*,*,#1164,.F.);
#1181 = ORIENTED_EDGE('',*,*,#1182,.T.);
#1182 = EDGE_CURVE('',#1142,#1183,#1185,.T.);
#1183 = VERTEX_POINT('',#1184);
#1184 = CARTESIAN_POINT('',(1.,0.615,1.24));
#1185 = LINE('',#1186,#1187);
#1186 = CARTESIAN_POINT('',(1.,-0.625,1.24));
#1187 = VECTOR('',#1188,1.);
#1188 = DIRECTION('',(2.22044604925E-16,1.,2.465190328816E-32));
#1189 = ORIENTED_EDGE('',*,*,#1190,.F.);
#1190 = EDGE_CURVE('',#1008,#1183,#1191,.T.);
#1191 = CIRCLE('',#1192,1.E-02);
#1192 = AXIS2_PLACEMENT_3D('',#1193,#1194,#1195);
#1193 = CARTESIAN_POINT('',(0.99,0.615,1.24));
#1194 = DIRECTION('',(2.22044604925E-16,1.,2.465190328816E-32));
#1195 = DIRECTION('',(-2.22044604925E-16,2.465190328816E-32,1.));
#1196 = ORIENTED_EDGE('',*,*,#1015,.F.);
#1197 = CYLINDRICAL_SURFACE('',#1198,1.E-02);
#1198 = AXIS2_PLACEMENT_3D('',#1199,#1200,#1201);
#1199 = CARTESIAN_POINT('',(0.99,-0.625,1.24));
#1200 = DIRECTION('',(2.22044604925E-16,1.,2.465190328816E-32));
#1201 = DIRECTION('',(-2.22044604925E-16,2.465190328816E-32,1.));
#1202 = ADVANCED_FACE('',(#1203),#1214,.T.);
#1203 = FACE_BOUND('',#1204,.F.);
#1204 = EDGE_LOOP('',(#1205,#1206,#1213));
#1205 = ORIENTED_EDGE('',*,*,#1030,.F.);
#1206 = ORIENTED_EDGE('',*,*,#1207,.T.);
#1207 = EDGE_CURVE('',#1031,#1183,#1208,.T.);
#1208 = CIRCLE('',#1209,1.E-02);
#1209 = AXIS2_PLACEMENT_3D('',#1210,#1211,#1212);
#1210 = CARTESIAN_POINT('',(0.99,0.615,1.24));
#1211 = DIRECTION('',(2.832769448824E-16,-3.824821402263E-32,-1.));
#1212 = DIRECTION('',(1.,-2.22044604925E-16,2.832769448824E-16));
#1213 = ORIENTED_EDGE('',*,*,#1190,.F.);
#1214 = SPHERICAL_SURFACE('',#1215,1.E-02);
#1215 = AXIS2_PLACEMENT_3D('',#1216,#1217,#1218);
#1216 = CARTESIAN_POINT('',(0.99,0.615,1.24));
#1217 = DIRECTION('',(-2.22044604925E-16,-1.,-2.465190328816E-32));
#1218 = DIRECTION('',(-2.22044604925E-16,2.465190328816E-32,1.));
#1219 = ADVANCED_FACE('',(#1220),#1231,.T.);
#1220 = FACE_BOUND('',#1221,.F.);
#1221 = EDGE_LOOP('',(#1222,#1223,#1229,#1230));
#1222 = ORIENTED_EDGE('',*,*,#1072,.T.);
#1223 = ORIENTED_EDGE('',*,*,#1224,.T.);
#1224 = EDGE_CURVE('',#1073,#1183,#1225,.T.);
#1225 = LINE('',#1226,#1227);
#1226 = CARTESIAN_POINT('',(1.,0.615,2.22044604925E-16));
#1227 = VECTOR('',#1228,1.);
#1228 = DIRECTION('',(-2.22044604925E-16,2.465190328816E-32,1.));
#1229 = ORIENTED_EDGE('',*,*,#1207,.F.);
#1230 = ORIENTED_EDGE('',*,*,#1057,.F.);
#1231 = CYLINDRICAL_SURFACE('',#1232,1.E-02);
#1232 = AXIS2_PLACEMENT_3D('',#1233,#1234,#1235);
#1233 = CARTESIAN_POINT('',(0.99,0.615,2.198241588758E-16));
#1234 = DIRECTION('',(-2.22044604925E-16,2.465190328816E-32,1.));
#1235 = DIRECTION('',(2.22044604925E-16,1.,2.465190328816E-32));
#1236 = ADVANCED_FACE('',(#1237),#1243,.T.);
#1237 = FACE_BOUND('',#1238,.F.);
#1238 = EDGE_LOOP('',(#1239,#1240,#1241,#1242));
#1239 = ORIENTED_EDGE('',*,*,#1106,.F.);
#1240 = ORIENTED_EDGE('',*,*,#1141,.T.);
#1241 = ORIENTED_EDGE('',*,*,#1182,.T.);
#1242 = ORIENTED_EDGE('',*,*,#1224,.F.);
#1243 = PLANE('',#1244);
#1244 = AXIS2_PLACEMENT_3D('',#1245,#1246,#1247);
#1245 = CARTESIAN_POINT('',(1.,-0.625,2.22044604925E-16));
#1246 = DIRECTION('',(1.,-2.22044604925E-16,2.22044604925E-16));
#1247 = DIRECTION('',(-2.22044604925E-16,-1.,-2.465190328816E-32));
#1248 = ( GEOMETRIC_REPRESENTATION_CONTEXT(3) 
GLOBAL_UNCERTAINTY_ASSIGNED_CONTEXT((#1252)) 
GLOBAL_UNIT_ASSIGNED_CONTEXT((#1249,#1250,#1251)) REPRESENTATION_CONTEXT
('Context #1','3D Context with UNIT and UNCERTAINTY') );
#1249 = ( LENGTH_UNIT() NAMED_UNIT(*) SI_UNIT(.MILLI.,.METRE.) );
#1250 = ( NAMED_UNIT(*) PLANE_ANGLE_UNIT() SI_UNIT($,.RADIAN.) );
#1251 = ( NAMED_UNIT(*) SI_UNIT($,.STERADIAN.) SOLID_ANGLE_UNIT() );
#1252 = UNCERTAINTY_MEASURE_WITH_UNIT(LENGTH_MEASURE(1.E-07),#1249,
  'distance_accuracy_value','confusion accuracy');
#1253 = CONTEXT_DEPENDENT_SHAPE_REPRESENTATION(#1254,#1256);
#1254 = ( REPRESENTATION_RELATIONSHIP('','',#205,#10) 
REPRESENTATION_RELATIONSHIP_WITH_TRANSFORMATION(#1255) 
SHAPE_REPRESENTATION_RELATIONSHIP() );
#1255 = ITEM_DEFINED_TRANSFORMATION('','',#11,#19);
#1256 = PRODUCT_DEFINITION_SHAPE('Placement','Placement of an item',
  #1257);
#1257 = NEXT_ASSEMBLY_USAGE_OCCURRENCE('950','CapacitorContacts','',#5,
  #200,$);
#1258 = PRODUCT_RELATED_PRODUCT_CATEGORY('part',$,(#202));
#1259 = MECHANICAL_DESIGN_GEOMETRIC_PRESENTATION_REPRESENTATION('',(
    #1260),#187);
#1260 = STYLED_ITEM('color',(#1261),#37);
#1261 = PRESENTATION_STYLE_ASSIGNMENT((#1262,#1268));
#1262 = SURFACE_STYLE_USAGE(.BOTH.,#1263);
#1263 = SURFACE_SIDE_STYLE('',(#1264));
#1264 = SURFACE_STYLE_FILL_AREA(#1265);
#1265 = FILL_AREA_STYLE('',(#1266));
#1266 = FILL_AREA_STYLE_COLOUR('',#1267);
#1267 = COLOUR_RGB('',0.380392165758,0.270588249277,0.215686275495);
#1268 = CURVE_STYLE('',#1269,POSITIVE_LENGTH_MEASURE(0.1),#1270);
#1269 = DRAUGHTING_PRE_DEFINED_CURVE_FONT('continuous');
#1270 = COLOUR_RGB('',9.803921802644E-02,9.803921802644E-02,
  9.803921802644E-02);
#1271 = MECHANICAL_DESIGN_GEOMETRIC_PRESENTATION_REPRESENTATION('',(
    #1272),#1248);
#1272 = STYLED_ITEM('color',(#1273),#206);
#1273 = PRESENTATION_STYLE_ASSIGNMENT((#1274,#1280));
#1274 = SURFACE_STYLE_USAGE(.BOTH.,#1275);
#1275 = SURFACE_SIDE_STYLE('',(#1276));
#1276 = SURFACE_STYLE_FILL_AREA(#1277);
#1277 = FILL_AREA_STYLE('',(#1278));
#1278 = FILL_AREA_STYLE_COLOUR('',#1279);
#1279 = COLOUR_RGB('',0.733333345324,0.733333345324,0.733333345324);
#1280 = CURVE_STYLE('',#1281,POSITIVE_LENGTH_MEASURE(0.1),#1270);
#1281 = DRAUGHTING_PRE_DEFINED_CURVE_FONT('continuous');
ENDSEC;
END-ISO-10303-21;
