ISO-10303-21;
HEADER;
FILE_DESCRIPTION(('FreeCAD Model'),'2;1');
FILE_NAME('Open CASCADE Shape Model','2025-06-10T14:36:14',(''),(''),
  'Open CASCADE STEP processor 7.8','FreeCAD','Unknown');
FILE_SCHEMA(('AUTOMOTIVE_DESIGN { 1 0 10303 214 1 1 1 1 }'));
ENDSEC;
DATA;
#1 = APPLICATION_PROTOCOL_DEFINITION('international standard',
  'automotive_design',2000,#2);
#2 = APPLICATION_CONTEXT(
  'core data for automotive mechanical design processes');
#3 = SHAPE_DEFINITION_REPRESENTATION(#4,#10);
#4 = PRODUCT_DEFINITION_SHAPE('','',#5);
#5 = PRODUCT_DEFINITION('design','',#6,#9);
#6 = PRODUCT_DEFINITION_FORMATION('','',#7);
#7 = PRODUCT('resc','resc','',(#8));
#8 = PRODUCT_CONTEXT('',#2,'mechanical');
#9 = PRODUCT_DEFINITION_CONTEXT('part definition',#2,'design');
#10 = SHAPE_REPRESENTATION('',(#11,#15,#19,#23),#27);
#11 = AXIS2_PLACEMENT_3D('',#12,#13,#14);
#12 = CARTESIAN_POINT('',(0.,0.,0.));
#13 = DIRECTION('',(0.,0.,1.));
#14 = DIRECTION('',(1.,0.,-0.));
#15 = AXIS2_PLACEMENT_3D('',#16,#17,#18);
#16 = CARTESIAN_POINT('',(0.,0.,0.));
#17 = DIRECTION('',(0.,0.,1.));
#18 = DIRECTION('',(1.,0.,0.));
#19 = AXIS2_PLACEMENT_3D('',#20,#21,#22);
#20 = CARTESIAN_POINT('',(0.,0.,0.));
#21 = DIRECTION('',(0.,0.,1.));
#22 = DIRECTION('',(1.,0.,0.));
#23 = AXIS2_PLACEMENT_3D('',#24,#25,#26);
#24 = CARTESIAN_POINT('',(0.,0.,0.));
#25 = DIRECTION('',(0.,0.,1.));
#26 = DIRECTION('',(1.,0.,0.));
#27 = ( GEOMETRIC_REPRESENTATION_CONTEXT(3) 
GLOBAL_UNCERTAINTY_ASSIGNED_CONTEXT((#31)) GLOBAL_UNIT_ASSIGNED_CONTEXT(
(#28,#29,#30)) REPRESENTATION_CONTEXT('Context #1',
  '3D Context with UNIT and UNCERTAINTY') );
#28 = ( LENGTH_UNIT() NAMED_UNIT(*) SI_UNIT(.MILLI.,.METRE.) );
#29 = ( NAMED_UNIT(*) PLANE_ANGLE_UNIT() SI_UNIT($,.RADIAN.) );
#30 = ( NAMED_UNIT(*) SI_UNIT($,.STERADIAN.) SOLID_ANGLE_UNIT() );
#31 = UNCERTAINTY_MEASURE_WITH_UNIT(LENGTH_MEASURE(1.E-07),#28,
  'distance_accuracy_value','confusion accuracy');
#32 = PRODUCT_RELATED_PRODUCT_CATEGORY('part',$,(#7));
#33 = SHAPE_DEFINITION_REPRESENTATION(#34,#40);
#34 = PRODUCT_DEFINITION_SHAPE('','',#35);
#35 = PRODUCT_DEFINITION('design','',#36,#39);
#36 = PRODUCT_DEFINITION_FORMATION('','',#37);
#37 = PRODUCT('ResistorMainBody','ResistorMainBody','',(#38));
#38 = PRODUCT_CONTEXT('',#2,'mechanical');
#39 = PRODUCT_DEFINITION_CONTEXT('part definition',#2,'design');
#40 = ADVANCED_BREP_SHAPE_REPRESENTATION('',(#11,#41),#323);
#41 = MANIFOLD_SOLID_BREP('',#42);
#42 = CLOSED_SHELL('',(#43,#115,#146,#170,#194,#218,#242,#266,#290,#307)
  );
#43 = ADVANCED_FACE('',(#44),#110,.T.);
#44 = FACE_BOUND('',#45,.T.);
#45 = EDGE_LOOP('',(#46,#56,#64,#72,#80,#88,#96,#104));
#46 = ORIENTED_EDGE('',*,*,#47,.F.);
#47 = EDGE_CURVE('',#48,#50,#52,.T.);
#48 = VERTEX_POINT('',#49);
#49 = CARTESIAN_POINT('',(-0.475,0.25,2.5E-02));
#50 = VERTEX_POINT('',#51);
#51 = CARTESIAN_POINT('',(0.475,0.25,2.5E-02));
#52 = LINE('',#53,#54);
#53 = CARTESIAN_POINT('',(-0.475,0.25,2.5E-02));
#54 = VECTOR('',#55,1.);
#55 = DIRECTION('',(1.,0.,0.));
#56 = ORIENTED_EDGE('',*,*,#57,.T.);
#57 = EDGE_CURVE('',#48,#58,#60,.T.);
#58 = VERTEX_POINT('',#59);
#59 = CARTESIAN_POINT('',(-0.475,0.25,0.325));
#60 = LINE('',#61,#62);
#61 = CARTESIAN_POINT('',(-0.475,0.25,2.5E-02));
#62 = VECTOR('',#63,1.);
#63 = DIRECTION('',(0.,0.,1.));
#64 = ORIENTED_EDGE('',*,*,#65,.T.);
#65 = EDGE_CURVE('',#58,#66,#68,.T.);
#66 = VERTEX_POINT('',#67);
#67 = CARTESIAN_POINT('',(-0.375,0.25,0.325));
#68 = LINE('',#69,#70);
#69 = CARTESIAN_POINT('',(-0.475,0.25,0.325));
#70 = VECTOR('',#71,1.);
#71 = DIRECTION('',(1.,0.,0.));
#72 = ORIENTED_EDGE('',*,*,#73,.T.);
#73 = EDGE_CURVE('',#66,#74,#76,.T.);
#74 = VERTEX_POINT('',#75);
#75 = CARTESIAN_POINT('',(-0.375,0.25,0.295));
#76 = LINE('',#77,#78);
#77 = CARTESIAN_POINT('',(-0.375,0.25,0.325));
#78 = VECTOR('',#79,1.);
#79 = DIRECTION('',(-0.,-0.,-1.));
#80 = ORIENTED_EDGE('',*,*,#81,.T.);
#81 = EDGE_CURVE('',#74,#82,#84,.T.);
#82 = VERTEX_POINT('',#83);
#83 = CARTESIAN_POINT('',(0.375,0.25,0.295));
#84 = LINE('',#85,#86);
#85 = CARTESIAN_POINT('',(-0.375,0.25,0.295));
#86 = VECTOR('',#87,1.);
#87 = DIRECTION('',(1.,0.,0.));
#88 = ORIENTED_EDGE('',*,*,#89,.F.);
#89 = EDGE_CURVE('',#90,#82,#92,.T.);
#90 = VERTEX_POINT('',#91);
#91 = CARTESIAN_POINT('',(0.375,0.25,0.325));
#92 = LINE('',#93,#94);
#93 = CARTESIAN_POINT('',(0.375,0.25,0.325));
#94 = VECTOR('',#95,1.);
#95 = DIRECTION('',(-0.,-0.,-1.));
#96 = ORIENTED_EDGE('',*,*,#97,.T.);
#97 = EDGE_CURVE('',#90,#98,#100,.T.);
#98 = VERTEX_POINT('',#99);
#99 = CARTESIAN_POINT('',(0.475,0.25,0.325));
#100 = LINE('',#101,#102);
#101 = CARTESIAN_POINT('',(-0.475,0.25,0.325));
#102 = VECTOR('',#103,1.);
#103 = DIRECTION('',(1.,0.,0.));
#104 = ORIENTED_EDGE('',*,*,#105,.F.);
#105 = EDGE_CURVE('',#50,#98,#106,.T.);
#106 = LINE('',#107,#108);
#107 = CARTESIAN_POINT('',(0.475,0.25,2.5E-02));
#108 = VECTOR('',#109,1.);
#109 = DIRECTION('',(0.,0.,1.));
#110 = PLANE('',#111);
#111 = AXIS2_PLACEMENT_3D('',#112,#113,#114);
#112 = CARTESIAN_POINT('',(-0.475,0.25,2.5E-02));
#113 = DIRECTION('',(0.,1.,0.));
#114 = DIRECTION('',(1.,0.,0.));
#115 = ADVANCED_FACE('',(#116),#141,.F.);
#116 = FACE_BOUND('',#117,.T.);
#117 = EDGE_LOOP('',(#118,#119,#127,#135));
#118 = ORIENTED_EDGE('',*,*,#47,.T.);
#119 = ORIENTED_EDGE('',*,*,#120,.T.);
#120 = EDGE_CURVE('',#50,#121,#123,.T.);
#121 = VERTEX_POINT('',#122);
#122 = CARTESIAN_POINT('',(0.475,-0.25,2.5E-02));
#123 = LINE('',#124,#125);
#124 = CARTESIAN_POINT('',(0.475,0.25,2.5E-02));
#125 = VECTOR('',#126,1.);
#126 = DIRECTION('',(0.,-1.,0.));
#127 = ORIENTED_EDGE('',*,*,#128,.T.);
#128 = EDGE_CURVE('',#121,#129,#131,.T.);
#129 = VERTEX_POINT('',#130);
#130 = CARTESIAN_POINT('',(-0.475,-0.25,2.5E-02));
#131 = LINE('',#132,#133);
#132 = CARTESIAN_POINT('',(0.475,-0.25,2.5E-02));
#133 = VECTOR('',#134,1.);
#134 = DIRECTION('',(-1.,0.,0.));
#135 = ORIENTED_EDGE('',*,*,#136,.T.);
#136 = EDGE_CURVE('',#129,#48,#137,.T.);
#137 = LINE('',#138,#139);
#138 = CARTESIAN_POINT('',(-0.475,-0.25,2.5E-02));
#139 = VECTOR('',#140,1.);
#140 = DIRECTION('',(0.,1.,0.));
#141 = PLANE('',#142);
#142 = AXIS2_PLACEMENT_3D('',#143,#144,#145);
#143 = CARTESIAN_POINT('',(9.57088814332E-18,0.,2.5E-02));
#144 = DIRECTION('',(0.,0.,1.));
#145 = DIRECTION('',(1.,0.,0.));
#146 = ADVANCED_FACE('',(#147),#165,.T.);
#147 = FACE_BOUND('',#148,.T.);
#148 = EDGE_LOOP('',(#149,#150,#158,#164));
#149 = ORIENTED_EDGE('',*,*,#105,.T.);
#150 = ORIENTED_EDGE('',*,*,#151,.T.);
#151 = EDGE_CURVE('',#98,#152,#154,.T.);
#152 = VERTEX_POINT('',#153);
#153 = CARTESIAN_POINT('',(0.475,-0.25,0.325));
#154 = LINE('',#155,#156);
#155 = CARTESIAN_POINT('',(0.475,0.25,0.325));
#156 = VECTOR('',#157,1.);
#157 = DIRECTION('',(0.,-1.,0.));
#158 = ORIENTED_EDGE('',*,*,#159,.F.);
#159 = EDGE_CURVE('',#121,#152,#160,.T.);
#160 = LINE('',#161,#162);
#161 = CARTESIAN_POINT('',(0.475,-0.25,2.5E-02));
#162 = VECTOR('',#163,1.);
#163 = DIRECTION('',(0.,0.,1.));
#164 = ORIENTED_EDGE('',*,*,#120,.F.);
#165 = PLANE('',#166);
#166 = AXIS2_PLACEMENT_3D('',#167,#168,#169);
#167 = CARTESIAN_POINT('',(0.475,0.25,2.5E-02));
#168 = DIRECTION('',(1.,0.,0.));
#169 = DIRECTION('',(0.,-1.,0.));
#170 = ADVANCED_FACE('',(#171),#189,.T.);
#171 = FACE_BOUND('',#172,.T.);
#172 = EDGE_LOOP('',(#173,#174,#182,#188));
#173 = ORIENTED_EDGE('',*,*,#97,.F.);
#174 = ORIENTED_EDGE('',*,*,#175,.T.);
#175 = EDGE_CURVE('',#90,#176,#178,.T.);
#176 = VERTEX_POINT('',#177);
#177 = CARTESIAN_POINT('',(0.375,-0.25,0.325));
#178 = LINE('',#179,#180);
#179 = CARTESIAN_POINT('',(0.375,0.25,0.325));
#180 = VECTOR('',#181,1.);
#181 = DIRECTION('',(0.,-1.,0.));
#182 = ORIENTED_EDGE('',*,*,#183,.F.);
#183 = EDGE_CURVE('',#152,#176,#184,.T.);
#184 = LINE('',#185,#186);
#185 = CARTESIAN_POINT('',(0.475,-0.25,0.325));
#186 = VECTOR('',#187,1.);
#187 = DIRECTION('',(-1.,0.,0.));
#188 = ORIENTED_EDGE('',*,*,#151,.F.);
#189 = PLANE('',#190);
#190 = AXIS2_PLACEMENT_3D('',#191,#192,#193);
#191 = CARTESIAN_POINT('',(9.57088814332E-18,0.,0.325));
#192 = DIRECTION('',(0.,0.,1.));
#193 = DIRECTION('',(1.,0.,0.));
#194 = ADVANCED_FACE('',(#195),#213,.T.);
#195 = FACE_BOUND('',#196,.T.);
#196 = EDGE_LOOP('',(#197,#198,#206,#212));
#197 = ORIENTED_EDGE('',*,*,#89,.T.);
#198 = ORIENTED_EDGE('',*,*,#199,.T.);
#199 = EDGE_CURVE('',#82,#200,#202,.T.);
#200 = VERTEX_POINT('',#201);
#201 = CARTESIAN_POINT('',(0.375,-0.25,0.295));
#202 = LINE('',#203,#204);
#203 = CARTESIAN_POINT('',(0.375,0.25,0.295));
#204 = VECTOR('',#205,1.);
#205 = DIRECTION('',(0.,-1.,0.));
#206 = ORIENTED_EDGE('',*,*,#207,.F.);
#207 = EDGE_CURVE('',#176,#200,#208,.T.);
#208 = LINE('',#209,#210);
#209 = CARTESIAN_POINT('',(0.375,-0.25,0.325));
#210 = VECTOR('',#211,1.);
#211 = DIRECTION('',(-0.,-0.,-1.));
#212 = ORIENTED_EDGE('',*,*,#175,.F.);
#213 = PLANE('',#214);
#214 = AXIS2_PLACEMENT_3D('',#215,#216,#217);
#215 = CARTESIAN_POINT('',(0.375,0.25,0.325));
#216 = DIRECTION('',(-1.,0.,0.));
#217 = DIRECTION('',(0.,-1.,0.));
#218 = ADVANCED_FACE('',(#219),#237,.T.);
#219 = FACE_BOUND('',#220,.F.);
#220 = EDGE_LOOP('',(#221,#222,#223,#231));
#221 = ORIENTED_EDGE('',*,*,#81,.T.);
#222 = ORIENTED_EDGE('',*,*,#199,.T.);
#223 = ORIENTED_EDGE('',*,*,#224,.T.);
#224 = EDGE_CURVE('',#200,#225,#227,.T.);
#225 = VERTEX_POINT('',#226);
#226 = CARTESIAN_POINT('',(-0.375,-0.25,0.295));
#227 = LINE('',#228,#229);
#228 = CARTESIAN_POINT('',(0.375,-0.25,0.295));
#229 = VECTOR('',#230,1.);
#230 = DIRECTION('',(-1.,0.,0.));
#231 = ORIENTED_EDGE('',*,*,#232,.T.);
#232 = EDGE_CURVE('',#225,#74,#233,.T.);
#233 = LINE('',#234,#235);
#234 = CARTESIAN_POINT('',(-0.375,-0.25,0.295));
#235 = VECTOR('',#236,1.);
#236 = DIRECTION('',(0.,1.,0.));
#237 = PLANE('',#238);
#238 = AXIS2_PLACEMENT_3D('',#239,#240,#241);
#239 = CARTESIAN_POINT('',(0.,0.,0.295));
#240 = DIRECTION('',(0.,0.,1.));
#241 = DIRECTION('',(1.,0.,0.));
#242 = ADVANCED_FACE('',(#243),#261,.T.);
#243 = FACE_BOUND('',#244,.T.);
#244 = EDGE_LOOP('',(#245,#253,#254,#255));
#245 = ORIENTED_EDGE('',*,*,#246,.T.);
#246 = EDGE_CURVE('',#247,#225,#249,.T.);
#247 = VERTEX_POINT('',#248);
#248 = CARTESIAN_POINT('',(-0.375,-0.25,0.325));
#249 = LINE('',#250,#251);
#250 = CARTESIAN_POINT('',(-0.375,-0.25,0.325));
#251 = VECTOR('',#252,1.);
#252 = DIRECTION('',(-0.,-0.,-1.));
#253 = ORIENTED_EDGE('',*,*,#232,.T.);
#254 = ORIENTED_EDGE('',*,*,#73,.F.);
#255 = ORIENTED_EDGE('',*,*,#256,.F.);
#256 = EDGE_CURVE('',#247,#66,#257,.T.);
#257 = LINE('',#258,#259);
#258 = CARTESIAN_POINT('',(-0.375,-0.25,0.325));
#259 = VECTOR('',#260,1.);
#260 = DIRECTION('',(0.,1.,0.));
#261 = PLANE('',#262);
#262 = AXIS2_PLACEMENT_3D('',#263,#264,#265);
#263 = CARTESIAN_POINT('',(-0.375,-0.25,0.325));
#264 = DIRECTION('',(1.,0.,0.));
#265 = DIRECTION('',(0.,1.,0.));
#266 = ADVANCED_FACE('',(#267),#285,.T.);
#267 = FACE_BOUND('',#268,.T.);
#268 = EDGE_LOOP('',(#269,#270,#278,#284));
#269 = ORIENTED_EDGE('',*,*,#65,.F.);
#270 = ORIENTED_EDGE('',*,*,#271,.F.);
#271 = EDGE_CURVE('',#272,#58,#274,.T.);
#272 = VERTEX_POINT('',#273);
#273 = CARTESIAN_POINT('',(-0.475,-0.25,0.325));
#274 = LINE('',#275,#276);
#275 = CARTESIAN_POINT('',(-0.475,-0.25,0.325));
#276 = VECTOR('',#277,1.);
#277 = DIRECTION('',(0.,1.,0.));
#278 = ORIENTED_EDGE('',*,*,#279,.F.);
#279 = EDGE_CURVE('',#247,#272,#280,.T.);
#280 = LINE('',#281,#282);
#281 = CARTESIAN_POINT('',(0.475,-0.25,0.325));
#282 = VECTOR('',#283,1.);
#283 = DIRECTION('',(-1.,0.,0.));
#284 = ORIENTED_EDGE('',*,*,#256,.T.);
#285 = PLANE('',#286);
#286 = AXIS2_PLACEMENT_3D('',#287,#288,#289);
#287 = CARTESIAN_POINT('',(9.57088814332E-18,0.,0.325));
#288 = DIRECTION('',(0.,0.,1.));
#289 = DIRECTION('',(1.,0.,0.));
#290 = ADVANCED_FACE('',(#291),#302,.T.);
#291 = FACE_BOUND('',#292,.T.);
#292 = EDGE_LOOP('',(#293,#299,#300,#301));
#293 = ORIENTED_EDGE('',*,*,#294,.T.);
#294 = EDGE_CURVE('',#129,#272,#295,.T.);
#295 = LINE('',#296,#297);
#296 = CARTESIAN_POINT('',(-0.475,-0.25,2.5E-02));
#297 = VECTOR('',#298,1.);
#298 = DIRECTION('',(0.,0.,1.));
#299 = ORIENTED_EDGE('',*,*,#271,.T.);
#300 = ORIENTED_EDGE('',*,*,#57,.F.);
#301 = ORIENTED_EDGE('',*,*,#136,.F.);
#302 = PLANE('',#303);
#303 = AXIS2_PLACEMENT_3D('',#304,#305,#306);
#304 = CARTESIAN_POINT('',(-0.475,-0.25,2.5E-02));
#305 = DIRECTION('',(-1.,0.,0.));
#306 = DIRECTION('',(0.,1.,0.));
#307 = ADVANCED_FACE('',(#308),#318,.T.);
#308 = FACE_BOUND('',#309,.T.);
#309 = EDGE_LOOP('',(#310,#311,#312,#313,#314,#315,#316,#317));
#310 = ORIENTED_EDGE('',*,*,#128,.F.);
#311 = ORIENTED_EDGE('',*,*,#159,.T.);
#312 = ORIENTED_EDGE('',*,*,#183,.T.);
#313 = ORIENTED_EDGE('',*,*,#207,.T.);
#314 = ORIENTED_EDGE('',*,*,#224,.T.);
#315 = ORIENTED_EDGE('',*,*,#246,.F.);
#316 = ORIENTED_EDGE('',*,*,#279,.T.);
#317 = ORIENTED_EDGE('',*,*,#294,.F.);
#318 = PLANE('',#319);
#319 = AXIS2_PLACEMENT_3D('',#320,#321,#322);
#320 = CARTESIAN_POINT('',(0.475,-0.25,2.5E-02));
#321 = DIRECTION('',(0.,-1.,0.));
#322 = DIRECTION('',(-1.,0.,0.));
#323 = ( GEOMETRIC_REPRESENTATION_CONTEXT(3) 
GLOBAL_UNCERTAINTY_ASSIGNED_CONTEXT((#327)) GLOBAL_UNIT_ASSIGNED_CONTEXT
((#324,#325,#326)) REPRESENTATION_CONTEXT('Context #1',
  '3D Context with UNIT and UNCERTAINTY') );
#324 = ( LENGTH_UNIT() NAMED_UNIT(*) SI_UNIT(.MILLI.,.METRE.) );
#325 = ( NAMED_UNIT(*) PLANE_ANGLE_UNIT() SI_UNIT($,.RADIAN.) );
#326 = ( NAMED_UNIT(*) SI_UNIT($,.STERADIAN.) SOLID_ANGLE_UNIT() );
#327 = UNCERTAINTY_MEASURE_WITH_UNIT(LENGTH_MEASURE(1.E-07),#324,
  'distance_accuracy_value','confusion accuracy');
#328 = CONTEXT_DEPENDENT_SHAPE_REPRESENTATION(#329,#331);
#329 = ( REPRESENTATION_RELATIONSHIP('','',#40,#10) 
REPRESENTATION_RELATIONSHIP_WITH_TRANSFORMATION(#330) 
SHAPE_REPRESENTATION_RELATIONSHIP() );
#330 = ITEM_DEFINED_TRANSFORMATION('','',#11,#15);
#331 = PRODUCT_DEFINITION_SHAPE('Placement','Placement of an item',#332
  );
#332 = NEXT_ASSEMBLY_USAGE_OCCURRENCE('20413','ResistorMainBody','',#5,
  #35,$);
#333 = PRODUCT_RELATED_PRODUCT_CATEGORY('part',$,(#37));
#334 = SHAPE_DEFINITION_REPRESENTATION(#335,#341);
#335 = PRODUCT_DEFINITION_SHAPE('','',#336);
#336 = PRODUCT_DEFINITION('design','',#337,#340);
#337 = PRODUCT_DEFINITION_FORMATION('','',#338);
#338 = PRODUCT('ResistorBlackLayer','ResistorBlackLayer','',(#339));
#339 = PRODUCT_CONTEXT('',#2,'mechanical');
#340 = PRODUCT_DEFINITION_CONTEXT('part definition',#2,'design');
#341 = ADVANCED_BREP_SHAPE_REPRESENTATION('',(#11,#342),#492);
#342 = MANIFOLD_SOLID_BREP('',#343);
#343 = CLOSED_SHELL('',(#344,#384,#415,#446,#468,#480));
#344 = ADVANCED_FACE('',(#345),#379,.T.);
#345 = FACE_BOUND('',#346,.T.);
#346 = EDGE_LOOP('',(#347,#357,#365,#373));
#347 = ORIENTED_EDGE('',*,*,#348,.T.);
#348 = EDGE_CURVE('',#349,#351,#353,.T.);
#349 = VERTEX_POINT('',#350);
#350 = CARTESIAN_POINT('',(-0.375,0.25,0.295));
#351 = VERTEX_POINT('',#352);
#352 = CARTESIAN_POINT('',(-0.375,0.25,0.325));
#353 = LINE('',#354,#355);
#354 = CARTESIAN_POINT('',(-0.375,0.25,0.295));
#355 = VECTOR('',#356,1.);
#356 = DIRECTION('',(0.,0.,1.));
#357 = ORIENTED_EDGE('',*,*,#358,.T.);
#358 = EDGE_CURVE('',#351,#359,#361,.T.);
#359 = VERTEX_POINT('',#360);
#360 = CARTESIAN_POINT('',(0.375,0.25,0.325));
#361 = LINE('',#362,#363);
#362 = CARTESIAN_POINT('',(-0.375,0.25,0.325));
#363 = VECTOR('',#364,1.);
#364 = DIRECTION('',(1.,0.,0.));
#365 = ORIENTED_EDGE('',*,*,#366,.F.);
#366 = EDGE_CURVE('',#367,#359,#369,.T.);
#367 = VERTEX_POINT('',#368);
#368 = CARTESIAN_POINT('',(0.375,0.25,0.295));
#369 = LINE('',#370,#371);
#370 = CARTESIAN_POINT('',(0.375,0.25,0.295));
#371 = VECTOR('',#372,1.);
#372 = DIRECTION('',(0.,0.,1.));
#373 = ORIENTED_EDGE('',*,*,#374,.F.);
#374 = EDGE_CURVE('',#349,#367,#375,.T.);
#375 = LINE('',#376,#377);
#376 = CARTESIAN_POINT('',(-0.375,0.25,0.295));
#377 = VECTOR('',#378,1.);
#378 = DIRECTION('',(1.,0.,0.));
#379 = PLANE('',#380);
#380 = AXIS2_PLACEMENT_3D('',#381,#382,#383);
#381 = CARTESIAN_POINT('',(-0.375,0.25,0.295));
#382 = DIRECTION('',(0.,1.,0.));
#383 = DIRECTION('',(1.,0.,0.));
#384 = ADVANCED_FACE('',(#385),#410,.T.);
#385 = FACE_BOUND('',#386,.T.);
#386 = EDGE_LOOP('',(#387,#388,#396,#404));
#387 = ORIENTED_EDGE('',*,*,#366,.T.);
#388 = ORIENTED_EDGE('',*,*,#389,.T.);
#389 = EDGE_CURVE('',#359,#390,#392,.T.);
#390 = VERTEX_POINT('',#391);
#391 = CARTESIAN_POINT('',(0.375,-0.25,0.325));
#392 = LINE('',#393,#394);
#393 = CARTESIAN_POINT('',(0.375,0.25,0.325));
#394 = VECTOR('',#395,1.);
#395 = DIRECTION('',(0.,-1.,0.));
#396 = ORIENTED_EDGE('',*,*,#397,.F.);
#397 = EDGE_CURVE('',#398,#390,#400,.T.);
#398 = VERTEX_POINT('',#399);
#399 = CARTESIAN_POINT('',(0.375,-0.25,0.295));
#400 = LINE('',#401,#402);
#401 = CARTESIAN_POINT('',(0.375,-0.25,0.295));
#402 = VECTOR('',#403,1.);
#403 = DIRECTION('',(0.,0.,1.));
#404 = ORIENTED_EDGE('',*,*,#405,.F.);
#405 = EDGE_CURVE('',#367,#398,#406,.T.);
#406 = LINE('',#407,#408);
#407 = CARTESIAN_POINT('',(0.375,0.25,0.295));
#408 = VECTOR('',#409,1.);
#409 = DIRECTION('',(0.,-1.,0.));
#410 = PLANE('',#411);
#411 = AXIS2_PLACEMENT_3D('',#412,#413,#414);
#412 = CARTESIAN_POINT('',(0.375,0.25,0.295));
#413 = DIRECTION('',(1.,0.,0.));
#414 = DIRECTION('',(0.,-1.,0.));
#415 = ADVANCED_FACE('',(#416),#441,.T.);
#416 = FACE_BOUND('',#417,.T.);
#417 = EDGE_LOOP('',(#418,#419,#427,#435));
#418 = ORIENTED_EDGE('',*,*,#397,.T.);
#419 = ORIENTED_EDGE('',*,*,#420,.T.);
#420 = EDGE_CURVE('',#390,#421,#423,.T.);
#421 = VERTEX_POINT('',#422);
#422 = CARTESIAN_POINT('',(-0.375,-0.25,0.325));
#423 = LINE('',#424,#425);
#424 = CARTESIAN_POINT('',(0.375,-0.25,0.325));
#425 = VECTOR('',#426,1.);
#426 = DIRECTION('',(-1.,0.,0.));
#427 = ORIENTED_EDGE('',*,*,#428,.F.);
#428 = EDGE_CURVE('',#429,#421,#431,.T.);
#429 = VERTEX_POINT('',#430);
#430 = CARTESIAN_POINT('',(-0.375,-0.25,0.295));
#431 = LINE('',#432,#433);
#432 = CARTESIAN_POINT('',(-0.375,-0.25,0.295));
#433 = VECTOR('',#434,1.);
#434 = DIRECTION('',(0.,0.,1.));
#435 = ORIENTED_EDGE('',*,*,#436,.F.);
#436 = EDGE_CURVE('',#398,#429,#437,.T.);
#437 = LINE('',#438,#439);
#438 = CARTESIAN_POINT('',(0.375,-0.25,0.295));
#439 = VECTOR('',#440,1.);
#440 = DIRECTION('',(-1.,0.,0.));
#441 = PLANE('',#442);
#442 = AXIS2_PLACEMENT_3D('',#443,#444,#445);
#443 = CARTESIAN_POINT('',(0.375,-0.25,0.295));
#444 = DIRECTION('',(0.,-1.,0.));
#445 = DIRECTION('',(-1.,0.,0.));
#446 = ADVANCED_FACE('',(#447),#463,.T.);
#447 = FACE_BOUND('',#448,.T.);
#448 = EDGE_LOOP('',(#449,#450,#456,#457));
#449 = ORIENTED_EDGE('',*,*,#428,.T.);
#450 = ORIENTED_EDGE('',*,*,#451,.T.);
#451 = EDGE_CURVE('',#421,#351,#452,.T.);
#452 = LINE('',#453,#454);
#453 = CARTESIAN_POINT('',(-0.375,-0.25,0.325));
#454 = VECTOR('',#455,1.);
#455 = DIRECTION('',(0.,1.,0.));
#456 = ORIENTED_EDGE('',*,*,#348,.F.);
#457 = ORIENTED_EDGE('',*,*,#458,.F.);
#458 = EDGE_CURVE('',#429,#349,#459,.T.);
#459 = LINE('',#460,#461);
#460 = CARTESIAN_POINT('',(-0.375,-0.25,0.295));
#461 = VECTOR('',#462,1.);
#462 = DIRECTION('',(0.,1.,0.));
#463 = PLANE('',#464);
#464 = AXIS2_PLACEMENT_3D('',#465,#466,#467);
#465 = CARTESIAN_POINT('',(-0.375,-0.25,0.295));
#466 = DIRECTION('',(-1.,0.,0.));
#467 = DIRECTION('',(0.,1.,0.));
#468 = ADVANCED_FACE('',(#469),#475,.F.);
#469 = FACE_BOUND('',#470,.T.);
#470 = EDGE_LOOP('',(#471,#472,#473,#474));
#471 = ORIENTED_EDGE('',*,*,#374,.T.);
#472 = ORIENTED_EDGE('',*,*,#405,.T.);
#473 = ORIENTED_EDGE('',*,*,#436,.T.);
#474 = ORIENTED_EDGE('',*,*,#458,.T.);
#475 = PLANE('',#476);
#476 = AXIS2_PLACEMENT_3D('',#477,#478,#479);
#477 = CARTESIAN_POINT('',(0.,0.,0.295));
#478 = DIRECTION('',(0.,0.,1.));
#479 = DIRECTION('',(1.,0.,0.));
#480 = ADVANCED_FACE('',(#481),#487,.T.);
#481 = FACE_BOUND('',#482,.F.);
#482 = EDGE_LOOP('',(#483,#484,#485,#486));
#483 = ORIENTED_EDGE('',*,*,#358,.T.);
#484 = ORIENTED_EDGE('',*,*,#389,.T.);
#485 = ORIENTED_EDGE('',*,*,#420,.T.);
#486 = ORIENTED_EDGE('',*,*,#451,.T.);
#487 = PLANE('',#488);
#488 = AXIS2_PLACEMENT_3D('',#489,#490,#491);
#489 = CARTESIAN_POINT('',(0.,0.,0.325));
#490 = DIRECTION('',(0.,0.,1.));
#491 = DIRECTION('',(1.,0.,0.));
#492 = ( GEOMETRIC_REPRESENTATION_CONTEXT(3) 
GLOBAL_UNCERTAINTY_ASSIGNED_CONTEXT((#496)) GLOBAL_UNIT_ASSIGNED_CONTEXT
((#493,#494,#495)) REPRESENTATION_CONTEXT('Context #1',
  '3D Context with UNIT and UNCERTAINTY') );
#493 = ( LENGTH_UNIT() NAMED_UNIT(*) SI_UNIT(.MILLI.,.METRE.) );
#494 = ( NAMED_UNIT(*) PLANE_ANGLE_UNIT() SI_UNIT($,.RADIAN.) );
#495 = ( NAMED_UNIT(*) SI_UNIT($,.STERADIAN.) SOLID_ANGLE_UNIT() );
#496 = UNCERTAINTY_MEASURE_WITH_UNIT(LENGTH_MEASURE(1.E-07),#493,
  'distance_accuracy_value','confusion accuracy');
#497 = CONTEXT_DEPENDENT_SHAPE_REPRESENTATION(#498,#500);
#498 = ( REPRESENTATION_RELATIONSHIP('','',#341,#10) 
REPRESENTATION_RELATIONSHIP_WITH_TRANSFORMATION(#499) 
SHAPE_REPRESENTATION_RELATIONSHIP() );
#499 = ITEM_DEFINED_TRANSFORMATION('','',#11,#19);
#500 = PRODUCT_DEFINITION_SHAPE('Placement','Placement of an item',#501
  );
#501 = NEXT_ASSEMBLY_USAGE_OCCURRENCE('20414','ResistorBlackLayer','',#5
  ,#336,$);
#502 = PRODUCT_RELATED_PRODUCT_CATEGORY('part',$,(#338));
#503 = SHAPE_DEFINITION_REPRESENTATION(#504,#510);
#504 = PRODUCT_DEFINITION_SHAPE('','',#505);
#505 = PRODUCT_DEFINITION('design','',#506,#509);
#506 = PRODUCT_DEFINITION_FORMATION('','',#507);
#507 = PRODUCT('ResistorContacts','ResistorContacts','',(#508));
#508 = PRODUCT_CONTEXT('',#2,'mechanical');
#509 = PRODUCT_DEFINITION_CONTEXT('part definition',#2,'design');
#510 = ADVANCED_BREP_SHAPE_REPRESENTATION('',(#11,#511),#1931);
#511 = MANIFOLD_SOLID_BREP('',#512);
#512 = CLOSED_SHELL('',(#513,#585,#634,#659,#683,#716,#774,#807,#831,
    #865,#889,#914,#942,#959,#976,#1007,#1038,#1070,#1094,#1119,#1143,
    #1161,#1179,#1196,#1214,#1232,#1263,#1288,#1312,#1330,#1341,#1387,
    #1418,#1474,#1530,#1547,#1582,#1617,#1642,#1675,#1700,#1725,#1758,
    #1783,#1800,#1817,#1834,#1851,#1873,#1890,#1907,#1919));
#513 = ADVANCED_FACE('',(#514),#580,.T.);
#514 = FACE_BOUND('',#515,.T.);
#515 = EDGE_LOOP('',(#516,#526,#534,#542,#550,#558,#566,#574));
#516 = ORIENTED_EDGE('',*,*,#517,.T.);
#517 = EDGE_CURVE('',#518,#520,#522,.T.);
#518 = VERTEX_POINT('',#519);
#519 = CARTESIAN_POINT('',(-0.25,0.25,0.34));
#520 = VERTEX_POINT('',#521);
#521 = CARTESIAN_POINT('',(-0.25,0.25,0.325));
#522 = LINE('',#523,#524);
#523 = CARTESIAN_POINT('',(-0.25,0.25,0.35));
#524 = VECTOR('',#525,1.);
#525 = DIRECTION('',(0.,-2.22044604925E-16,-1.));
#526 = ORIENTED_EDGE('',*,*,#527,.T.);
#527 = EDGE_CURVE('',#520,#528,#530,.T.);
#528 = VERTEX_POINT('',#529);
#529 = CARTESIAN_POINT('',(-0.475,0.25,0.325));
#530 = LINE('',#531,#532);
#531 = CARTESIAN_POINT('',(-0.25,0.25,0.325));
#532 = VECTOR('',#533,1.);
#533 = DIRECTION('',(-1.,0.,0.));
#534 = ORIENTED_EDGE('',*,*,#535,.T.);
#535 = EDGE_CURVE('',#528,#536,#538,.T.);
#536 = VERTEX_POINT('',#537);
#537 = CARTESIAN_POINT('',(-0.475,0.25,2.5E-02));
#538 = LINE('',#539,#540);
#539 = CARTESIAN_POINT('',(-0.475,0.25,0.325));
#540 = VECTOR('',#541,1.);
#541 = DIRECTION('',(0.,-2.22044604925E-16,-1.));
#542 = ORIENTED_EDGE('',*,*,#543,.T.);
#543 = EDGE_CURVE('',#536,#544,#546,.T.);
#544 = VERTEX_POINT('',#545);
#545 = CARTESIAN_POINT('',(-0.25,0.25,2.5E-02));
#546 = LINE('',#547,#548);
#547 = CARTESIAN_POINT('',(-0.475,0.25,2.5E-02));
#548 = VECTOR('',#549,1.);
#549 = DIRECTION('',(1.,0.,0.));
#550 = ORIENTED_EDGE('',*,*,#551,.T.);
#551 = EDGE_CURVE('',#544,#552,#554,.T.);
#552 = VERTEX_POINT('',#553);
#553 = CARTESIAN_POINT('',(-0.25,0.25,1.E-02));
#554 = LINE('',#555,#556);
#555 = CARTESIAN_POINT('',(-0.25,0.25,2.5E-02));
#556 = VECTOR('',#557,1.);
#557 = DIRECTION('',(0.,-2.22044604925E-16,-1.));
#558 = ORIENTED_EDGE('',*,*,#559,.T.);
#559 = EDGE_CURVE('',#552,#560,#562,.T.);
#560 = VERTEX_POINT('',#561);
#561 = CARTESIAN_POINT('',(-0.49,0.25,1.E-02));
#562 = LINE('',#563,#564);
#563 = CARTESIAN_POINT('',(-0.25,0.25,1.E-02));
#564 = VECTOR('',#565,1.);
#565 = DIRECTION('',(-1.,0.,0.));
#566 = ORIENTED_EDGE('',*,*,#567,.T.);
#567 = EDGE_CURVE('',#560,#568,#570,.T.);
#568 = VERTEX_POINT('',#569);
#569 = CARTESIAN_POINT('',(-0.49,0.25,0.34));
#570 = LINE('',#571,#572);
#571 = CARTESIAN_POINT('',(-0.49,0.25,-5.773159728051E-17));
#572 = VECTOR('',#573,1.);
#573 = DIRECTION('',(0.,2.22044604925E-16,1.));
#574 = ORIENTED_EDGE('',*,*,#575,.T.);
#575 = EDGE_CURVE('',#568,#518,#576,.T.);
#576 = LINE('',#577,#578);
#577 = CARTESIAN_POINT('',(-0.5,0.25,0.34));
#578 = VECTOR('',#579,1.);
#579 = DIRECTION('',(1.,0.,0.));
#580 = PLANE('',#581);
#581 = AXIS2_PLACEMENT_3D('',#582,#583,#584);
#582 = CARTESIAN_POINT('',(-0.4125,0.25,0.175));
#583 = DIRECTION('',(0.,1.,0.));
#584 = DIRECTION('',(0.,0.,1.));
#585 = ADVANCED_FACE('',(#586),#629,.T.);
#586 = FACE_BOUND('',#587,.T.);
#587 = EDGE_LOOP('',(#588,#598,#607,#615,#621,#622));
#588 = ORIENTED_EDGE('',*,*,#589,.T.);
#589 = EDGE_CURVE('',#590,#592,#594,.T.);
#590 = VERTEX_POINT('',#591);
#591 = CARTESIAN_POINT('',(-0.25,0.24,0.35));
#592 = VERTEX_POINT('',#593);
#593 = CARTESIAN_POINT('',(-0.25,-0.24,0.35));
#594 = LINE('',#595,#596);
#595 = CARTESIAN_POINT('',(-0.25,0.25,0.35));
#596 = VECTOR('',#597,1.);
#597 = DIRECTION('',(0.,-1.,2.22044604925E-16));
#598 = ORIENTED_EDGE('',*,*,#599,.F.);
#599 = EDGE_CURVE('',#600,#592,#602,.T.);
#600 = VERTEX_POINT('',#601);
#601 = CARTESIAN_POINT('',(-0.25,-0.25,0.34));
#602 = CIRCLE('',#603,1.E-02);
#603 = AXIS2_PLACEMENT_3D('',#604,#605,#606);
#604 = CARTESIAN_POINT('',(-0.25,-0.24,0.34));
#605 = DIRECTION('',(-1.,-0.,0.));
#606 = DIRECTION('',(0.,-1.,-2.22044604925E-16));
#607 = ORIENTED_EDGE('',*,*,#608,.T.);
#608 = EDGE_CURVE('',#600,#609,#611,.T.);
#609 = VERTEX_POINT('',#610);
#610 = CARTESIAN_POINT('',(-0.25,-0.25,0.325));
#611 = LINE('',#612,#613);
#612 = CARTESIAN_POINT('',(-0.25,-0.25,0.35));
#613 = VECTOR('',#614,1.);
#614 = DIRECTION('',(0.,-2.22044604925E-16,-1.));
#615 = ORIENTED_EDGE('',*,*,#616,.F.);
#616 = EDGE_CURVE('',#520,#609,#617,.T.);
#617 = LINE('',#618,#619);
#618 = CARTESIAN_POINT('',(-0.25,0.25,0.325));
#619 = VECTOR('',#620,1.);
#620 = DIRECTION('',(0.,-1.,2.22044604925E-16));
#621 = ORIENTED_EDGE('',*,*,#517,.F.);
#622 = ORIENTED_EDGE('',*,*,#623,.T.);
#623 = EDGE_CURVE('',#518,#590,#624,.T.);
#624 = CIRCLE('',#625,1.E-02);
#625 = AXIS2_PLACEMENT_3D('',#626,#627,#628);
#626 = CARTESIAN_POINT('',(-0.25,0.24,0.34));
#627 = DIRECTION('',(1.,0.,0.));
#628 = DIRECTION('',(0.,-1.,-2.22044604925E-16));
#629 = PLANE('',#630);
#630 = AXIS2_PLACEMENT_3D('',#631,#632,#633);
#631 = CARTESIAN_POINT('',(-0.25,0.25,0.35));
#632 = DIRECTION('',(1.,0.,0.));
#633 = DIRECTION('',(0.,-2.22044604925E-16,-1.));
#634 = ADVANCED_FACE('',(#635),#654,.T.);
#635 = FACE_BOUND('',#636,.T.);
#636 = EDGE_LOOP('',(#637,#646,#652,#653));
#637 = ORIENTED_EDGE('',*,*,#638,.T.);
#638 = EDGE_CURVE('',#568,#639,#641,.T.);
#639 = VERTEX_POINT('',#640);
#640 = CARTESIAN_POINT('',(-0.49,0.24,0.35));
#641 = CIRCLE('',#642,1.E-02);
#642 = AXIS2_PLACEMENT_3D('',#643,#644,#645);
#643 = CARTESIAN_POINT('',(-0.49,0.24,0.34));
#644 = DIRECTION('',(1.,0.,-0.));
#645 = DIRECTION('',(0.,0.,1.));
#646 = ORIENTED_EDGE('',*,*,#647,.T.);
#647 = EDGE_CURVE('',#639,#590,#648,.T.);
#648 = LINE('',#649,#650);
#649 = CARTESIAN_POINT('',(-0.5,0.24,0.35));
#650 = VECTOR('',#651,1.);
#651 = DIRECTION('',(1.,0.,0.));
#652 = ORIENTED_EDGE('',*,*,#623,.F.);
#653 = ORIENTED_EDGE('',*,*,#575,.F.);
#654 = CYLINDRICAL_SURFACE('',#655,1.E-02);
#655 = AXIS2_PLACEMENT_3D('',#656,#657,#658);
#656 = CARTESIAN_POINT('',(-0.5,0.24,0.34));
#657 = DIRECTION('',(1.,0.,0.));
#658 = DIRECTION('',(0.,1.,0.));
#659 = ADVANCED_FACE('',(#660),#678,.T.);
#660 = FACE_BOUND('',#661,.T.);
#661 = EDGE_LOOP('',(#662,#663,#671,#677));
#662 = ORIENTED_EDGE('',*,*,#616,.T.);
#663 = ORIENTED_EDGE('',*,*,#664,.T.);
#664 = EDGE_CURVE('',#609,#665,#667,.T.);
#665 = VERTEX_POINT('',#666);
#666 = CARTESIAN_POINT('',(-0.475,-0.25,0.325));
#667 = LINE('',#668,#669);
#668 = CARTESIAN_POINT('',(-0.25,-0.25,0.325));
#669 = VECTOR('',#670,1.);
#670 = DIRECTION('',(-1.,0.,0.));
#671 = ORIENTED_EDGE('',*,*,#672,.F.);
#672 = EDGE_CURVE('',#528,#665,#673,.T.);
#673 = LINE('',#674,#675);
#674 = CARTESIAN_POINT('',(-0.475,0.25,0.325));
#675 = VECTOR('',#676,1.);
#676 = DIRECTION('',(0.,-1.,2.22044604925E-16));
#677 = ORIENTED_EDGE('',*,*,#527,.F.);
#678 = PLANE('',#679);
#679 = AXIS2_PLACEMENT_3D('',#680,#681,#682);
#680 = CARTESIAN_POINT('',(-0.25,0.25,0.325));
#681 = DIRECTION('',(0.,-2.22044604925E-16,-1.));
#682 = DIRECTION('',(-1.,0.,0.));
#683 = ADVANCED_FACE('',(#684),#711,.T.);
#684 = FACE_BOUND('',#685,.T.);
#685 = EDGE_LOOP('',(#686,#687,#696,#704));
#686 = ORIENTED_EDGE('',*,*,#567,.F.);
#687 = ORIENTED_EDGE('',*,*,#688,.T.);
#688 = EDGE_CURVE('',#560,#689,#691,.T.);
#689 = VERTEX_POINT('',#690);
#690 = CARTESIAN_POINT('',(-0.5,0.24,1.E-02));
#691 = CIRCLE('',#692,1.E-02);
#692 = AXIS2_PLACEMENT_3D('',#693,#694,#695);
#693 = CARTESIAN_POINT('',(-0.49,0.24,1.E-02));
#694 = DIRECTION('',(0.,2.22044604925E-16,1.));
#695 = DIRECTION('',(0.,1.,-2.22044604925E-16));
#696 = ORIENTED_EDGE('',*,*,#697,.T.);
#697 = EDGE_CURVE('',#689,#698,#700,.T.);
#698 = VERTEX_POINT('',#699);
#699 = CARTESIAN_POINT('',(-0.5,0.24,0.34));
#700 = LINE('',#701,#702);
#701 = CARTESIAN_POINT('',(-0.5,0.24,-5.551115123126E-17));
#702 = VECTOR('',#703,1.);
#703 = DIRECTION('',(0.,2.22044604925E-16,1.));
#704 = ORIENTED_EDGE('',*,*,#705,.F.);
#705 = EDGE_CURVE('',#568,#698,#706,.T.);
#706 = CIRCLE('',#707,1.E-02);
#707 = AXIS2_PLACEMENT_3D('',#708,#709,#710);
#708 = CARTESIAN_POINT('',(-0.49,0.24,0.34));
#709 = DIRECTION('',(6.123233995737E-17,0.,1.));
#710 = DIRECTION('',(-1.,0.,6.123233995737E-17));
#711 = CYLINDRICAL_SURFACE('',#712,1.E-02);
#712 = AXIS2_PLACEMENT_3D('',#713,#714,#715);
#713 = CARTESIAN_POINT('',(-0.49,0.24,-5.551115123126E-17));
#714 = DIRECTION('',(0.,2.22044604925E-16,1.));
#715 = DIRECTION('',(0.,1.,-2.22044604925E-16));
#716 = ADVANCED_FACE('',(#717,#735),#769,.T.);
#717 = FACE_BOUND('',#718,.T.);
#718 = EDGE_LOOP('',(#719,#720,#728,#734));
#719 = ORIENTED_EDGE('',*,*,#672,.T.);
#720 = ORIENTED_EDGE('',*,*,#721,.T.);
#721 = EDGE_CURVE('',#665,#722,#724,.T.);
#722 = VERTEX_POINT('',#723);
#723 = CARTESIAN_POINT('',(-0.475,-0.25,2.5E-02));
#724 = LINE('',#725,#726);
#725 = CARTESIAN_POINT('',(-0.475,-0.25,0.325));
#726 = VECTOR('',#727,1.);
#727 = DIRECTION('',(0.,-2.22044604925E-16,-1.));
#728 = ORIENTED_EDGE('',*,*,#729,.F.);
#729 = EDGE_CURVE('',#536,#722,#730,.T.);
#730 = LINE('',#731,#732);
#731 = CARTESIAN_POINT('',(-0.475,0.25,2.5E-02));
#732 = VECTOR('',#733,1.);
#733 = DIRECTION('',(0.,-1.,2.22044604925E-16));
#734 = ORIENTED_EDGE('',*,*,#535,.F.);
#735 = FACE_BOUND('',#736,.T.);
#736 = EDGE_LOOP('',(#737,#747,#755,#763));
#737 = ORIENTED_EDGE('',*,*,#738,.F.);
#738 = EDGE_CURVE('',#739,#741,#743,.T.);
#739 = VERTEX_POINT('',#740);
#740 = CARTESIAN_POINT('',(-0.475,2.E-03,0.177));
#741 = VERTEX_POINT('',#742);
#742 = CARTESIAN_POINT('',(-0.475,-2.E-03,0.177));
#743 = LINE('',#744,#745);
#744 = CARTESIAN_POINT('',(-0.475,2.E-03,0.177));
#745 = VECTOR('',#746,1.);
#746 = DIRECTION('',(0.,-1.,2.22044604925E-16));
#747 = ORIENTED_EDGE('',*,*,#748,.F.);
#748 = EDGE_CURVE('',#749,#739,#751,.T.);
#749 = VERTEX_POINT('',#750);
#750 = CARTESIAN_POINT('',(-0.475,2.E-03,0.173));
#751 = LINE('',#752,#753);
#752 = CARTESIAN_POINT('',(-0.475,2.E-03,0.173));
#753 = VECTOR('',#754,1.);
#754 = DIRECTION('',(0.,2.22044604925E-16,1.));
#755 = ORIENTED_EDGE('',*,*,#756,.T.);
#756 = EDGE_CURVE('',#749,#757,#759,.T.);
#757 = VERTEX_POINT('',#758);
#758 = CARTESIAN_POINT('',(-0.475,-2.E-03,0.173));
#759 = LINE('',#760,#761);
#760 = CARTESIAN_POINT('',(-0.475,2.E-03,0.173));
#761 = VECTOR('',#762,1.);
#762 = DIRECTION('',(0.,-1.,2.22044604925E-16));
#763 = ORIENTED_EDGE('',*,*,#764,.T.);
#764 = EDGE_CURVE('',#757,#741,#765,.T.);
#765 = LINE('',#766,#767);
#766 = CARTESIAN_POINT('',(-0.475,-2.E-03,0.173));
#767 = VECTOR('',#768,1.);
#768 = DIRECTION('',(0.,2.22044604925E-16,1.));
#769 = PLANE('',#770);
#770 = AXIS2_PLACEMENT_3D('',#771,#772,#773);
#771 = CARTESIAN_POINT('',(-0.475,0.25,0.325));
#772 = DIRECTION('',(1.,0.,0.));
#773 = DIRECTION('',(0.,-2.22044604925E-16,-1.));
#774 = ADVANCED_FACE('',(#775),#802,.T.);
#775 = FACE_BOUND('',#776,.T.);
#776 = EDGE_LOOP('',(#777,#786,#794,#801));
#777 = ORIENTED_EDGE('',*,*,#778,.T.);
#778 = EDGE_CURVE('',#552,#779,#781,.T.);
#779 = VERTEX_POINT('',#780);
#780 = CARTESIAN_POINT('',(-0.25,0.24,-5.252742685258E-17));
#781 = CIRCLE('',#782,1.E-02);
#782 = AXIS2_PLACEMENT_3D('',#783,#784,#785);
#783 = CARTESIAN_POINT('',(-0.25,0.24,1.E-02));
#784 = DIRECTION('',(-1.,0.,0.));
#785 = DIRECTION('',(0.,1.,2.22044604925E-16));
#786 = ORIENTED_EDGE('',*,*,#787,.T.);
#787 = EDGE_CURVE('',#779,#788,#790,.T.);
#788 = VERTEX_POINT('',#789);
#789 = CARTESIAN_POINT('',(-0.49,0.24,-5.329070518201E-17));
#790 = LINE('',#791,#792);
#791 = CARTESIAN_POINT('',(-0.25,0.24,-5.252742685258E-17));
#792 = VECTOR('',#793,1.);
#793 = DIRECTION('',(-1.,0.,0.));
#794 = ORIENTED_EDGE('',*,*,#795,.T.);
#795 = EDGE_CURVE('',#788,#560,#796,.T.);
#796 = CIRCLE('',#797,1.E-02);
#797 = AXIS2_PLACEMENT_3D('',#798,#799,#800);
#798 = CARTESIAN_POINT('',(-0.49,0.24,1.E-02));
#799 = DIRECTION('',(1.,-0.,0.));
#800 = DIRECTION('',(0.,1.,-2.22044604925E-16));
#801 = ORIENTED_EDGE('',*,*,#559,.F.);
#802 = CYLINDRICAL_SURFACE('',#803,1.E-02);
#803 = AXIS2_PLACEMENT_3D('',#804,#805,#806);
#804 = CARTESIAN_POINT('',(-0.25,0.24,1.E-02));
#805 = DIRECTION('',(-1.,0.,0.));
#806 = DIRECTION('',(0.,1.,0.));
#807 = ADVANCED_FACE('',(#808),#826,.T.);
#808 = FACE_BOUND('',#809,.T.);
#809 = EDGE_LOOP('',(#810,#811,#819,#825));
#810 = ORIENTED_EDGE('',*,*,#729,.T.);
#811 = ORIENTED_EDGE('',*,*,#812,.T.);
#812 = EDGE_CURVE('',#722,#813,#815,.T.);
#813 = VERTEX_POINT('',#814);
#814 = CARTESIAN_POINT('',(-0.25,-0.25,2.5E-02));
#815 = LINE('',#816,#817);
#816 = CARTESIAN_POINT('',(-0.475,-0.25,2.5E-02));
#817 = VECTOR('',#818,1.);
#818 = DIRECTION('',(1.,0.,0.));
#819 = ORIENTED_EDGE('',*,*,#820,.F.);
#820 = EDGE_CURVE('',#544,#813,#821,.T.);
#821 = LINE('',#822,#823);
#822 = CARTESIAN_POINT('',(-0.25,0.25,2.5E-02));
#823 = VECTOR('',#824,1.);
#824 = DIRECTION('',(0.,-1.,2.22044604925E-16));
#825 = ORIENTED_EDGE('',*,*,#543,.F.);
#826 = PLANE('',#827);
#827 = AXIS2_PLACEMENT_3D('',#828,#829,#830);
#828 = CARTESIAN_POINT('',(-0.475,0.25,2.5E-02));
#829 = DIRECTION('',(0.,2.22044604925E-16,1.));
#830 = DIRECTION('',(1.,0.,0.));
#831 = ADVANCED_FACE('',(#832),#860,.T.);
#832 = FACE_BOUND('',#833,.T.);
#833 = EDGE_LOOP('',(#834,#842,#843,#844,#845,#853));
#834 = ORIENTED_EDGE('',*,*,#835,.F.);
#835 = EDGE_CURVE('',#779,#836,#838,.T.);
#836 = VERTEX_POINT('',#837);
#837 = CARTESIAN_POINT('',(-0.25,-0.24,5.252742685258E-17));
#838 = LINE('',#839,#840);
#839 = CARTESIAN_POINT('',(-0.25,0.25,-5.551115123126E-17));
#840 = VECTOR('',#841,1.);
#841 = DIRECTION('',(0.,-1.,2.22044604925E-16));
#842 = ORIENTED_EDGE('',*,*,#778,.F.);
#843 = ORIENTED_EDGE('',*,*,#551,.F.);
#844 = ORIENTED_EDGE('',*,*,#820,.T.);
#845 = ORIENTED_EDGE('',*,*,#846,.T.);
#846 = EDGE_CURVE('',#813,#847,#849,.T.);
#847 = VERTEX_POINT('',#848);
#848 = CARTESIAN_POINT('',(-0.25,-0.25,1.E-02));
#849 = LINE('',#850,#851);
#850 = CARTESIAN_POINT('',(-0.25,-0.25,2.5E-02));
#851 = VECTOR('',#852,1.);
#852 = DIRECTION('',(0.,-2.22044604925E-16,-1.));
#853 = ORIENTED_EDGE('',*,*,#854,.T.);
#854 = EDGE_CURVE('',#847,#836,#855,.T.);
#855 = CIRCLE('',#856,1.E-02);
#856 = AXIS2_PLACEMENT_3D('',#857,#858,#859);
#857 = CARTESIAN_POINT('',(-0.25,-0.24,1.E-02));
#858 = DIRECTION('',(1.,0.,-0.));
#859 = DIRECTION('',(0.,1.,2.22044604925E-16));
#860 = PLANE('',#861);
#861 = AXIS2_PLACEMENT_3D('',#862,#863,#864);
#862 = CARTESIAN_POINT('',(-0.25,0.25,2.5E-02));
#863 = DIRECTION('',(1.,0.,0.));
#864 = DIRECTION('',(0.,-2.22044604925E-16,-1.));
#865 = ADVANCED_FACE('',(#866),#884,.T.);
#866 = FACE_BOUND('',#867,.T.);
#867 = EDGE_LOOP('',(#868,#869,#870,#878));
#868 = ORIENTED_EDGE('',*,*,#589,.F.);
#869 = ORIENTED_EDGE('',*,*,#647,.F.);
#870 = ORIENTED_EDGE('',*,*,#871,.T.);
#871 = EDGE_CURVE('',#639,#872,#874,.T.);
#872 = VERTEX_POINT('',#873);
#873 = CARTESIAN_POINT('',(-0.49,-0.24,0.35));
#874 = LINE('',#875,#876);
#875 = CARTESIAN_POINT('',(-0.49,0.25,0.35));
#876 = VECTOR('',#877,1.);
#877 = DIRECTION('',(0.,-1.,2.22044604925E-16));
#878 = ORIENTED_EDGE('',*,*,#879,.T.);
#879 = EDGE_CURVE('',#872,#592,#880,.T.);
#880 = LINE('',#881,#882);
#881 = CARTESIAN_POINT('',(-0.5,-0.24,0.35));
#882 = VECTOR('',#883,1.);
#883 = DIRECTION('',(1.,0.,0.));
#884 = PLANE('',#885);
#885 = AXIS2_PLACEMENT_3D('',#886,#887,#888);
#886 = CARTESIAN_POINT('',(-0.5,0.25,0.35));
#887 = DIRECTION('',(0.,2.22044604925E-16,1.));
#888 = DIRECTION('',(1.,0.,0.));
#889 = ADVANCED_FACE('',(#890),#909,.T.);
#890 = FACE_BOUND('',#891,.F.);
#891 = EDGE_LOOP('',(#892,#900,#907,#908));
#892 = ORIENTED_EDGE('',*,*,#893,.F.);
#893 = EDGE_CURVE('',#894,#600,#896,.T.);
#894 = VERTEX_POINT('',#895);
#895 = CARTESIAN_POINT('',(-0.49,-0.25,0.34));
#896 = LINE('',#897,#898);
#897 = CARTESIAN_POINT('',(-0.5,-0.25,0.34));
#898 = VECTOR('',#899,1.);
#899 = DIRECTION('',(1.,0.,0.));
#900 = ORIENTED_EDGE('',*,*,#901,.F.);
#901 = EDGE_CURVE('',#872,#894,#902,.T.);
#902 = CIRCLE('',#903,1.E-02);
#903 = AXIS2_PLACEMENT_3D('',#904,#905,#906);
#904 = CARTESIAN_POINT('',(-0.49,-0.24,0.34));
#905 = DIRECTION('',(1.,0.,0.));
#906 = DIRECTION('',(0.,-2.997602166488E-15,1.));
#907 = ORIENTED_EDGE('',*,*,#879,.T.);
#908 = ORIENTED_EDGE('',*,*,#599,.F.);
#909 = CYLINDRICAL_SURFACE('',#910,1.E-02);
#910 = AXIS2_PLACEMENT_3D('',#911,#912,#913);
#911 = CARTESIAN_POINT('',(-0.5,-0.24,0.34));
#912 = DIRECTION('',(1.,0.,0.));
#913 = DIRECTION('',(0.,-1.,0.));
#914 = ADVANCED_FACE('',(#915),#937,.F.);
#915 = FACE_BOUND('',#916,.F.);
#916 = EDGE_LOOP('',(#917,#918,#919,#920,#921,#922,#930,#936));
#917 = ORIENTED_EDGE('',*,*,#608,.T.);
#918 = ORIENTED_EDGE('',*,*,#664,.T.);
#919 = ORIENTED_EDGE('',*,*,#721,.T.);
#920 = ORIENTED_EDGE('',*,*,#812,.T.);
#921 = ORIENTED_EDGE('',*,*,#846,.T.);
#922 = ORIENTED_EDGE('',*,*,#923,.T.);
#923 = EDGE_CURVE('',#847,#924,#926,.T.);
#924 = VERTEX_POINT('',#925);
#925 = CARTESIAN_POINT('',(-0.49,-0.25,1.E-02));
#926 = LINE('',#927,#928);
#927 = CARTESIAN_POINT('',(-0.25,-0.25,1.E-02));
#928 = VECTOR('',#929,1.);
#929 = DIRECTION('',(-1.,0.,0.));
#930 = ORIENTED_EDGE('',*,*,#931,.T.);
#931 = EDGE_CURVE('',#924,#894,#932,.T.);
#932 = LINE('',#933,#934);
#933 = CARTESIAN_POINT('',(-0.49,-0.25,5.773159728051E-17));
#934 = VECTOR('',#935,1.);
#935 = DIRECTION('',(0.,2.22044604925E-16,1.));
#936 = ORIENTED_EDGE('',*,*,#893,.T.);
#937 = PLANE('',#938);
#938 = AXIS2_PLACEMENT_3D('',#939,#940,#941);
#939 = CARTESIAN_POINT('',(-0.4125,-0.25,0.175));
#940 = DIRECTION('',(0.,1.,0.));
#941 = DIRECTION('',(0.,0.,1.));
#942 = ADVANCED_FACE('',(#943),#954,.T.);
#943 = FACE_BOUND('',#944,.T.);
#944 = EDGE_LOOP('',(#945,#946,#947));
#945 = ORIENTED_EDGE('',*,*,#638,.F.);
#946 = ORIENTED_EDGE('',*,*,#705,.T.);
#947 = ORIENTED_EDGE('',*,*,#948,.F.);
#948 = EDGE_CURVE('',#639,#698,#949,.T.);
#949 = CIRCLE('',#950,1.E-02);
#950 = AXIS2_PLACEMENT_3D('',#951,#952,#953);
#951 = CARTESIAN_POINT('',(-0.49,0.24,0.34));
#952 = DIRECTION('',(0.,-1.,0.));
#953 = DIRECTION('',(0.,0.,1.));
#954 = SPHERICAL_SURFACE('',#955,1.E-02);
#955 = AXIS2_PLACEMENT_3D('',#956,#957,#958);
#956 = CARTESIAN_POINT('',(-0.49,0.24,0.34));
#957 = DIRECTION('',(0.,-1.,0.));
#958 = DIRECTION('',(0.,0.,1.));
#959 = ADVANCED_FACE('',(#960),#971,.T.);
#960 = FACE_BOUND('',#961,.T.);
#961 = EDGE_LOOP('',(#962,#963,#970));
#962 = ORIENTED_EDGE('',*,*,#795,.F.);
#963 = ORIENTED_EDGE('',*,*,#964,.T.);
#964 = EDGE_CURVE('',#788,#689,#965,.T.);
#965 = CIRCLE('',#966,1.E-02);
#966 = AXIS2_PLACEMENT_3D('',#967,#968,#969);
#967 = CARTESIAN_POINT('',(-0.49,0.24,1.E-02));
#968 = DIRECTION('',(6.123233995737E-17,1.,-2.22044604925E-16));
#969 = DIRECTION('',(-1.,6.123233995737E-17,-1.359631073447E-32));
#970 = ORIENTED_EDGE('',*,*,#688,.F.);
#971 = SPHERICAL_SURFACE('',#972,1.E-02);
#972 = AXIS2_PLACEMENT_3D('',#973,#974,#975);
#973 = CARTESIAN_POINT('',(-0.49,0.24,1.E-02));
#974 = DIRECTION('',(0.,2.22044604925E-16,1.));
#975 = DIRECTION('',(0.,1.,-2.22044604925E-16));
#976 = ADVANCED_FACE('',(#977),#1002,.T.);
#977 = FACE_BOUND('',#978,.T.);
#978 = EDGE_LOOP('',(#979,#987,#988,#996));
#979 = ORIENTED_EDGE('',*,*,#980,.F.);
#980 = EDGE_CURVE('',#698,#981,#983,.T.);
#981 = VERTEX_POINT('',#982);
#982 = CARTESIAN_POINT('',(-0.5,-0.24,0.34));
#983 = LINE('',#984,#985);
#984 = CARTESIAN_POINT('',(-0.5,0.25,0.34));
#985 = VECTOR('',#986,1.);
#986 = DIRECTION('',(0.,-1.,2.22044604925E-16));
#987 = ORIENTED_EDGE('',*,*,#697,.F.);
#988 = ORIENTED_EDGE('',*,*,#989,.T.);
#989 = EDGE_CURVE('',#689,#990,#992,.T.);
#990 = VERTEX_POINT('',#991);
#991 = CARTESIAN_POINT('',(-0.5,-0.24,1.E-02));
#992 = LINE('',#993,#994);
#993 = CARTESIAN_POINT('',(-0.5,0.25,1.E-02));
#994 = VECTOR('',#995,1.);
#995 = DIRECTION('',(0.,-1.,2.22044604925E-16));
#996 = ORIENTED_EDGE('',*,*,#997,.T.);
#997 = EDGE_CURVE('',#990,#981,#998,.T.);
#998 = LINE('',#999,#1000);
#999 = CARTESIAN_POINT('',(-0.5,-0.24,5.551115123126E-17));
#1000 = VECTOR('',#1001,1.);
#1001 = DIRECTION('',(0.,2.22044604925E-16,1.));
#1002 = PLANE('',#1003);
#1003 = AXIS2_PLACEMENT_3D('',#1004,#1005,#1006);
#1004 = CARTESIAN_POINT('',(-0.5,0.25,-5.551115123126E-17));
#1005 = DIRECTION('',(-1.,0.,0.));
#1006 = DIRECTION('',(0.,2.22044604925E-16,1.));
#1007 = ADVANCED_FACE('',(#1008),#1033,.T.);
#1008 = FACE_BOUND('',#1009,.T.);
#1009 = EDGE_LOOP('',(#1010,#1011,#1019,#1027));
#1010 = ORIENTED_EDGE('',*,*,#738,.T.);
#1011 = ORIENTED_EDGE('',*,*,#1012,.T.);
#1012 = EDGE_CURVE('',#741,#1013,#1015,.T.);
#1013 = VERTEX_POINT('',#1014);
#1014 = CARTESIAN_POINT('',(-1.324866142719E-17,-2.E-03,0.177));
#1015 = LINE('',#1016,#1017);
#1016 = CARTESIAN_POINT('',(-0.475,-2.E-03,0.177));
#1017 = VECTOR('',#1018,1.);
#1018 = DIRECTION('',(1.,0.,0.));
#1019 = ORIENTED_EDGE('',*,*,#1020,.F.);
#1020 = EDGE_CURVE('',#1021,#1013,#1023,.T.);
#1021 = VERTEX_POINT('',#1022);
#1022 = CARTESIAN_POINT('',(-1.295260195396E-17,2.E-03,0.177));
#1023 = LINE('',#1024,#1025);
#1024 = CARTESIAN_POINT('',(0.,2.E-03,0.177));
#1025 = VECTOR('',#1026,1.);
#1026 = DIRECTION('',(0.,-1.,2.22044604925E-16));
#1027 = ORIENTED_EDGE('',*,*,#1028,.F.);
#1028 = EDGE_CURVE('',#739,#1021,#1029,.T.);
#1029 = LINE('',#1030,#1031);
#1030 = CARTESIAN_POINT('',(-0.475,2.E-03,0.177));
#1031 = VECTOR('',#1032,1.);
#1032 = DIRECTION('',(1.,0.,0.));
#1033 = PLANE('',#1034);
#1034 = AXIS2_PLACEMENT_3D('',#1035,#1036,#1037);
#1035 = CARTESIAN_POINT('',(-0.475,2.E-03,0.177));
#1036 = DIRECTION('',(0.,2.22044604925E-16,1.));
#1037 = DIRECTION('',(1.,0.,0.));
#1038 = ADVANCED_FACE('',(#1039),#1065,.F.);
#1039 = FACE_BOUND('',#1040,.F.);
#1040 = EDGE_LOOP('',(#1041,#1042,#1050,#1058,#1064));
#1041 = ORIENTED_EDGE('',*,*,#1012,.T.);
#1042 = ORIENTED_EDGE('',*,*,#1043,.T.);
#1043 = EDGE_CURVE('',#1013,#1044,#1046,.T.);
#1044 = VERTEX_POINT('',#1045);
#1045 = CARTESIAN_POINT('',(-1.310063169058E-17,-2.E-03,0.175));
#1046 = LINE('',#1047,#1048);
#1047 = CARTESIAN_POINT('',(0.,-2.E-03,0.177));
#1048 = VECTOR('',#1049,1.);
#1049 = DIRECTION('',(0.,-2.22044604925E-16,-1.));
#1050 = ORIENTED_EDGE('',*,*,#1051,.T.);
#1051 = EDGE_CURVE('',#1044,#1052,#1054,.T.);
#1052 = VERTEX_POINT('',#1053);
#1053 = CARTESIAN_POINT('',(-1.295260195396E-17,-2.E-03,0.173));
#1054 = LINE('',#1055,#1056);
#1055 = CARTESIAN_POINT('',(0.,-2.E-03,0.175));
#1056 = VECTOR('',#1057,1.);
#1057 = DIRECTION('',(0.,-2.22044604925E-16,-1.));
#1058 = ORIENTED_EDGE('',*,*,#1059,.T.);
#1059 = EDGE_CURVE('',#1052,#757,#1060,.T.);
#1060 = LINE('',#1061,#1062);
#1061 = CARTESIAN_POINT('',(0.,-2.E-03,0.173));
#1062 = VECTOR('',#1063,1.);
#1063 = DIRECTION('',(-1.,0.,0.));
#1064 = ORIENTED_EDGE('',*,*,#764,.T.);
#1065 = PLANE('',#1066);
#1066 = AXIS2_PLACEMENT_3D('',#1067,#1068,#1069);
#1067 = CARTESIAN_POINT('',(-0.2375,-2.E-03,0.175));
#1068 = DIRECTION('',(0.,1.,0.));
#1069 = DIRECTION('',(0.,0.,1.));
#1070 = ADVANCED_FACE('',(#1071),#1089,.T.);
#1071 = FACE_BOUND('',#1072,.T.);
#1072 = EDGE_LOOP('',(#1073,#1081,#1082,#1083));
#1073 = ORIENTED_EDGE('',*,*,#1074,.T.);
#1074 = EDGE_CURVE('',#1075,#1052,#1077,.T.);
#1075 = VERTEX_POINT('',#1076);
#1076 = CARTESIAN_POINT('',(-1.265654248073E-17,2.E-03,0.173));
#1077 = LINE('',#1078,#1079);
#1078 = CARTESIAN_POINT('',(0.,2.E-03,0.173));
#1079 = VECTOR('',#1080,1.);
#1080 = DIRECTION('',(0.,-1.,2.22044604925E-16));
#1081 = ORIENTED_EDGE('',*,*,#1059,.T.);
#1082 = ORIENTED_EDGE('',*,*,#756,.F.);
#1083 = ORIENTED_EDGE('',*,*,#1084,.F.);
#1084 = EDGE_CURVE('',#1075,#749,#1085,.T.);
#1085 = LINE('',#1086,#1087);
#1086 = CARTESIAN_POINT('',(0.,2.E-03,0.173));
#1087 = VECTOR('',#1088,1.);
#1088 = DIRECTION('',(-1.,0.,0.));
#1089 = PLANE('',#1090);
#1090 = AXIS2_PLACEMENT_3D('',#1091,#1092,#1093);
#1091 = CARTESIAN_POINT('',(0.,2.E-03,0.173));
#1092 = DIRECTION('',(0.,-2.22044604925E-16,-1.));
#1093 = DIRECTION('',(-1.,0.,0.));
#1094 = ADVANCED_FACE('',(#1095),#1114,.T.);
#1095 = FACE_BOUND('',#1096,.T.);
#1096 = EDGE_LOOP('',(#1097,#1098,#1106,#1112,#1113));
#1097 = ORIENTED_EDGE('',*,*,#1028,.T.);
#1098 = ORIENTED_EDGE('',*,*,#1099,.T.);
#1099 = EDGE_CURVE('',#1021,#1100,#1102,.T.);
#1100 = VERTEX_POINT('',#1101);
#1101 = CARTESIAN_POINT('',(-1.280457221734E-17,2.E-03,0.175));
#1102 = LINE('',#1103,#1104);
#1103 = CARTESIAN_POINT('',(0.,2.E-03,0.177));
#1104 = VECTOR('',#1105,1.);
#1105 = DIRECTION('',(0.,-2.22044604925E-16,-1.));
#1106 = ORIENTED_EDGE('',*,*,#1107,.T.);
#1107 = EDGE_CURVE('',#1100,#1075,#1108,.T.);
#1108 = LINE('',#1109,#1110);
#1109 = CARTESIAN_POINT('',(0.,2.E-03,0.175));
#1110 = VECTOR('',#1111,1.);
#1111 = DIRECTION('',(0.,-2.22044604925E-16,-1.));
#1112 = ORIENTED_EDGE('',*,*,#1084,.T.);
#1113 = ORIENTED_EDGE('',*,*,#748,.T.);
#1114 = PLANE('',#1115);
#1115 = AXIS2_PLACEMENT_3D('',#1116,#1117,#1118);
#1116 = CARTESIAN_POINT('',(-0.2375,2.E-03,0.175));
#1117 = DIRECTION('',(0.,1.,0.));
#1118 = DIRECTION('',(0.,0.,1.));
#1119 = ADVANCED_FACE('',(#1120),#1138,.T.);
#1120 = FACE_BOUND('',#1121,.T.);
#1121 = EDGE_LOOP('',(#1122,#1123,#1131,#1137));
#1122 = ORIENTED_EDGE('',*,*,#835,.T.);
#1123 = ORIENTED_EDGE('',*,*,#1124,.T.);
#1124 = EDGE_CURVE('',#836,#1125,#1127,.T.);
#1125 = VERTEX_POINT('',#1126);
#1126 = CARTESIAN_POINT('',(-0.49,-0.24,5.329070518201E-17));
#1127 = LINE('',#1128,#1129);
#1128 = CARTESIAN_POINT('',(-0.25,-0.24,5.252742685258E-17));
#1129 = VECTOR('',#1130,1.);
#1130 = DIRECTION('',(-1.,0.,0.));
#1131 = ORIENTED_EDGE('',*,*,#1132,.F.);
#1132 = EDGE_CURVE('',#788,#1125,#1133,.T.);
#1133 = LINE('',#1134,#1135);
#1134 = CARTESIAN_POINT('',(-0.49,0.25,-5.724587470723E-17));
#1135 = VECTOR('',#1136,1.);
#1136 = DIRECTION('',(0.,-1.,2.22044604925E-16));
#1137 = ORIENTED_EDGE('',*,*,#787,.F.);
#1138 = PLANE('',#1139);
#1139 = AXIS2_PLACEMENT_3D('',#1140,#1141,#1142);
#1140 = CARTESIAN_POINT('',(-0.25,0.25,-5.551115123126E-17));
#1141 = DIRECTION('',(0.,-2.22044604925E-16,-1.));
#1142 = DIRECTION('',(-1.,0.,0.));
#1143 = ADVANCED_FACE('',(#1144),#1156,.T.);
#1144 = FACE_BOUND('',#1145,.F.);
#1145 = EDGE_LOOP('',(#1146,#1147,#1148,#1155));
#1146 = ORIENTED_EDGE('',*,*,#854,.T.);
#1147 = ORIENTED_EDGE('',*,*,#1124,.T.);
#1148 = ORIENTED_EDGE('',*,*,#1149,.T.);
#1149 = EDGE_CURVE('',#1125,#924,#1150,.T.);
#1150 = CIRCLE('',#1151,1.E-02);
#1151 = AXIS2_PLACEMENT_3D('',#1152,#1153,#1154);
#1152 = CARTESIAN_POINT('',(-0.49,-0.24,1.E-02));
#1153 = DIRECTION('',(-1.,3.942992473449E-16,-8.755202059894E-32));
#1154 = DIRECTION('',(-3.942992473449E-16,-1.,2.22044604925E-16));
#1155 = ORIENTED_EDGE('',*,*,#923,.F.);
#1156 = CYLINDRICAL_SURFACE('',#1157,1.E-02);
#1157 = AXIS2_PLACEMENT_3D('',#1158,#1159,#1160);
#1158 = CARTESIAN_POINT('',(-0.25,-0.24,1.E-02));
#1159 = DIRECTION('',(-1.,0.,0.));
#1160 = DIRECTION('',(0.,-1.,0.));
#1161 = ADVANCED_FACE('',(#1162),#1174,.T.);
#1162 = FACE_BOUND('',#1163,.F.);
#1163 = EDGE_LOOP('',(#1164,#1165,#1166,#1167));
#1164 = ORIENTED_EDGE('',*,*,#980,.F.);
#1165 = ORIENTED_EDGE('',*,*,#948,.F.);
#1166 = ORIENTED_EDGE('',*,*,#871,.T.);
#1167 = ORIENTED_EDGE('',*,*,#1168,.F.);
#1168 = EDGE_CURVE('',#981,#872,#1169,.T.);
#1169 = CIRCLE('',#1170,1.E-02);
#1170 = AXIS2_PLACEMENT_3D('',#1171,#1172,#1173);
#1171 = CARTESIAN_POINT('',(-0.49,-0.24,0.34));
#1172 = DIRECTION('',(-0.,1.,2.997602166488E-15));
#1173 = DIRECTION('',(0.,-2.997602166488E-15,1.));
#1174 = CYLINDRICAL_SURFACE('',#1175,1.E-02);
#1175 = AXIS2_PLACEMENT_3D('',#1176,#1177,#1178);
#1176 = CARTESIAN_POINT('',(-0.49,0.25,0.34));
#1177 = DIRECTION('',(0.,-1.,2.22044604925E-16));
#1178 = DIRECTION('',(-1.,0.,0.));
#1179 = ADVANCED_FACE('',(#1180),#1191,.T.);
#1180 = FACE_BOUND('',#1181,.T.);
#1181 = EDGE_LOOP('',(#1182,#1183,#1190));
#1182 = ORIENTED_EDGE('',*,*,#1168,.F.);
#1183 = ORIENTED_EDGE('',*,*,#1184,.T.);
#1184 = EDGE_CURVE('',#981,#894,#1185,.T.);
#1185 = CIRCLE('',#1186,1.E-02);
#1186 = AXIS2_PLACEMENT_3D('',#1187,#1188,#1189);
#1187 = CARTESIAN_POINT('',(-0.49,-0.24,0.34));
#1188 = DIRECTION('',(0.,-2.718345674302E-16,1.));
#1189 = DIRECTION('',(0.,-1.,-2.718345674302E-16));
#1190 = ORIENTED_EDGE('',*,*,#901,.F.);
#1191 = SPHERICAL_SURFACE('',#1192,1.E-02);
#1192 = AXIS2_PLACEMENT_3D('',#1193,#1194,#1195);
#1193 = CARTESIAN_POINT('',(-0.49,-0.24,0.34));
#1194 = DIRECTION('',(1.,0.,0.));
#1195 = DIRECTION('',(0.,-2.997602166488E-15,1.));
#1196 = ADVANCED_FACE('',(#1197),#1209,.T.);
#1197 = FACE_BOUND('',#1198,.F.);
#1198 = EDGE_LOOP('',(#1199,#1200,#1207,#1208));
#1199 = ORIENTED_EDGE('',*,*,#931,.F.);
#1200 = ORIENTED_EDGE('',*,*,#1201,.F.);
#1201 = EDGE_CURVE('',#990,#924,#1202,.T.);
#1202 = CIRCLE('',#1203,1.E-02);
#1203 = AXIS2_PLACEMENT_3D('',#1204,#1205,#1206);
#1204 = CARTESIAN_POINT('',(-0.49,-0.24,1.E-02));
#1205 = DIRECTION('',(0.,2.22044604925E-16,1.));
#1206 = DIRECTION('',(-1.,2.775557561563E-15,-6.162975822039E-31));
#1207 = ORIENTED_EDGE('',*,*,#997,.T.);
#1208 = ORIENTED_EDGE('',*,*,#1184,.T.);
#1209 = CYLINDRICAL_SURFACE('',#1210,1.E-02);
#1210 = AXIS2_PLACEMENT_3D('',#1211,#1212,#1213);
#1211 = CARTESIAN_POINT('',(-0.49,-0.24,5.551115123126E-17));
#1212 = DIRECTION('',(0.,2.22044604925E-16,1.));
#1213 = DIRECTION('',(0.,-1.,2.22044604925E-16));
#1214 = ADVANCED_FACE('',(#1215),#1227,.T.);
#1215 = FACE_BOUND('',#1216,.F.);
#1216 = EDGE_LOOP('',(#1217,#1218,#1219,#1226));
#1217 = ORIENTED_EDGE('',*,*,#964,.T.);
#1218 = ORIENTED_EDGE('',*,*,#989,.T.);
#1219 = ORIENTED_EDGE('',*,*,#1220,.F.);
#1220 = EDGE_CURVE('',#1125,#990,#1221,.T.);
#1221 = CIRCLE('',#1222,1.E-02);
#1222 = AXIS2_PLACEMENT_3D('',#1223,#1224,#1225);
#1223 = CARTESIAN_POINT('',(-0.49,-0.24,1.E-02));
#1224 = DIRECTION('',(2.775557561563E-15,1.,-2.22044604925E-16));
#1225 = DIRECTION('',(-1.,2.775557561563E-15,-6.162975822039E-31));
#1226 = ORIENTED_EDGE('',*,*,#1132,.F.);
#1227 = CYLINDRICAL_SURFACE('',#1228,1.E-02);
#1228 = AXIS2_PLACEMENT_3D('',#1229,#1230,#1231);
#1229 = CARTESIAN_POINT('',(-0.49,0.25,1.E-02));
#1230 = DIRECTION('',(0.,-1.,2.22044604925E-16));
#1231 = DIRECTION('',(0.,-2.22044604925E-16,-1.));
#1232 = ADVANCED_FACE('',(#1233),#1258,.T.);
#1233 = FACE_BOUND('',#1234,.F.);
#1234 = EDGE_LOOP('',(#1235,#1245,#1251,#1252));
#1235 = ORIENTED_EDGE('',*,*,#1236,.T.);
#1236 = EDGE_CURVE('',#1237,#1239,#1241,.T.);
#1237 = VERTEX_POINT('',#1238);
#1238 = CARTESIAN_POINT('',(0.475,2.E-03,0.177));
#1239 = VERTEX_POINT('',#1240);
#1240 = CARTESIAN_POINT('',(0.475,-2.E-03,0.177));
#1241 = LINE('',#1242,#1243);
#1242 = CARTESIAN_POINT('',(0.475,2.E-03,0.177));
#1243 = VECTOR('',#1244,1.);
#1244 = DIRECTION('',(-2.22044604925E-16,-1.,2.22044604925E-16));
#1245 = ORIENTED_EDGE('',*,*,#1246,.T.);
#1246 = EDGE_CURVE('',#1239,#1013,#1247,.T.);
#1247 = LINE('',#1248,#1249);
#1248 = CARTESIAN_POINT('',(0.475,-2.E-03,0.177));
#1249 = VECTOR('',#1250,1.);
#1250 = DIRECTION('',(-1.,2.22044604925E-16,-2.22044604925E-16));
#1251 = ORIENTED_EDGE('',*,*,#1020,.F.);
#1252 = ORIENTED_EDGE('',*,*,#1253,.F.);
#1253 = EDGE_CURVE('',#1237,#1021,#1254,.T.);
#1254 = LINE('',#1255,#1256);
#1255 = CARTESIAN_POINT('',(0.475,2.E-03,0.177));
#1256 = VECTOR('',#1257,1.);
#1257 = DIRECTION('',(-1.,2.22044604925E-16,-2.22044604925E-16));
#1258 = PLANE('',#1259);
#1259 = AXIS2_PLACEMENT_3D('',#1260,#1261,#1262);
#1260 = CARTESIAN_POINT('',(0.475,2.E-03,0.177));
#1261 = DIRECTION('',(-2.22044604925E-16,2.22044604925E-16,1.));
#1262 = DIRECTION('',(1.,-2.22044604925E-16,2.22044604925E-16));
#1263 = ADVANCED_FACE('',(#1264),#1283,.F.);
#1264 = FACE_BOUND('',#1265,.T.);
#1265 = EDGE_LOOP('',(#1266,#1267,#1268,#1269,#1277));
#1266 = ORIENTED_EDGE('',*,*,#1246,.T.);
#1267 = ORIENTED_EDGE('',*,*,#1043,.T.);
#1268 = ORIENTED_EDGE('',*,*,#1051,.T.);
#1269 = ORIENTED_EDGE('',*,*,#1270,.T.);
#1270 = EDGE_CURVE('',#1052,#1271,#1273,.T.);
#1271 = VERTEX_POINT('',#1272);
#1272 = CARTESIAN_POINT('',(0.475,-2.E-03,0.173));
#1273 = LINE('',#1274,#1275);
#1274 = CARTESIAN_POINT('',(-3.885780586188E-17,-2.E-03,0.173));
#1275 = VECTOR('',#1276,1.);
#1276 = DIRECTION('',(1.,-2.22044604925E-16,2.22044604925E-16));
#1277 = ORIENTED_EDGE('',*,*,#1278,.T.);
#1278 = EDGE_CURVE('',#1271,#1239,#1279,.T.);
#1279 = LINE('',#1280,#1281);
#1280 = CARTESIAN_POINT('',(0.475,-2.E-03,0.173));
#1281 = VECTOR('',#1282,1.);
#1282 = DIRECTION('',(-2.22044604925E-16,2.22044604925E-16,1.));
#1283 = PLANE('',#1284);
#1284 = AXIS2_PLACEMENT_3D('',#1285,#1286,#1287);
#1285 = CARTESIAN_POINT('',(0.2375,-2.E-03,0.175));
#1286 = DIRECTION('',(2.22044604925E-16,1.,0.));
#1287 = DIRECTION('',(2.22044604925E-16,-2.465190328816E-32,-1.));
#1288 = ADVANCED_FACE('',(#1289),#1307,.T.);
#1289 = FACE_BOUND('',#1290,.F.);
#1290 = EDGE_LOOP('',(#1291,#1292,#1293,#1301));
#1291 = ORIENTED_EDGE('',*,*,#1074,.T.);
#1292 = ORIENTED_EDGE('',*,*,#1270,.T.);
#1293 = ORIENTED_EDGE('',*,*,#1294,.F.);
#1294 = EDGE_CURVE('',#1295,#1271,#1297,.T.);
#1295 = VERTEX_POINT('',#1296);
#1296 = CARTESIAN_POINT('',(0.475,2.E-03,0.173));
#1297 = LINE('',#1298,#1299);
#1298 = CARTESIAN_POINT('',(0.475,2.E-03,0.173));
#1299 = VECTOR('',#1300,1.);
#1300 = DIRECTION('',(-2.22044604925E-16,-1.,2.22044604925E-16));
#1301 = ORIENTED_EDGE('',*,*,#1302,.F.);
#1302 = EDGE_CURVE('',#1075,#1295,#1303,.T.);
#1303 = LINE('',#1304,#1305);
#1304 = CARTESIAN_POINT('',(-3.796962744218E-17,2.E-03,0.173));
#1305 = VECTOR('',#1306,1.);
#1306 = DIRECTION('',(1.,-2.22044604925E-16,2.22044604925E-16));
#1307 = PLANE('',#1308);
#1308 = AXIS2_PLACEMENT_3D('',#1309,#1310,#1311);
#1309 = CARTESIAN_POINT('',(-3.796962744218E-17,2.E-03,0.173));
#1310 = DIRECTION('',(2.22044604925E-16,-2.22044604925E-16,-1.));
#1311 = DIRECTION('',(-1.,2.22044604925E-16,-2.22044604925E-16));
#1312 = ADVANCED_FACE('',(#1313),#1325,.T.);
#1313 = FACE_BOUND('',#1314,.F.);
#1314 = EDGE_LOOP('',(#1315,#1316,#1317,#1318,#1319));
#1315 = ORIENTED_EDGE('',*,*,#1253,.T.);
#1316 = ORIENTED_EDGE('',*,*,#1099,.T.);
#1317 = ORIENTED_EDGE('',*,*,#1107,.T.);
#1318 = ORIENTED_EDGE('',*,*,#1302,.T.);
#1319 = ORIENTED_EDGE('',*,*,#1320,.T.);
#1320 = EDGE_CURVE('',#1295,#1237,#1321,.T.);
#1321 = LINE('',#1322,#1323);
#1322 = CARTESIAN_POINT('',(0.475,2.E-03,0.173));
#1323 = VECTOR('',#1324,1.);
#1324 = DIRECTION('',(-2.22044604925E-16,2.22044604925E-16,1.));
#1325 = PLANE('',#1326);
#1326 = AXIS2_PLACEMENT_3D('',#1327,#1328,#1329);
#1327 = CARTESIAN_POINT('',(0.2375,2.E-03,0.175));
#1328 = DIRECTION('',(2.22044604925E-16,1.,0.));
#1329 = DIRECTION('',(2.22044604925E-16,-2.465190328816E-32,-1.));
#1330 = ADVANCED_FACE('',(#1331),#1336,.T.);
#1331 = FACE_BOUND('',#1332,.T.);
#1332 = EDGE_LOOP('',(#1333,#1334,#1335));
#1333 = ORIENTED_EDGE('',*,*,#1220,.F.);
#1334 = ORIENTED_EDGE('',*,*,#1149,.T.);
#1335 = ORIENTED_EDGE('',*,*,#1201,.F.);
#1336 = SPHERICAL_SURFACE('',#1337,1.E-02);
#1337 = AXIS2_PLACEMENT_3D('',#1338,#1339,#1340);
#1338 = CARTESIAN_POINT('',(-0.49,-0.24,1.E-02));
#1339 = DIRECTION('',(0.,2.22044604925E-16,1.));
#1340 = DIRECTION('',(-1.,2.775557561563E-15,-6.162975822039E-31));
#1341 = ADVANCED_FACE('',(#1342,#1376),#1382,.T.);
#1342 = FACE_BOUND('',#1343,.F.);
#1343 = EDGE_LOOP('',(#1344,#1354,#1362,#1370));
#1344 = ORIENTED_EDGE('',*,*,#1345,.T.);
#1345 = EDGE_CURVE('',#1346,#1348,#1350,.T.);
#1346 = VERTEX_POINT('',#1347);
#1347 = CARTESIAN_POINT('',(0.475,0.25,0.325));
#1348 = VERTEX_POINT('',#1349);
#1349 = CARTESIAN_POINT('',(0.475,-0.25,0.325));
#1350 = LINE('',#1351,#1352);
#1351 = CARTESIAN_POINT('',(0.475,0.25,0.325));
#1352 = VECTOR('',#1353,1.);
#1353 = DIRECTION('',(-2.22044604925E-16,-1.,2.22044604925E-16));
#1354 = ORIENTED_EDGE('',*,*,#1355,.T.);
#1355 = EDGE_CURVE('',#1348,#1356,#1358,.T.);
#1356 = VERTEX_POINT('',#1357);
#1357 = CARTESIAN_POINT('',(0.475,-0.25,2.5E-02));
#1358 = LINE('',#1359,#1360);
#1359 = CARTESIAN_POINT('',(0.475,-0.25,0.325));
#1360 = VECTOR('',#1361,1.);
#1361 = DIRECTION('',(2.22044604925E-16,-2.22044604925E-16,-1.));
#1362 = ORIENTED_EDGE('',*,*,#1363,.F.);
#1363 = EDGE_CURVE('',#1364,#1356,#1366,.T.);
#1364 = VERTEX_POINT('',#1365);
#1365 = CARTESIAN_POINT('',(0.475,0.25,2.5E-02));
#1366 = LINE('',#1367,#1368);
#1367 = CARTESIAN_POINT('',(0.475,0.25,2.5E-02));
#1368 = VECTOR('',#1369,1.);
#1369 = DIRECTION('',(-2.22044604925E-16,-1.,2.22044604925E-16));
#1370 = ORIENTED_EDGE('',*,*,#1371,.F.);
#1371 = EDGE_CURVE('',#1346,#1364,#1372,.T.);
#1372 = LINE('',#1373,#1374);
#1373 = CARTESIAN_POINT('',(0.475,0.25,0.325));
#1374 = VECTOR('',#1375,1.);
#1375 = DIRECTION('',(2.22044604925E-16,-2.22044604925E-16,-1.));
#1376 = FACE_BOUND('',#1377,.F.);
#1377 = EDGE_LOOP('',(#1378,#1379,#1380,#1381));
#1378 = ORIENTED_EDGE('',*,*,#1236,.F.);
#1379 = ORIENTED_EDGE('',*,*,#1320,.F.);
#1380 = ORIENTED_EDGE('',*,*,#1294,.T.);
#1381 = ORIENTED_EDGE('',*,*,#1278,.T.);
#1382 = PLANE('',#1383);
#1383 = AXIS2_PLACEMENT_3D('',#1384,#1385,#1386);
#1384 = CARTESIAN_POINT('',(0.475,0.25,0.325));
#1385 = DIRECTION('',(-1.,2.22044604925E-16,-2.22044604925E-16));
#1386 = DIRECTION('',(-2.22044604925E-16,2.22044604925E-16,1.));
#1387 = ADVANCED_FACE('',(#1388),#1413,.T.);
#1388 = FACE_BOUND('',#1389,.F.);
#1389 = EDGE_LOOP('',(#1390,#1400,#1406,#1407));
#1390 = ORIENTED_EDGE('',*,*,#1391,.T.);
#1391 = EDGE_CURVE('',#1392,#1394,#1396,.T.);
#1392 = VERTEX_POINT('',#1393);
#1393 = CARTESIAN_POINT('',(0.25,0.25,0.325));
#1394 = VERTEX_POINT('',#1395);
#1395 = CARTESIAN_POINT('',(0.25,-0.25,0.325));
#1396 = LINE('',#1397,#1398);
#1397 = CARTESIAN_POINT('',(0.25,0.25,0.325));
#1398 = VECTOR('',#1399,1.);
#1399 = DIRECTION('',(-2.22044604925E-16,-1.,2.22044604925E-16));
#1400 = ORIENTED_EDGE('',*,*,#1401,.T.);
#1401 = EDGE_CURVE('',#1394,#1348,#1402,.T.);
#1402 = LINE('',#1403,#1404);
#1403 = CARTESIAN_POINT('',(0.25,-0.25,0.325));
#1404 = VECTOR('',#1405,1.);
#1405 = DIRECTION('',(1.,-2.22044604925E-16,2.22044604925E-16));
#1406 = ORIENTED_EDGE('',*,*,#1345,.F.);
#1407 = ORIENTED_EDGE('',*,*,#1408,.F.);
#1408 = EDGE_CURVE('',#1392,#1346,#1409,.T.);
#1409 = LINE('',#1410,#1411);
#1410 = CARTESIAN_POINT('',(0.25,0.25,0.325));
#1411 = VECTOR('',#1412,1.);
#1412 = DIRECTION('',(1.,-2.22044604925E-16,2.22044604925E-16));
#1413 = PLANE('',#1414);
#1414 = AXIS2_PLACEMENT_3D('',#1415,#1416,#1417);
#1415 = CARTESIAN_POINT('',(0.25,0.25,0.325));
#1416 = DIRECTION('',(2.22044604925E-16,-2.22044604925E-16,-1.));
#1417 = DIRECTION('',(-1.,2.22044604925E-16,-2.22044604925E-16));
#1418 = ADVANCED_FACE('',(#1419),#1469,.T.);
#1419 = FACE_BOUND('',#1420,.F.);
#1420 = EDGE_LOOP('',(#1421,#1431,#1439,#1447,#1455,#1461,#1462,#1463));
#1421 = ORIENTED_EDGE('',*,*,#1422,.T.);
#1422 = EDGE_CURVE('',#1423,#1425,#1427,.T.);
#1423 = VERTEX_POINT('',#1424);
#1424 = CARTESIAN_POINT('',(0.25,0.25,2.5E-02));
#1425 = VERTEX_POINT('',#1426);
#1426 = CARTESIAN_POINT('',(0.25,0.25,1.E-02));
#1427 = LINE('',#1428,#1429);
#1428 = CARTESIAN_POINT('',(0.25,0.25,2.5E-02));
#1429 = VECTOR('',#1430,1.);
#1430 = DIRECTION('',(2.22044604925E-16,-2.22044604925E-16,-1.));
#1431 = ORIENTED_EDGE('',*,*,#1432,.T.);
#1432 = EDGE_CURVE('',#1425,#1433,#1435,.T.);
#1433 = VERTEX_POINT('',#1434);
#1434 = CARTESIAN_POINT('',(0.49,0.25,1.E-02));
#1435 = LINE('',#1436,#1437);
#1436 = CARTESIAN_POINT('',(0.25,0.25,1.E-02));
#1437 = VECTOR('',#1438,1.);
#1438 = DIRECTION('',(1.,-2.22044604925E-16,2.22044604925E-16));
#1439 = ORIENTED_EDGE('',*,*,#1440,.T.);
#1440 = EDGE_CURVE('',#1433,#1441,#1443,.T.);
#1441 = VERTEX_POINT('',#1442);
#1442 = CARTESIAN_POINT('',(0.49,0.25,0.34));
#1443 = LINE('',#1444,#1445);
#1444 = CARTESIAN_POINT('',(0.49,0.25,5.107025913276E-17));
#1445 = VECTOR('',#1446,1.);
#1446 = DIRECTION('',(-2.22044604925E-16,2.22044604925E-16,1.));
#1447 = ORIENTED_EDGE('',*,*,#1448,.T.);
#1448 = EDGE_CURVE('',#1441,#1449,#1451,.T.);
#1449 = VERTEX_POINT('',#1450);
#1450 = CARTESIAN_POINT('',(0.25,0.25,0.34));
#1451 = LINE('',#1452,#1453);
#1452 = CARTESIAN_POINT('',(0.5,0.25,0.34));
#1453 = VECTOR('',#1454,1.);
#1454 = DIRECTION('',(-1.,2.22044604925E-16,-2.22044604925E-16));
#1455 = ORIENTED_EDGE('',*,*,#1456,.T.);
#1456 = EDGE_CURVE('',#1449,#1392,#1457,.T.);
#1457 = LINE('',#1458,#1459);
#1458 = CARTESIAN_POINT('',(0.25,0.25,0.35));
#1459 = VECTOR('',#1460,1.);
#1460 = DIRECTION('',(2.22044604925E-16,-2.22044604925E-16,-1.));
#1461 = ORIENTED_EDGE('',*,*,#1408,.T.);
#1462 = ORIENTED_EDGE('',*,*,#1371,.T.);
#1463 = ORIENTED_EDGE('',*,*,#1464,.T.);
#1464 = EDGE_CURVE('',#1364,#1423,#1465,.T.);
#1465 = LINE('',#1466,#1467);
#1466 = CARTESIAN_POINT('',(0.475,0.25,2.5E-02));
#1467 = VECTOR('',#1468,1.);
#1468 = DIRECTION('',(-1.,2.22044604925E-16,-2.22044604925E-16));
#1469 = PLANE('',#1470);
#1470 = AXIS2_PLACEMENT_3D('',#1471,#1472,#1473);
#1471 = CARTESIAN_POINT('',(0.4125,0.25,0.175));
#1472 = DIRECTION('',(2.22044604925E-16,1.,0.));
#1473 = DIRECTION('',(2.22044604925E-16,-2.465190328816E-32,-1.));
#1474 = ADVANCED_FACE('',(#1475),#1525,.F.);
#1475 = FACE_BOUND('',#1476,.T.);
#1476 = EDGE_LOOP('',(#1477,#1487,#1495,#1503,#1511,#1517,#1518,#1519));
#1477 = ORIENTED_EDGE('',*,*,#1478,.T.);
#1478 = EDGE_CURVE('',#1479,#1481,#1483,.T.);
#1479 = VERTEX_POINT('',#1480);
#1480 = CARTESIAN_POINT('',(0.25,-0.25,2.5E-02));
#1481 = VERTEX_POINT('',#1482);
#1482 = CARTESIAN_POINT('',(0.25,-0.25,1.E-02));
#1483 = LINE('',#1484,#1485);
#1484 = CARTESIAN_POINT('',(0.25,-0.25,2.5E-02));
#1485 = VECTOR('',#1486,1.);
#1486 = DIRECTION('',(2.22044604925E-16,-2.22044604925E-16,-1.));
#1487 = ORIENTED_EDGE('',*,*,#1488,.T.);
#1488 = EDGE_CURVE('',#1481,#1489,#1491,.T.);
#1489 = VERTEX_POINT('',#1490);
#1490 = CARTESIAN_POINT('',(0.49,-0.25,1.E-02));
#1491 = LINE('',#1492,#1493);
#1492 = CARTESIAN_POINT('',(0.25,-0.25,1.E-02));
#1493 = VECTOR('',#1494,1.);
#1494 = DIRECTION('',(1.,-2.22044604925E-16,2.22044604925E-16));
#1495 = ORIENTED_EDGE('',*,*,#1496,.T.);
#1496 = EDGE_CURVE('',#1489,#1497,#1499,.T.);
#1497 = VERTEX_POINT('',#1498);
#1498 = CARTESIAN_POINT('',(0.49,-0.25,0.34));
#1499 = LINE('',#1500,#1501);
#1500 = CARTESIAN_POINT('',(0.49,-0.25,1.665334536938E-16));
#1501 = VECTOR('',#1502,1.);
#1502 = DIRECTION('',(-2.22044604925E-16,2.22044604925E-16,1.));
#1503 = ORIENTED_EDGE('',*,*,#1504,.T.);
#1504 = EDGE_CURVE('',#1497,#1505,#1507,.T.);
#1505 = VERTEX_POINT('',#1506);
#1506 = CARTESIAN_POINT('',(0.25,-0.25,0.34));
#1507 = LINE('',#1508,#1509);
#1508 = CARTESIAN_POINT('',(0.5,-0.25,0.34));
#1509 = VECTOR('',#1510,1.);
#1510 = DIRECTION('',(-1.,2.22044604925E-16,-2.22044604925E-16));
#1511 = ORIENTED_EDGE('',*,*,#1512,.T.);
#1512 = EDGE_CURVE('',#1505,#1394,#1513,.T.);
#1513 = LINE('',#1514,#1515);
#1514 = CARTESIAN_POINT('',(0.25,-0.25,0.35));
#1515 = VECTOR('',#1516,1.);
#1516 = DIRECTION('',(2.22044604925E-16,-2.22044604925E-16,-1.));
#1517 = ORIENTED_EDGE('',*,*,#1401,.T.);
#1518 = ORIENTED_EDGE('',*,*,#1355,.T.);
#1519 = ORIENTED_EDGE('',*,*,#1520,.T.);
#1520 = EDGE_CURVE('',#1356,#1479,#1521,.T.);
#1521 = LINE('',#1522,#1523);
#1522 = CARTESIAN_POINT('',(0.475,-0.25,2.5E-02));
#1523 = VECTOR('',#1524,1.);
#1524 = DIRECTION('',(-1.,2.22044604925E-16,-2.22044604925E-16));
#1525 = PLANE('',#1526);
#1526 = AXIS2_PLACEMENT_3D('',#1527,#1528,#1529);
#1527 = CARTESIAN_POINT('',(0.4125,-0.25,0.175));
#1528 = DIRECTION('',(2.22044604925E-16,1.,0.));
#1529 = DIRECTION('',(2.22044604925E-16,-2.465190328816E-32,-1.));
#1530 = ADVANCED_FACE('',(#1531),#1542,.T.);
#1531 = FACE_BOUND('',#1532,.F.);
#1532 = EDGE_LOOP('',(#1533,#1534,#1535,#1541));
#1533 = ORIENTED_EDGE('',*,*,#1363,.T.);
#1534 = ORIENTED_EDGE('',*,*,#1520,.T.);
#1535 = ORIENTED_EDGE('',*,*,#1536,.F.);
#1536 = EDGE_CURVE('',#1423,#1479,#1537,.T.);
#1537 = LINE('',#1538,#1539);
#1538 = CARTESIAN_POINT('',(0.25,0.25,2.5E-02));
#1539 = VECTOR('',#1540,1.);
#1540 = DIRECTION('',(-2.22044604925E-16,-1.,2.22044604925E-16));
#1541 = ORIENTED_EDGE('',*,*,#1464,.F.);
#1542 = PLANE('',#1543);
#1543 = AXIS2_PLACEMENT_3D('',#1544,#1545,#1546);
#1544 = CARTESIAN_POINT('',(0.475,0.25,2.5E-02));
#1545 = DIRECTION('',(-2.22044604925E-16,2.22044604925E-16,1.));
#1546 = DIRECTION('',(1.,-2.22044604925E-16,2.22044604925E-16));
#1547 = ADVANCED_FACE('',(#1548),#1577,.T.);
#1548 = FACE_BOUND('',#1549,.F.);
#1549 = EDGE_LOOP('',(#1550,#1559,#1567,#1574,#1575,#1576));
#1550 = ORIENTED_EDGE('',*,*,#1551,.T.);
#1551 = EDGE_CURVE('',#1449,#1552,#1554,.T.);
#1552 = VERTEX_POINT('',#1553);
#1553 = CARTESIAN_POINT('',(0.25,0.24,0.35));
#1554 = CIRCLE('',#1555,1.E-02);
#1555 = AXIS2_PLACEMENT_3D('',#1556,#1557,#1558);
#1556 = CARTESIAN_POINT('',(0.25,0.24,0.34));
#1557 = DIRECTION('',(1.,-2.22044604925E-16,2.22044604925E-16));
#1558 = DIRECTION('',(-2.22044604925E-16,-1.,-2.22044604925E-16));
#1559 = ORIENTED_EDGE('',*,*,#1560,.T.);
#1560 = EDGE_CURVE('',#1552,#1561,#1563,.T.);
#1561 = VERTEX_POINT('',#1562);
#1562 = CARTESIAN_POINT('',(0.25,-0.24,0.35));
#1563 = LINE('',#1564,#1565);
#1564 = CARTESIAN_POINT('',(0.25,0.25,0.35));
#1565 = VECTOR('',#1566,1.);
#1566 = DIRECTION('',(-2.22044604925E-16,-1.,2.22044604925E-16));
#1567 = ORIENTED_EDGE('',*,*,#1568,.F.);
#1568 = EDGE_CURVE('',#1505,#1561,#1569,.T.);
#1569 = CIRCLE('',#1570,1.E-02);
#1570 = AXIS2_PLACEMENT_3D('',#1571,#1572,#1573);
#1571 = CARTESIAN_POINT('',(0.25,-0.24,0.34));
#1572 = DIRECTION('',(-1.,2.22044604925E-16,-2.22044604925E-16));
#1573 = DIRECTION('',(-2.22044604925E-16,-1.,-2.22044604925E-16));
#1574 = ORIENTED_EDGE('',*,*,#1512,.T.);
#1575 = ORIENTED_EDGE('',*,*,#1391,.F.);
#1576 = ORIENTED_EDGE('',*,*,#1456,.F.);
#1577 = PLANE('',#1578);
#1578 = AXIS2_PLACEMENT_3D('',#1579,#1580,#1581);
#1579 = CARTESIAN_POINT('',(0.25,0.25,0.35));
#1580 = DIRECTION('',(-1.,2.22044604925E-16,-2.22044604925E-16));
#1581 = DIRECTION('',(-2.22044604925E-16,2.22044604925E-16,1.));
#1582 = ADVANCED_FACE('',(#1583),#1612,.T.);
#1583 = FACE_BOUND('',#1584,.F.);
#1584 = EDGE_LOOP('',(#1585,#1586,#1587,#1588,#1597,#1605));
#1585 = ORIENTED_EDGE('',*,*,#1422,.F.);
#1586 = ORIENTED_EDGE('',*,*,#1536,.T.);
#1587 = ORIENTED_EDGE('',*,*,#1478,.T.);
#1588 = ORIENTED_EDGE('',*,*,#1589,.T.);
#1589 = EDGE_CURVE('',#1481,#1590,#1592,.T.);
#1590 = VERTEX_POINT('',#1591);
#1591 = CARTESIAN_POINT('',(0.25,-0.24,1.080385780838E-16));
#1592 = CIRCLE('',#1593,1.E-02);
#1593 = AXIS2_PLACEMENT_3D('',#1594,#1595,#1596);
#1594 = CARTESIAN_POINT('',(0.25,-0.24,1.E-02));
#1595 = DIRECTION('',(1.,-2.22044604925E-16,2.22044604925E-16));
#1596 = DIRECTION('',(2.22044604925E-16,1.,2.22044604925E-16));
#1597 = ORIENTED_EDGE('',*,*,#1598,.F.);
#1598 = EDGE_CURVE('',#1599,#1590,#1601,.T.);
#1599 = VERTEX_POINT('',#1600);
#1600 = CARTESIAN_POINT('',(0.25,0.24,2.98372437868E-18));
#1601 = LINE('',#1602,#1603);
#1602 = CARTESIAN_POINT('',(0.25,0.25,6.162975822039E-33));
#1603 = VECTOR('',#1604,1.);
#1604 = DIRECTION('',(-2.22044604925E-16,-1.,2.22044604925E-16));
#1605 = ORIENTED_EDGE('',*,*,#1606,.F.);
#1606 = EDGE_CURVE('',#1425,#1599,#1607,.T.);
#1607 = CIRCLE('',#1608,1.E-02);
#1608 = AXIS2_PLACEMENT_3D('',#1609,#1610,#1611);
#1609 = CARTESIAN_POINT('',(0.25,0.24,1.E-02));
#1610 = DIRECTION('',(-1.,2.22044604925E-16,-2.22044604925E-16));
#1611 = DIRECTION('',(2.22044604925E-16,1.,2.22044604925E-16));
#1612 = PLANE('',#1613);
#1613 = AXIS2_PLACEMENT_3D('',#1614,#1615,#1616);
#1614 = CARTESIAN_POINT('',(0.25,0.25,2.5E-02));
#1615 = DIRECTION('',(-1.,2.22044604925E-16,-2.22044604925E-16));
#1616 = DIRECTION('',(-2.22044604925E-16,2.22044604925E-16,1.));
#1617 = ADVANCED_FACE('',(#1618),#1637,.T.);
#1618 = FACE_BOUND('',#1619,.F.);
#1619 = EDGE_LOOP('',(#1620,#1629,#1635,#1636));
#1620 = ORIENTED_EDGE('',*,*,#1621,.T.);
#1621 = EDGE_CURVE('',#1441,#1622,#1624,.T.);
#1622 = VERTEX_POINT('',#1623);
#1623 = CARTESIAN_POINT('',(0.49,0.24,0.35));
#1624 = CIRCLE('',#1625,1.E-02);
#1625 = AXIS2_PLACEMENT_3D('',#1626,#1627,#1628);
#1626 = CARTESIAN_POINT('',(0.49,0.24,0.34));
#1627 = DIRECTION('',(1.,-2.22044604925E-16,2.22044604925E-16));
#1628 = DIRECTION('',(-2.22044604925E-16,0.,1.));
#1629 = ORIENTED_EDGE('',*,*,#1630,.T.);
#1630 = EDGE_CURVE('',#1622,#1552,#1631,.T.);
#1631 = LINE('',#1632,#1633);
#1632 = CARTESIAN_POINT('',(0.5,0.24,0.35));
#1633 = VECTOR('',#1634,1.);
#1634 = DIRECTION('',(-1.,2.22044604925E-16,-2.22044604925E-16));
#1635 = ORIENTED_EDGE('',*,*,#1551,.F.);
#1636 = ORIENTED_EDGE('',*,*,#1448,.F.);
#1637 = CYLINDRICAL_SURFACE('',#1638,1.E-02);
#1638 = AXIS2_PLACEMENT_3D('',#1639,#1640,#1641);
#1639 = CARTESIAN_POINT('',(0.5,0.24,0.34));
#1640 = DIRECTION('',(-1.,2.22044604925E-16,-2.22044604925E-16));
#1641 = DIRECTION('',(2.22044604925E-16,1.,2.465190328816E-32));
#1642 = ADVANCED_FACE('',(#1643),#1670,.T.);
#1643 = FACE_BOUND('',#1644,.F.);
#1644 = EDGE_LOOP('',(#1645,#1646,#1655,#1663));
#1645 = ORIENTED_EDGE('',*,*,#1440,.F.);
#1646 = ORIENTED_EDGE('',*,*,#1647,.T.);
#1647 = EDGE_CURVE('',#1433,#1648,#1650,.T.);
#1648 = VERTEX_POINT('',#1649);
#1649 = CARTESIAN_POINT('',(0.5,0.24,1.E-02));
#1650 = CIRCLE('',#1651,1.E-02);
#1651 = AXIS2_PLACEMENT_3D('',#1652,#1653,#1654);
#1652 = CARTESIAN_POINT('',(0.49,0.24,1.E-02));
#1653 = DIRECTION('',(2.22044604925E-16,-2.22044604925E-16,-1.));
#1654 = DIRECTION('',(2.22044604925E-16,1.,-2.22044604925E-16));
#1655 = ORIENTED_EDGE('',*,*,#1656,.T.);
#1656 = EDGE_CURVE('',#1648,#1657,#1659,.T.);
#1657 = VERTEX_POINT('',#1658);
#1658 = CARTESIAN_POINT('',(0.5,0.24,0.34));
#1659 = LINE('',#1660,#1661);
#1660 = CARTESIAN_POINT('',(0.5,0.24,5.551115123126E-17));
#1661 = VECTOR('',#1662,1.);
#1662 = DIRECTION('',(-2.22044604925E-16,2.22044604925E-16,1.));
#1663 = ORIENTED_EDGE('',*,*,#1664,.F.);
#1664 = EDGE_CURVE('',#1441,#1657,#1665,.T.);
#1665 = CIRCLE('',#1666,1.E-02);
#1666 = AXIS2_PLACEMENT_3D('',#1667,#1668,#1669);
#1667 = CARTESIAN_POINT('',(0.49,0.24,0.34));
#1668 = DIRECTION('',(2.832769448824E-16,-3.824821402263E-32,-1.));
#1669 = DIRECTION('',(1.,-2.22044604925E-16,2.832769448824E-16));
#1670 = CYLINDRICAL_SURFACE('',#1671,1.E-02);
#1671 = AXIS2_PLACEMENT_3D('',#1672,#1673,#1674);
#1672 = CARTESIAN_POINT('',(0.49,0.24,5.329070518201E-17));
#1673 = DIRECTION('',(-2.22044604925E-16,2.22044604925E-16,1.));
#1674 = DIRECTION('',(2.22044604925E-16,1.,-2.22044604925E-16));
#1675 = ADVANCED_FACE('',(#1676),#1695,.T.);
#1676 = FACE_BOUND('',#1677,.F.);
#1677 = EDGE_LOOP('',(#1678,#1679,#1687,#1694));
#1678 = ORIENTED_EDGE('',*,*,#1606,.T.);
#1679 = ORIENTED_EDGE('',*,*,#1680,.T.);
#1680 = EDGE_CURVE('',#1599,#1681,#1683,.T.);
#1681 = VERTEX_POINT('',#1682);
#1682 = CARTESIAN_POINT('',(0.49,0.24,5.551115123126E-17));
#1683 = LINE('',#1684,#1685);
#1684 = CARTESIAN_POINT('',(0.25,0.24,2.98372437868E-18));
#1685 = VECTOR('',#1686,1.);
#1686 = DIRECTION('',(1.,-2.22044604925E-16,2.22044604925E-16));
#1687 = ORIENTED_EDGE('',*,*,#1688,.T.);
#1688 = EDGE_CURVE('',#1681,#1433,#1689,.T.);
#1689 = CIRCLE('',#1690,1.E-02);
#1690 = AXIS2_PLACEMENT_3D('',#1691,#1692,#1693);
#1691 = CARTESIAN_POINT('',(0.49,0.24,1.E-02));
#1692 = DIRECTION('',(1.,-2.22044604925E-16,2.22044604925E-16));
#1693 = DIRECTION('',(2.22044604925E-16,1.,-2.22044604925E-16));
#1694 = ORIENTED_EDGE('',*,*,#1432,.F.);
#1695 = CYLINDRICAL_SURFACE('',#1696,1.E-02);
#1696 = AXIS2_PLACEMENT_3D('',#1697,#1698,#1699);
#1697 = CARTESIAN_POINT('',(0.25,0.24,1.E-02));
#1698 = DIRECTION('',(1.,-2.22044604925E-16,2.22044604925E-16));
#1699 = DIRECTION('',(2.22044604925E-16,1.,2.465190328816E-32));
#1700 = ADVANCED_FACE('',(#1701),#1720,.T.);
#1701 = FACE_BOUND('',#1702,.T.);
#1702 = EDGE_LOOP('',(#1703,#1704,#1713,#1719));
#1703 = ORIENTED_EDGE('',*,*,#1504,.F.);
#1704 = ORIENTED_EDGE('',*,*,#1705,.F.);
#1705 = EDGE_CURVE('',#1706,#1497,#1708,.T.);
#1706 = VERTEX_POINT('',#1707);
#1707 = CARTESIAN_POINT('',(0.49,-0.24,0.35));
#1708 = CIRCLE('',#1709,1.E-02);
#1709 = AXIS2_PLACEMENT_3D('',#1710,#1711,#1712);
#1710 = CARTESIAN_POINT('',(0.49,-0.24,0.34));
#1711 = DIRECTION('',(1.,-2.22044604925E-16,2.22044604925E-16));
#1712 = DIRECTION('',(-2.22044604925E-16,-2.997602166488E-15,1.));
#1713 = ORIENTED_EDGE('',*,*,#1714,.T.);
#1714 = EDGE_CURVE('',#1706,#1561,#1715,.T.);
#1715 = LINE('',#1716,#1717);
#1716 = CARTESIAN_POINT('',(0.5,-0.24,0.35));
#1717 = VECTOR('',#1718,1.);
#1718 = DIRECTION('',(-1.,2.22044604925E-16,-2.22044604925E-16));
#1719 = ORIENTED_EDGE('',*,*,#1568,.F.);
#1720 = CYLINDRICAL_SURFACE('',#1721,1.E-02);
#1721 = AXIS2_PLACEMENT_3D('',#1722,#1723,#1724);
#1722 = CARTESIAN_POINT('',(0.5,-0.24,0.34));
#1723 = DIRECTION('',(-1.,2.22044604925E-16,-2.22044604925E-16));
#1724 = DIRECTION('',(-2.22044604925E-16,-1.,-2.465190328816E-32));
#1725 = ADVANCED_FACE('',(#1726),#1753,.T.);
#1726 = FACE_BOUND('',#1727,.T.);
#1727 = EDGE_LOOP('',(#1728,#1729,#1738,#1746));
#1728 = ORIENTED_EDGE('',*,*,#1496,.F.);
#1729 = ORIENTED_EDGE('',*,*,#1730,.F.);
#1730 = EDGE_CURVE('',#1731,#1489,#1733,.T.);
#1731 = VERTEX_POINT('',#1732);
#1732 = CARTESIAN_POINT('',(0.5,-0.24,1.E-02));
#1733 = CIRCLE('',#1734,1.E-02);
#1734 = AXIS2_PLACEMENT_3D('',#1735,#1736,#1737);
#1735 = CARTESIAN_POINT('',(0.49,-0.24,1.E-02));
#1736 = DIRECTION('',(2.22044604925E-16,-2.22044604925E-16,-1.));
#1737 = DIRECTION('',(1.,2.553512956638E-15,2.22044604925E-16));
#1738 = ORIENTED_EDGE('',*,*,#1739,.T.);
#1739 = EDGE_CURVE('',#1731,#1740,#1742,.T.);
#1740 = VERTEX_POINT('',#1741);
#1741 = CARTESIAN_POINT('',(0.5,-0.24,0.34));
#1742 = LINE('',#1743,#1744);
#1743 = CARTESIAN_POINT('',(0.5,-0.24,1.665334536938E-16));
#1744 = VECTOR('',#1745,1.);
#1745 = DIRECTION('',(-2.22044604925E-16,2.22044604925E-16,1.));
#1746 = ORIENTED_EDGE('',*,*,#1747,.T.);
#1747 = EDGE_CURVE('',#1740,#1497,#1748,.T.);
#1748 = CIRCLE('',#1749,1.E-02);
#1749 = AXIS2_PLACEMENT_3D('',#1750,#1751,#1752);
#1750 = CARTESIAN_POINT('',(0.49,-0.24,0.34));
#1751 = DIRECTION('',(2.22044604925E-16,2.718345674302E-16,-1.));
#1752 = DIRECTION('',(-2.22044604925E-16,-1.,-2.718345674302E-16));
#1753 = CYLINDRICAL_SURFACE('',#1754,1.E-02);
#1754 = AXIS2_PLACEMENT_3D('',#1755,#1756,#1757);
#1755 = CARTESIAN_POINT('',(0.49,-0.24,1.643130076445E-16));
#1756 = DIRECTION('',(-2.22044604925E-16,2.22044604925E-16,1.));
#1757 = DIRECTION('',(-2.22044604925E-16,-1.,2.22044604925E-16));
#1758 = ADVANCED_FACE('',(#1759),#1778,.T.);
#1759 = FACE_BOUND('',#1760,.T.);
#1760 = EDGE_LOOP('',(#1761,#1762,#1770,#1777));
#1761 = ORIENTED_EDGE('',*,*,#1589,.T.);
#1762 = ORIENTED_EDGE('',*,*,#1763,.T.);
#1763 = EDGE_CURVE('',#1590,#1764,#1766,.T.);
#1764 = VERTEX_POINT('',#1765);
#1765 = CARTESIAN_POINT('',(0.49,-0.24,1.620925615953E-16));
#1766 = LINE('',#1767,#1768);
#1767 = CARTESIAN_POINT('',(0.25,-0.24,1.080385780838E-16));
#1768 = VECTOR('',#1769,1.);
#1769 = DIRECTION('',(1.,-2.22044604925E-16,2.22044604925E-16));
#1770 = ORIENTED_EDGE('',*,*,#1771,.T.);
#1771 = EDGE_CURVE('',#1764,#1489,#1772,.T.);
#1772 = CIRCLE('',#1773,1.E-02);
#1773 = AXIS2_PLACEMENT_3D('',#1774,#1775,#1776);
#1774 = CARTESIAN_POINT('',(0.49,-0.24,1.E-02));
#1775 = DIRECTION('',(-1.,-1.722546424199E-16,-2.22044604925E-16));
#1776 = DIRECTION('',(1.722546424199E-16,-1.,2.22044604925E-16));
#1777 = ORIENTED_EDGE('',*,*,#1488,.F.);
#1778 = CYLINDRICAL_SURFACE('',#1779,1.E-02);
#1779 = AXIS2_PLACEMENT_3D('',#1780,#1781,#1782);
#1780 = CARTESIAN_POINT('',(0.25,-0.24,1.E-02));
#1781 = DIRECTION('',(1.,-2.22044604925E-16,2.22044604925E-16));
#1782 = DIRECTION('',(-2.22044604925E-16,-1.,-2.465190328816E-32));
#1783 = ADVANCED_FACE('',(#1784),#1795,.T.);
#1784 = FACE_BOUND('',#1785,.F.);
#1785 = EDGE_LOOP('',(#1786,#1787,#1788,#1794));
#1786 = ORIENTED_EDGE('',*,*,#1560,.F.);
#1787 = ORIENTED_EDGE('',*,*,#1630,.F.);
#1788 = ORIENTED_EDGE('',*,*,#1789,.T.);
#1789 = EDGE_CURVE('',#1622,#1706,#1790,.T.);
#1790 = LINE('',#1791,#1792);
#1791 = CARTESIAN_POINT('',(0.49,0.25,0.35));
#1792 = VECTOR('',#1793,1.);
#1793 = DIRECTION('',(-2.22044604925E-16,-1.,2.22044604925E-16));
#1794 = ORIENTED_EDGE('',*,*,#1714,.T.);
#1795 = PLANE('',#1796);
#1796 = AXIS2_PLACEMENT_3D('',#1797,#1798,#1799);
#1797 = CARTESIAN_POINT('',(0.5,0.25,0.35));
#1798 = DIRECTION('',(-2.22044604925E-16,2.22044604925E-16,1.));
#1799 = DIRECTION('',(1.,-2.22044604925E-16,2.22044604925E-16));
#1800 = ADVANCED_FACE('',(#1801),#1812,.T.);
#1801 = FACE_BOUND('',#1802,.F.);
#1802 = EDGE_LOOP('',(#1803,#1804,#1805,#1806));
#1803 = ORIENTED_EDGE('',*,*,#1680,.F.);
#1804 = ORIENTED_EDGE('',*,*,#1598,.T.);
#1805 = ORIENTED_EDGE('',*,*,#1763,.T.);
#1806 = ORIENTED_EDGE('',*,*,#1807,.F.);
#1807 = EDGE_CURVE('',#1681,#1764,#1808,.T.);
#1808 = LINE('',#1809,#1810);
#1809 = CARTESIAN_POINT('',(0.49,0.25,5.155598170603E-17));
#1810 = VECTOR('',#1811,1.);
#1811 = DIRECTION('',(-2.22044604925E-16,-1.,2.22044604925E-16));
#1812 = PLANE('',#1813);
#1813 = AXIS2_PLACEMENT_3D('',#1814,#1815,#1816);
#1814 = CARTESIAN_POINT('',(0.25,0.25,6.162975822039E-33));
#1815 = DIRECTION('',(2.22044604925E-16,-2.22044604925E-16,-1.));
#1816 = DIRECTION('',(-1.,2.22044604925E-16,-2.22044604925E-16));
#1817 = ADVANCED_FACE('',(#1818),#1829,.T.);
#1818 = FACE_BOUND('',#1819,.F.);
#1819 = EDGE_LOOP('',(#1820,#1821,#1822));
#1820 = ORIENTED_EDGE('',*,*,#1621,.F.);
#1821 = ORIENTED_EDGE('',*,*,#1664,.T.);
#1822 = ORIENTED_EDGE('',*,*,#1823,.F.);
#1823 = EDGE_CURVE('',#1622,#1657,#1824,.T.);
#1824 = CIRCLE('',#1825,1.E-02);
#1825 = AXIS2_PLACEMENT_3D('',#1826,#1827,#1828);
#1826 = CARTESIAN_POINT('',(0.49,0.24,0.34));
#1827 = DIRECTION('',(2.22044604925E-16,1.,4.930380657631E-32));
#1828 = DIRECTION('',(-2.22044604925E-16,0.,1.));
#1829 = SPHERICAL_SURFACE('',#1830,1.E-02);
#1830 = AXIS2_PLACEMENT_3D('',#1831,#1832,#1833);
#1831 = CARTESIAN_POINT('',(0.49,0.24,0.34));
#1832 = DIRECTION('',(-2.22044604925E-16,-1.,-2.465190328816E-32));
#1833 = DIRECTION('',(-2.22044604925E-16,0.,1.));
#1834 = ADVANCED_FACE('',(#1835),#1846,.T.);
#1835 = FACE_BOUND('',#1836,.F.);
#1836 = EDGE_LOOP('',(#1837,#1838,#1845));
#1837 = ORIENTED_EDGE('',*,*,#1688,.F.);
#1838 = ORIENTED_EDGE('',*,*,#1839,.T.);
#1839 = EDGE_CURVE('',#1681,#1648,#1840,.T.);
#1840 = CIRCLE('',#1841,1.E-02);
#1841 = AXIS2_PLACEMENT_3D('',#1842,#1843,#1844);
#1842 = CARTESIAN_POINT('',(0.49,0.24,1.E-02));
#1843 = DIRECTION('',(-1.608122649677E-16,-1.,2.22044604925E-16));
#1844 = DIRECTION('',(1.,-1.608122649677E-16,2.22044604925E-16));
#1845 = ORIENTED_EDGE('',*,*,#1647,.F.);
#1846 = SPHERICAL_SURFACE('',#1847,1.E-02);
#1847 = AXIS2_PLACEMENT_3D('',#1848,#1849,#1850);
#1848 = CARTESIAN_POINT('',(0.49,0.24,1.E-02));
#1849 = DIRECTION('',(-2.22044604925E-16,2.22044604925E-16,1.));
#1850 = DIRECTION('',(2.22044604925E-16,1.,-2.22044604925E-16));
#1851 = ADVANCED_FACE('',(#1852),#1868,.T.);
#1852 = FACE_BOUND('',#1853,.F.);
#1853 = EDGE_LOOP('',(#1854,#1855,#1861,#1862));
#1854 = ORIENTED_EDGE('',*,*,#1656,.F.);
#1855 = ORIENTED_EDGE('',*,*,#1856,.T.);
#1856 = EDGE_CURVE('',#1648,#1731,#1857,.T.);
#1857 = LINE('',#1858,#1859);
#1858 = CARTESIAN_POINT('',(0.5,0.25,1.E-02));
#1859 = VECTOR('',#1860,1.);
#1860 = DIRECTION('',(-2.22044604925E-16,-1.,2.22044604925E-16));
#1861 = ORIENTED_EDGE('',*,*,#1739,.T.);
#1862 = ORIENTED_EDGE('',*,*,#1863,.F.);
#1863 = EDGE_CURVE('',#1657,#1740,#1864,.T.);
#1864 = LINE('',#1865,#1866);
#1865 = CARTESIAN_POINT('',(0.5,0.25,0.34));
#1866 = VECTOR('',#1867,1.);
#1867 = DIRECTION('',(-2.22044604925E-16,-1.,2.22044604925E-16));
#1868 = PLANE('',#1869);
#1869 = AXIS2_PLACEMENT_3D('',#1870,#1871,#1872);
#1870 = CARTESIAN_POINT('',(0.5,0.25,5.551115123126E-17));
#1871 = DIRECTION('',(1.,-2.22044604925E-16,2.22044604925E-16));
#1872 = DIRECTION('',(2.22044604925E-16,-2.22044604925E-16,-1.));
#1873 = ADVANCED_FACE('',(#1874),#1885,.T.);
#1874 = FACE_BOUND('',#1875,.F.);
#1875 = EDGE_LOOP('',(#1876,#1883,#1884));
#1876 = ORIENTED_EDGE('',*,*,#1877,.F.);
#1877 = EDGE_CURVE('',#1740,#1706,#1878,.T.);
#1878 = CIRCLE('',#1879,1.E-02);
#1879 = AXIS2_PLACEMENT_3D('',#1880,#1881,#1882);
#1880 = CARTESIAN_POINT('',(0.49,-0.24,0.34));
#1881 = DIRECTION('',(-2.22044604925E-16,-1.,-2.997602166488E-15));
#1882 = DIRECTION('',(-2.22044604925E-16,-2.997602166488E-15,1.));
#1883 = ORIENTED_EDGE('',*,*,#1747,.T.);
#1884 = ORIENTED_EDGE('',*,*,#1705,.F.);
#1885 = SPHERICAL_SURFACE('',#1886,1.E-02);
#1886 = AXIS2_PLACEMENT_3D('',#1887,#1888,#1889);
#1887 = CARTESIAN_POINT('',(0.49,-0.24,0.34));
#1888 = DIRECTION('',(-1.,2.22044604925E-16,-2.22044604925E-16));
#1889 = DIRECTION('',(-2.22044604925E-16,-2.997602166488E-15,1.));
#1890 = ADVANCED_FACE('',(#1891),#1902,.T.);
#1891 = FACE_BOUND('',#1892,.F.);
#1892 = EDGE_LOOP('',(#1893,#1900,#1901));
#1893 = ORIENTED_EDGE('',*,*,#1894,.F.);
#1894 = EDGE_CURVE('',#1764,#1731,#1895,.T.);
#1895 = CIRCLE('',#1896,1.E-02);
#1896 = AXIS2_PLACEMENT_3D('',#1897,#1898,#1899);
#1897 = CARTESIAN_POINT('',(0.49,-0.24,1.E-02));
#1898 = DIRECTION('',(2.553512956638E-15,-1.,2.22044604925E-16));
#1899 = DIRECTION('',(1.,2.553512956638E-15,2.22044604925E-16));
#1900 = ORIENTED_EDGE('',*,*,#1771,.T.);
#1901 = ORIENTED_EDGE('',*,*,#1730,.F.);
#1902 = SPHERICAL_SURFACE('',#1903,1.E-02);
#1903 = AXIS2_PLACEMENT_3D('',#1904,#1905,#1906);
#1904 = CARTESIAN_POINT('',(0.49,-0.24,1.E-02));
#1905 = DIRECTION('',(-2.22044604925E-16,2.22044604925E-16,1.));
#1906 = DIRECTION('',(1.,2.553512956638E-15,2.22044604925E-16));
#1907 = ADVANCED_FACE('',(#1908),#1914,.T.);
#1908 = FACE_BOUND('',#1909,.T.);
#1909 = EDGE_LOOP('',(#1910,#1911,#1912,#1913));
#1910 = ORIENTED_EDGE('',*,*,#1863,.F.);
#1911 = ORIENTED_EDGE('',*,*,#1823,.F.);
#1912 = ORIENTED_EDGE('',*,*,#1789,.T.);
#1913 = ORIENTED_EDGE('',*,*,#1877,.F.);
#1914 = CYLINDRICAL_SURFACE('',#1915,1.E-02);
#1915 = AXIS2_PLACEMENT_3D('',#1916,#1917,#1918);
#1916 = CARTESIAN_POINT('',(0.49,0.25,0.34));
#1917 = DIRECTION('',(-2.22044604925E-16,-1.,2.22044604925E-16));
#1918 = DIRECTION('',(1.,-2.22044604925E-16,2.22044604925E-16));
#1919 = ADVANCED_FACE('',(#1920),#1926,.T.);
#1920 = FACE_BOUND('',#1921,.T.);
#1921 = EDGE_LOOP('',(#1922,#1923,#1924,#1925));
#1922 = ORIENTED_EDGE('',*,*,#1839,.T.);
#1923 = ORIENTED_EDGE('',*,*,#1856,.T.);
#1924 = ORIENTED_EDGE('',*,*,#1894,.F.);
#1925 = ORIENTED_EDGE('',*,*,#1807,.F.);
#1926 = CYLINDRICAL_SURFACE('',#1927,1.E-02);
#1927 = AXIS2_PLACEMENT_3D('',#1928,#1929,#1930);
#1928 = CARTESIAN_POINT('',(0.49,0.25,1.E-02));
#1929 = DIRECTION('',(-2.22044604925E-16,-1.,2.22044604925E-16));
#1930 = DIRECTION('',(2.22044604925E-16,-2.22044604925E-16,-1.));
#1931 = ( GEOMETRIC_REPRESENTATION_CONTEXT(3) 
GLOBAL_UNCERTAINTY_ASSIGNED_CONTEXT((#1935)) 
GLOBAL_UNIT_ASSIGNED_CONTEXT((#1932,#1933,#1934)) REPRESENTATION_CONTEXT
('Context #1','3D Context with UNIT and UNCERTAINTY') );
#1932 = ( LENGTH_UNIT() NAMED_UNIT(*) SI_UNIT(.MILLI.,.METRE.) );
#1933 = ( NAMED_UNIT(*) PLANE_ANGLE_UNIT() SI_UNIT($,.RADIAN.) );
#1934 = ( NAMED_UNIT(*) SI_UNIT($,.STERADIAN.) SOLID_ANGLE_UNIT() );
#1935 = UNCERTAINTY_MEASURE_WITH_UNIT(LENGTH_MEASURE(1.E-07),#1932,
  'distance_accuracy_value','confusion accuracy');
#1936 = CONTEXT_DEPENDENT_SHAPE_REPRESENTATION(#1937,#1939);
#1937 = ( REPRESENTATION_RELATIONSHIP('','',#510,#10) 
REPRESENTATION_RELATIONSHIP_WITH_TRANSFORMATION(#1938) 
SHAPE_REPRESENTATION_RELATIONSHIP() );
#1938 = ITEM_DEFINED_TRANSFORMATION('','',#11,#23);
#1939 = PRODUCT_DEFINITION_SHAPE('Placement','Placement of an item',
  #1940);
#1940 = NEXT_ASSEMBLY_USAGE_OCCURRENCE('20415','ResistorContacts','',#5,
  #505,$);
#1941 = PRODUCT_RELATED_PRODUCT_CATEGORY('part',$,(#507));
#1942 = MECHANICAL_DESIGN_GEOMETRIC_PRESENTATION_REPRESENTATION('',(
    #1943),#492);
#1943 = STYLED_ITEM('color',(#1944),#342);
#1944 = PRESENTATION_STYLE_ASSIGNMENT((#1945,#1951));
#1945 = SURFACE_STYLE_USAGE(.BOTH.,#1946);
#1946 = SURFACE_SIDE_STYLE('',(#1947));
#1947 = SURFACE_STYLE_FILL_AREA(#1948);
#1948 = FILL_AREA_STYLE('',(#1949));
#1949 = FILL_AREA_STYLE_COLOUR('',#1950);
#1950 = COLOUR_RGB('',0.133333336917,0.133333336917,0.133333336917);
#1951 = CURVE_STYLE('',#1952,POSITIVE_LENGTH_MEASURE(0.1),#1953);
#1952 = DRAUGHTING_PRE_DEFINED_CURVE_FONT('continuous');
#1953 = COLOUR_RGB('',9.803921802644E-02,9.803921802644E-02,
  9.803921802644E-02);
#1954 = MECHANICAL_DESIGN_GEOMETRIC_PRESENTATION_REPRESENTATION('',(
    #1955),#323);
#1955 = STYLED_ITEM('color',(#1956),#41);
#1956 = PRESENTATION_STYLE_ASSIGNMENT((#1957,#1963));
#1957 = SURFACE_STYLE_USAGE(.BOTH.,#1958);
#1958 = SURFACE_SIDE_STYLE('',(#1959));
#1959 = SURFACE_STYLE_FILL_AREA(#1960);
#1960 = FILL_AREA_STYLE('',(#1961));
#1961 = FILL_AREA_STYLE_COLOUR('',#1962);
#1962 = DRAUGHTING_PRE_DEFINED_COLOUR('white');
#1963 = CURVE_STYLE('',#1964,POSITIVE_LENGTH_MEASURE(0.1),#1953);
#1964 = DRAUGHTING_PRE_DEFINED_CURVE_FONT('continuous');
#1965 = MECHANICAL_DESIGN_GEOMETRIC_PRESENTATION_REPRESENTATION('',(
    #1966),#1931);
#1966 = STYLED_ITEM('color',(#1967),#511);
#1967 = PRESENTATION_STYLE_ASSIGNMENT((#1968,#1974));
#1968 = SURFACE_STYLE_USAGE(.BOTH.,#1969);
#1969 = SURFACE_SIDE_STYLE('',(#1970));
#1970 = SURFACE_STYLE_FILL_AREA(#1971);
#1971 = FILL_AREA_STYLE('',(#1972));
#1972 = FILL_AREA_STYLE_COLOUR('',#1973);
#1973 = COLOUR_RGB('',0.733333345324,0.733333345324,0.733333345324);
#1974 = CURVE_STYLE('',#1975,POSITIVE_LENGTH_MEASURE(0.1),#1953);
#1975 = DRAUGHTING_PRE_DEFINED_CURVE_FONT('continuous');
ENDSEC;
END-ISO-10303-21;
